<?xml version="1.0" encoding="utf-8"?>
<!-- Generator: Adobe Illustrator 16.0.0, SVG Export Plug-In . SVG Version: 6.00 Build 0)  -->
<!DOCTYPE svg PUBLIC "-//W3C//DTD SVG 1.1//EN" "http://www.w3.org/Graphics/SVG/1.1/DTD/svg11.dtd">
<svg version="1.1" id="Layer_1" xmlns="http://www.w3.org/2000/svg" xmlns:xlink="http://www.w3.org/1999/xlink" x="0px" y="0px"
	 width="841.891px" height="595.281px" viewBox="0 0 841.891 595.281" enable-background="new 0 0 841.891 595.281"
	 xml:space="preserve">
<path fill="#FFFFFF" d="M144.404,51.997l-1.47,4.451h-1.89l4.808-14.151h2.205l4.829,14.151h-1.953l-1.512-4.451H144.404z
	 M149.044,50.569l-1.386-4.073c-0.315-0.924-0.525-1.764-0.735-2.582h-0.042c-0.21,0.84-0.441,1.7-0.714,2.561l-1.386,4.095H149.044
	z"/>
<path fill="#FFFFFF" d="M154.967,42.486c0.924-0.189,2.247-0.295,3.506-0.295c1.953,0,3.212,0.357,4.094,1.155
	c0.714,0.63,1.113,1.596,1.113,2.688c0,1.868-1.176,3.107-2.667,3.611v0.063c1.092,0.377,1.743,1.385,2.079,2.855
	c0.462,1.973,0.798,3.338,1.092,3.884h-1.89c-0.231-0.399-0.546-1.616-0.945-3.38c-0.42-1.953-1.176-2.688-2.834-2.751h-1.722v6.131
	h-1.827V42.486z M156.794,48.931h1.869c1.953,0,3.191-1.07,3.191-2.688c0-1.826-1.323-2.625-3.254-2.646
	c-0.882,0-1.512,0.084-1.806,0.168V48.931z"/>
<path fill="#FFFFFF" d="M169.141,43.85h-4.304v-1.554h10.477v1.554h-4.325v12.598h-1.848V43.85z"/>
<path fill="#FFFFFF" d="M181.111,48.511v1.365h-5.186v-1.365H181.111z"/>
<path fill="#FFFFFF" d="M182.372,55.376l7.853-11.484V43.83h-7.181v-1.533h9.553v1.113l-7.811,11.442v0.063h7.916v1.532h-10.33
	V55.376z"/>
<path fill="#FFFFFF" d="M197.239,51.997l-1.47,4.451h-1.89l4.808-14.151h2.205l4.829,14.151h-1.953l-1.512-4.451H197.239z
	 M201.879,50.569l-1.386-4.073c-0.315-0.924-0.525-1.764-0.735-2.582h-0.042c-0.21,0.84-0.441,1.7-0.714,2.561l-1.386,4.095H201.879
	z"/>
<path fill="#FFFFFF" d="M209.797,56.448l-4.619-14.151h1.974l2.205,6.971c0.609,1.91,1.134,3.633,1.512,5.291h0.042
	c0.399-1.638,0.987-3.422,1.617-5.27l2.394-6.992h1.953l-5.06,14.151H209.797z"/>
<path fill="#FFFFFF" d="M230.501,49.225c0,4.871-2.96,7.454-6.572,7.454c-3.737,0-6.362-2.898-6.362-7.182
	c0-4.492,2.792-7.432,6.572-7.432C228.002,42.066,230.501,45.026,230.501,49.225z M219.52,49.457c0,3.023,1.638,5.731,4.514,5.731
	c2.897,0,4.535-2.667,4.535-5.879c0-2.813-1.47-5.753-4.514-5.753C221.031,43.556,219.52,46.349,219.52,49.457z"/>
<path fill="#FFFFFF" d="M232.876,42.486c1.113-0.168,2.436-0.295,3.884-0.295c2.625,0,4.493,0.609,5.732,1.764
	c1.26,1.155,1.995,2.793,1.995,5.082c0,2.309-0.714,4.199-2.037,5.5c-1.323,1.323-3.506,2.037-6.257,2.037
	c-1.302,0-2.394-0.063-3.317-0.168V42.486z M234.702,55c0.462,0.084,1.134,0.104,1.848,0.104c3.905,0,6.026-2.184,6.026-6.005
	c0.021-3.338-1.869-5.459-5.732-5.459c-0.945,0-1.659,0.084-2.142,0.189V55z"/>
<path fill="#FFFFFF" d="M251.313,42.464c0.882-0.146,2.037-0.273,3.506-0.273c1.806,0,3.128,0.42,3.968,1.176
	c0.777,0.672,1.239,1.701,1.239,2.961c0,1.281-0.378,2.289-1.092,3.023c-0.966,1.029-2.541,1.554-4.325,1.554
	c-0.546,0-1.05-0.021-1.47-0.126v5.669h-1.827V42.464z M253.14,49.289c0.399,0.104,0.903,0.146,1.512,0.146
	c2.205,0,3.548-1.07,3.548-3.023c0-1.869-1.323-2.771-3.338-2.771c-0.798,0-1.407,0.063-1.722,0.146V49.289z"/>
<path fill="#FFFFFF" d="M262.485,42.296h1.827v12.619h6.047v1.532h-7.874V42.296z"/>
<path fill="#FFFFFF" d="M274.685,51.997l-1.47,4.451h-1.89l4.808-14.151h2.205l4.829,14.151h-1.953l-1.512-4.451H274.685z
	 M279.325,50.569l-1.386-4.073c-0.315-0.924-0.525-1.764-0.735-2.582h-0.042c-0.21,0.84-0.441,1.7-0.714,2.561l-1.386,4.095H279.325
	z"/>
<path fill="#FFFFFF" d="M286.32,43.85h-4.304v-1.554h10.477v1.554h-4.325v12.598h-1.848V43.85z"/>
<path fill="#FFFFFF" d="M294.069,42.296h7.622v1.533h-5.795v4.703h5.354v1.512h-5.354v6.403h-1.827V42.296z"/>
<path fill="#FFFFFF" d="M316.389,49.225c0,4.871-2.96,7.454-6.571,7.454c-3.738,0-6.362-2.898-6.362-7.182
	c0-4.492,2.792-7.432,6.571-7.432C313.89,42.066,316.389,45.026,316.389,49.225z M305.407,49.457c0,3.023,1.639,5.731,4.515,5.731
	c2.897,0,4.535-2.667,4.535-5.879c0-2.813-1.47-5.753-4.515-5.753C306.919,43.556,305.407,46.349,305.407,49.457z"/>
<path fill="#FFFFFF" d="M318.764,42.486c0.924-0.189,2.247-0.295,3.507-0.295c1.952,0,3.212,0.357,4.094,1.155
	c0.714,0.63,1.113,1.596,1.113,2.688c0,1.868-1.176,3.107-2.667,3.611v0.063c1.092,0.377,1.743,1.385,2.079,2.855
	c0.461,1.973,0.797,3.338,1.092,3.884h-1.891c-0.23-0.399-0.545-1.616-0.944-3.38c-0.42-1.953-1.176-2.688-2.835-2.751h-1.721v6.131
	h-1.827V42.486z M320.591,48.931h1.868c1.952,0,3.191-1.07,3.191-2.688c0-1.826-1.323-2.625-3.255-2.646
	c-0.881,0-1.512,0.084-1.805,0.168V48.931z"/>
<path fill="#FFFFFF" d="M341.988,50.233c-0.105-1.974-0.23-4.347-0.21-6.11h-0.063c-0.482,1.659-1.07,3.423-1.784,5.375
	l-2.499,6.866h-1.385l-2.289-6.739c-0.672-1.995-1.238-3.822-1.638-5.502h-0.042c-0.042,1.764-0.146,4.137-0.273,6.258l-0.377,6.067
	h-1.743l0.987-14.151h2.33l2.414,6.845c0.588,1.743,1.071,3.296,1.428,4.767h0.063c0.356-1.428,0.86-2.982,1.491-4.767l2.52-6.845
	h2.33l0.882,14.151h-1.784L341.988,50.233z"/>
<path fill="#FFFFFF" d="M349.025,51.997l-1.471,4.451h-1.889l4.808-14.151h2.204l4.83,14.151h-1.953l-1.512-4.451H349.025z
	 M353.664,50.569l-1.386-4.073c-0.314-0.924-0.525-1.764-0.734-2.582h-0.043c-0.209,0.84-0.44,1.7-0.713,2.561l-1.387,4.095H353.664
	z"/>
<path fill="#FFFFFF" d="M73.37,55.839c-0.21-3.956-0.463-8.711-0.421-12.246h-0.126c-0.968,3.324-2.146,6.859-3.577,10.773
	l-5.008,13.762h-2.777L56.873,54.62c-1.347-3.998-2.483-7.66-3.282-11.026h-0.084c-0.084,3.535-0.294,8.29-0.547,12.541
	l-0.758,12.162h-3.493l1.978-28.364h4.671l4.839,13.719c1.178,3.493,2.146,6.607,2.862,9.554h0.126
	c0.716-2.862,1.726-5.977,2.988-9.554l5.05-13.719h4.671l1.768,28.364h-3.577L73.37,55.839z"/>
<path fill="#FFFFFF" d="M87.464,59.375l-2.946,8.922H80.73l9.637-28.364h4.418l9.679,28.364h-3.914l-3.03-8.922H87.464z
	 M96.764,56.513l-2.777-8.164c-0.631-1.853-1.052-3.535-1.473-5.177h-0.084c-0.421,1.684-0.884,3.409-1.431,5.134l-2.777,8.207
	H96.764z"/>
<path fill="#FFFFFF" d="M108.628,40.269c1.768-0.295,4.082-0.548,7.028-0.548c3.619,0,6.271,0.842,7.954,2.357
	c1.557,1.347,2.483,3.408,2.483,5.934c0,2.567-0.757,4.587-2.188,6.06c-1.936,2.063-5.092,3.114-8.669,3.114
	c-1.094,0-2.104-0.042-2.946-0.252v11.362h-3.662V40.269z M112.29,53.946c0.799,0.21,1.81,0.295,3.03,0.295
	c4.419,0,7.112-2.146,7.112-6.061c0-3.745-2.651-5.555-6.691-5.555c-1.599,0-2.82,0.126-3.451,0.294V53.946z"/>
<path fill="#FFFFFF" d="M117.513,474.068h-4.304v-1.555h10.477v1.555h-4.325v12.598h-1.848V474.068z"/>
<path fill="#FFFFFF" d="M136.79,479.443c0,4.871-2.961,7.453-6.572,7.453c-3.736,0-6.361-2.896-6.361-7.18
	c0-4.494,2.793-7.434,6.572-7.434C134.292,472.283,136.79,475.244,136.79,479.443z M125.809,479.673
	c0,3.023,1.637,5.732,4.514,5.732c2.897,0,4.535-2.666,4.535-5.879c0-2.814-1.47-5.754-4.514-5.754
	C127.321,473.773,125.809,476.566,125.809,479.673z"/>
<path fill="#FFFFFF" d="M140.991,472.513v14.152h-1.826v-14.152H140.991z"/>
<path fill="#FFFFFF" d="M144.183,472.513h1.827v12.619h6.047v1.533h-7.874V472.513z"/>
<path fill="#FFFFFF" d="M161.423,480.031h-5.5v5.102h6.131v1.533h-7.958v-14.152h7.643v1.533h-5.815v4.473h5.5V480.031z"/>
<path fill="#FFFFFF" d="M167.45,474.068h-4.305v-1.555h10.478v1.555h-4.325v12.598h-1.848V474.068z"/>
<path fill="#FFFFFF" d="M174.821,484.439c0.818,0.504,2.016,0.924,3.275,0.924c1.869,0,2.961-0.986,2.961-2.414
	c0-1.322-0.756-2.078-2.667-2.813c-2.31-0.82-3.737-2.016-3.737-4.012c0-2.203,1.826-3.842,4.577-3.842
	c1.448,0,2.499,0.336,3.128,0.693l-0.504,1.49c-0.461-0.252-1.406-0.672-2.688-0.672c-1.932,0-2.666,1.154-2.666,2.121
	c0,1.322,0.861,1.973,2.813,2.729c2.394,0.924,3.611,2.08,3.611,4.158c0,2.184-1.616,4.072-4.955,4.072
	c-1.364,0-2.855-0.398-3.611-0.902L174.821,484.439z"/>
<path fill="#FFFFFF" d="M51.438,499.433l-6.666-26.277h3.587l3.118,13.295c0.78,3.273,1.481,6.549,1.949,9.084h0.078
	c0.429-2.613,1.248-5.732,2.145-9.123l3.509-13.256h3.548l3.196,13.334c0.741,3.119,1.443,6.236,1.833,9.006h0.078
	c0.546-2.885,1.286-5.809,2.104-9.084l3.47-13.256h3.471l-7.447,26.277h-3.547l-3.314-13.686c-0.818-3.352-1.364-5.926-1.715-8.576
	h-0.078c-0.468,2.611-1.053,5.186-2.027,8.576l-3.743,13.686H51.438z"/>
<path fill="#FFFFFF" d="M98.102,498.576c-1.247,0.623-3.742,1.246-6.939,1.246c-7.407,0-12.982-4.678-12.982-13.293
	c0-8.227,5.575-13.801,13.724-13.801c3.274,0,5.341,0.701,6.237,1.168l-0.818,2.77c-1.287-0.625-3.119-1.092-5.303-1.092
	c-6.159,0-10.253,3.938-10.253,10.838c0,6.432,3.704,10.564,10.098,10.564c2.066,0,4.171-0.428,5.536-1.092L98.102,498.576z"/>
<path fill="#FFFFFF" d="M350.928,486.347v-14.152h1.994l4.535,7.16c1.051,1.658,1.869,3.15,2.541,4.598l0.042-0.02
	c-0.168-1.891-0.21-3.611-0.21-5.816v-5.922h1.722v14.152h-1.848l-4.493-7.182c-0.986-1.574-1.932-3.191-2.646-4.723l-0.063,0.02
	c0.105,1.785,0.147,3.486,0.147,5.838v6.047H350.928z"/>
<path fill="#FFFFFF" d="M366.048,472.195v8.379c0,3.17,1.406,4.514,3.296,4.514c2.1,0,3.443-1.387,3.443-4.514v-8.379h1.848v8.252
	c0,4.346-2.288,6.131-5.354,6.131c-2.896,0-5.08-1.658-5.08-6.047v-8.336H366.048z"/>
<path fill="#FFFFFF" d="M378.858,481.896l-1.471,4.451h-1.889l4.808-14.152h2.204l4.83,14.152h-1.953l-1.512-4.451H378.858z
	 M383.498,480.468l-1.386-4.074c-0.314-0.924-0.525-1.764-0.734-2.582h-0.043c-0.209,0.84-0.44,1.701-0.713,2.563l-1.387,4.094
	H383.498z"/>
<path fill="#FFFFFF" d="M388.895,472.384c0.924-0.189,2.246-0.293,3.506-0.293c1.953,0,3.213,0.355,4.095,1.154
	c0.714,0.629,1.112,1.596,1.112,2.688c0,1.869-1.176,3.107-2.666,3.611v0.063c1.092,0.379,1.742,1.387,2.078,2.855
	c0.463,1.975,0.799,3.338,1.092,3.885h-1.889c-0.231-0.398-0.547-1.617-0.945-3.381c-0.42-1.953-1.176-2.688-2.834-2.75h-1.723
	v6.131h-1.826V472.384z M390.721,478.83h1.869c1.953,0,3.191-1.07,3.191-2.688c0-1.826-1.322-2.623-3.254-2.645
	c-0.883,0-1.512,0.084-1.807,0.168V478.83z"/>
<path fill="#FFFFFF" d="M406.997,479.712h-5.502v5.102h6.131v1.533h-7.957v-14.152h7.643v1.533h-5.816v4.473h5.502V479.712z"/>
<path fill="#FFFFFF" d="M423.292,485.884c-0.672,0.336-2.016,0.672-3.738,0.672c-3.988,0-6.991-2.52-6.991-7.158
	c0-4.432,3.003-7.434,7.391-7.434c1.764,0,2.876,0.379,3.359,0.631l-0.44,1.49c-0.693-0.336-1.68-0.588-2.855-0.588
	c-3.318,0-5.522,2.121-5.522,5.836c0,3.465,1.995,5.691,5.438,5.691c1.112,0,2.246-0.232,2.98-0.588L423.292,485.884z"/>
<path fill="#FFFFFF" d="M436.71,479.125c0,4.871-2.961,7.453-6.572,7.453c-3.736,0-6.361-2.896-6.361-7.18
	c0-4.494,2.793-7.434,6.572-7.434C434.212,471.964,436.71,474.925,436.71,479.125z M425.729,479.355
	c0,3.023,1.637,5.732,4.514,5.732c2.897,0,4.535-2.666,4.535-5.879c0-2.814-1.47-5.754-4.514-5.754
	C427.241,473.455,425.729,476.248,425.729,479.355z"/>
<path fill="#FFFFFF" d="M438.559,472.195h7.621v1.533h-5.795v4.703h5.354v1.512h-5.354v6.404h-1.826V472.195z"/>
<path fill="#FFFFFF" d="M448.261,472.195h7.622v1.533h-5.795v4.703h5.354v1.512h-5.354v6.404h-1.827V472.195z"/>
<path fill="#FFFFFF" d="M465.29,479.712h-5.5v5.102h6.131v1.533h-7.958v-14.152h7.643v1.533h-5.815v4.473h5.5V479.712z"/>
<path fill="#FFFFFF" d="M475.096,479.712h-5.5v5.102h6.131v1.533h-7.958v-14.152h7.643v1.533h-5.815v4.473h5.5V479.712z"/>
<path fill="#FFFFFF" d="M363.04,511.083c-0.672,0.336-2.016,0.672-3.738,0.672c-3.988,0-6.991-2.52-6.991-7.158
	c0-4.432,3.003-7.434,7.391-7.434c1.764,0,2.876,0.379,3.359,0.631l-0.44,1.49c-0.693-0.336-1.68-0.588-2.855-0.588
	c-3.318,0-5.522,2.121-5.522,5.836c0,3.465,1.995,5.691,5.438,5.691c1.112,0,2.246-0.232,2.98-0.588L363.04,511.083z"/>
<path fill="#FFFFFF" d="M372.132,504.912h-5.5v5.102h6.131v1.533h-7.958v-14.152h7.643v1.533h-5.815v4.473h5.5V504.912z"/>
<path fill="#FFFFFF" d="M374.612,511.546v-14.152h1.994l4.535,7.16c1.051,1.658,1.869,3.15,2.541,4.598l0.042-0.02
	c-0.168-1.891-0.21-3.611-0.21-5.816v-5.922h1.722v14.152h-1.848l-4.493-7.182c-0.986-1.574-1.932-3.191-2.646-4.723l-0.063,0.02
	c0.105,1.785,0.147,3.486,0.147,5.838v6.047H374.612z"/>
<path fill="#FFFFFF" d="M390.592,498.949h-4.304v-1.555h10.477v1.555h-4.325v12.598h-1.848V498.949z"/>
<path fill="#FFFFFF" d="M405.143,504.912h-5.5v5.102h6.131v1.533h-7.958v-14.152h7.643v1.533h-5.815v4.473h5.5V504.912z"/>
<path fill="#FFFFFF" d="M407.623,497.583c0.924-0.189,2.247-0.293,3.507-0.293c1.952,0,3.212,0.355,4.094,1.154
	c0.714,0.629,1.113,1.596,1.113,2.688c0,1.869-1.176,3.107-2.667,3.611v0.063c1.092,0.379,1.743,1.387,2.079,2.855
	c0.461,1.975,0.797,3.338,1.092,3.885h-1.891c-0.23-0.398-0.545-1.617-0.944-3.381c-0.42-1.953-1.176-2.688-2.835-2.75h-1.721v6.131
	h-1.827V497.583z M409.45,504.029h1.868c1.952,0,3.191-1.07,3.191-2.688c0-1.826-1.323-2.623-3.255-2.645
	c-0.881,0-1.512,0.084-1.805,0.168V504.029z"/>
<path fill="#FFFFFF" d="M417.135,514.128c0.462-1.238,1.029-3.484,1.26-5.018l2.058-0.211c-0.483,1.785-1.407,4.115-1.995,5.104
	L417.135,514.128z"/>
<path fill="#FFFFFF" d="M361.901,536.285c-0.672,0.336-2.016,0.672-3.736,0.672c-3.99,0-6.992-2.52-6.992-7.16
	c0-4.43,3.002-7.432,7.391-7.432c1.764,0,2.877,0.377,3.359,0.629l-0.441,1.49c-0.692-0.336-1.68-0.588-2.855-0.588
	c-3.316,0-5.521,2.121-5.521,5.838c0,3.465,1.994,5.689,5.438,5.689c1.113,0,2.247-0.23,2.982-0.588L361.901,536.285z"/>
<path fill="#FFFFFF" d="M366.04,532.294l-1.471,4.451h-1.889l4.808-14.15h2.204l4.83,14.15h-1.953l-1.512-4.451H366.04z
	 M370.679,530.867l-1.386-4.072c-0.314-0.924-0.525-1.764-0.734-2.582h-0.043c-0.209,0.84-0.44,1.699-0.713,2.561l-1.387,4.094
	H370.679z"/>
<path fill="#FFFFFF" d="M376.078,522.595h7.622v1.533h-5.795v4.703h5.354v1.512h-5.354v6.402h-1.827V522.595z"/>
<path fill="#FFFFFF" d="M393.106,530.111h-5.5v5.104h6.131v1.531h-7.958v-14.15h7.643v1.533h-5.815v4.471h5.5V530.111z"/>
<path fill="#FFFFFF" d="M399.513,522.785c0.798-0.168,2.058-0.295,3.339-0.295c1.826,0,3.002,0.314,3.884,1.029
	c0.735,0.545,1.176,1.385,1.176,2.498c0,1.365-0.903,2.563-2.394,3.107v0.043c1.344,0.336,2.918,1.447,2.918,3.547
	c0,1.219-0.482,2.143-1.196,2.836c-0.987,0.902-2.583,1.322-4.892,1.322c-1.26,0-2.227-0.084-2.835-0.168V522.785z M401.341,528.58
	h1.658c1.932,0,3.065-1.008,3.065-2.373c0-1.658-1.26-2.311-3.107-2.311c-0.84,0-1.323,0.064-1.616,0.127V528.58z M401.341,535.361
	c0.356,0.063,0.881,0.084,1.532,0.084c1.89,0,3.632-0.693,3.632-2.75c0-1.932-1.658-2.73-3.652-2.73h-1.512V535.361z"/>
<path fill="#FFFFFF" d="M410.37,522.595h1.826v12.619h6.047v1.531h-7.873V522.595z"/>
<path fill="#FFFFFF" d="M422.046,532.294l-1.469,4.451h-1.891l4.809-14.15h2.205l4.828,14.15h-1.952l-1.512-4.451H422.046z
	 M426.686,530.867l-1.386-4.072c-0.315-0.924-0.524-1.764-0.735-2.582h-0.041c-0.211,0.84-0.441,1.699-0.715,2.561l-1.385,4.094
	H426.686z"/>
<path fill="#FFFFFF" d="M441.657,536.285c-0.672,0.336-2.016,0.672-3.736,0.672c-3.99,0-6.992-2.52-6.992-7.16
	c0-4.43,3.002-7.432,7.391-7.432c1.764,0,2.877,0.377,3.359,0.629l-0.441,1.49c-0.692-0.336-1.68-0.588-2.855-0.588
	c-3.316,0-5.521,2.121-5.521,5.838c0,3.465,1.994,5.689,5.438,5.689c1.113,0,2.247-0.23,2.982-0.588L441.657,536.285z"/>
<path fill="#FFFFFF" d="M443.424,522.595h1.827v6.824h0.063c0.378-0.547,0.756-1.051,1.113-1.512l4.324-5.313h2.268l-5.123,6.004
	l5.522,8.146h-2.163l-4.66-6.949l-1.344,1.555v5.395h-1.827V522.595z"/>
<path fill="#FFFFFF" d="M301.803,473.503c1.481-0.313,3.82-0.547,6.199-0.547c3.392,0,5.574,0.586,7.212,1.91
	c1.364,1.014,2.184,2.574,2.184,4.641c0,2.533-1.677,4.756-4.444,5.77v0.078c2.495,0.623,5.419,2.689,5.419,6.588
	c0,2.262-0.896,3.977-2.223,5.264c-1.832,1.676-4.795,2.457-9.083,2.457c-2.34,0-4.133-0.156-5.264-0.313V473.503z M305.195,484.263
	h3.08c3.587,0,5.692-1.871,5.692-4.406c0-3.08-2.34-4.287-5.771-4.287c-1.56,0-2.456,0.117-3.002,0.232V484.263z M305.195,496.855
	c0.663,0.117,1.638,0.156,2.847,0.156c3.509,0,6.744-1.287,6.744-5.107c0-3.586-3.08-5.068-6.783-5.068h-2.808V496.855z"/>
<path fill="#FFFFFF" d="M118.482,267.698h-5.502v5.102h6.131v1.533h-7.957v-14.151h7.643v1.532h-5.816v4.473h5.502V267.698z"/>
<path fill="#FFFFFF" d="M124.782,274.333l-4.619-14.151h1.974l2.205,6.971c0.608,1.911,1.133,3.632,1.512,5.291h0.041
	c0.399-1.638,0.987-3.423,1.617-5.271l2.394-6.991h1.952l-5.06,14.151H124.782z"/>
<path fill="#FFFFFF" d="M140.72,267.698h-5.502v5.102h6.131v1.533h-7.957v-14.151h7.643v1.532h-5.816v4.473h5.502V267.698z"/>
<path fill="#FFFFFF" d="M143.724,274.333v-14.151h1.994l4.535,7.159c1.051,1.659,1.869,3.15,2.541,4.599l0.042-0.021
	c-0.168-1.891-0.21-3.611-0.21-5.816v-5.921h1.722v14.151h-1.848l-4.493-7.181c-0.986-1.575-1.932-3.191-2.646-4.724l-0.063,0.021
	c0.105,1.784,0.147,3.485,0.147,5.837v6.047H143.724z"/>
<path fill="#FFFFFF" d="M160.229,261.735h-4.304v-1.554h10.477v1.554h-4.325v12.598h-1.848V261.735z"/>
<path fill="#FFFFFF" d="M172.178,272.107c0.819,0.504,2.016,0.924,3.275,0.924c1.868,0,2.96-0.987,2.96-2.415
	c0-1.322-0.756-2.078-2.666-2.813c-2.31-0.819-3.737-2.016-3.737-4.011c0-2.204,1.827-3.843,4.577-3.843
	c1.449,0,2.498,0.336,3.129,0.693l-0.504,1.49c-0.463-0.252-1.407-0.672-2.688-0.672c-1.932,0-2.667,1.155-2.667,2.121
	c0,1.322,0.86,1.974,2.813,2.729c2.394,0.924,3.611,2.079,3.611,4.157c0,2.184-1.617,4.073-4.955,4.073
	c-1.365,0-2.855-0.399-3.611-0.903L172.178,272.107z"/>
<path fill="#FFFFFF" d="M182.783,260.349c0.882-0.147,2.037-0.272,3.506-0.272c1.807,0,3.129,0.42,3.969,1.176
	c0.777,0.672,1.238,1.7,1.238,2.96c0,1.28-0.377,2.288-1.092,3.023c-0.965,1.028-2.54,1.554-4.324,1.554
	c-0.547,0-1.051-0.021-1.471-0.126v5.669h-1.826V260.349z M184.609,267.172c0.399,0.105,0.903,0.147,1.512,0.147
	c2.205,0,3.549-1.071,3.549-3.023c0-1.868-1.322-2.771-3.338-2.771c-0.799,0-1.407,0.063-1.723,0.147V267.172z"/>
<path fill="#FFFFFF" d="M194.48,269.881l-1.471,4.451h-1.889l4.808-14.151h2.204l4.83,14.151h-1.953l-1.512-4.451H194.48z
	 M199.12,268.454l-1.386-4.073c-0.314-0.924-0.525-1.764-0.734-2.583h-0.043c-0.209,0.84-0.44,1.701-0.713,2.563l-1.387,4.094
	H199.12z"/>
<path fill="#FFFFFF" d="M214.617,273.871c-0.672,0.336-2.016,0.672-3.738,0.672c-3.988,0-6.991-2.52-6.991-7.159
	c0-4.431,3.003-7.434,7.391-7.434c1.764,0,2.876,0.379,3.359,0.631l-0.44,1.49c-0.693-0.336-1.68-0.588-2.855-0.588
	c-3.318,0-5.522,2.121-5.522,5.837c0,3.464,1.995,5.69,5.438,5.69c1.112,0,2.246-0.231,2.98-0.588L214.617,273.871z"/>
<path fill="#FFFFFF" d="M224.234,267.698h-5.5v5.102h6.131v1.533h-7.958v-14.151h7.643v1.532h-5.815v4.473h5.5V267.698z"/>
<path fill="#FFFFFF" d="M48.677,282.7c0.975,0.624,3.235,1.599,5.614,1.599c4.405,0,5.77-2.808,5.73-4.912
	c-0.039-3.548-3.235-5.068-6.55-5.068h-1.91v-2.573h1.91c2.495,0,5.653-1.287,5.653-4.289c0-2.027-1.287-3.82-4.444-3.82
	c-2.027,0-3.977,0.896-5.068,1.677l-0.896-2.495c1.325-0.975,3.898-1.949,6.627-1.949c4.99,0,7.252,2.963,7.252,6.043
	c0,2.611-1.56,4.834-4.679,5.965v0.077c3.119,0.624,5.653,2.963,5.653,6.511c0,4.055-3.158,7.603-9.239,7.603
	c-2.847,0-5.342-0.896-6.589-1.715L48.677,282.7z"/>
<path fill="#FFFFFF" d="M66.491,284.61c0-1.442,0.975-2.456,2.339-2.456c1.365,0,2.301,1.014,2.301,2.456
	c0,1.403-0.897,2.456-2.34,2.456C67.427,287.066,66.491,286.013,66.491,284.61z"/>
<path fill="#FFFFFF" d="M80.565,264.493h-0.078l-4.405,2.379l-0.663-2.612l5.536-2.963h2.924v25.341h-3.313V264.493z"/>
<path fill="#FFFFFF" d="M626.851,271.855c0.819,0.504,2.016,0.924,3.275,0.924c1.868,0,2.96-0.987,2.96-2.415
	c0-1.322-0.756-2.078-2.666-2.813c-2.31-0.819-3.737-2.016-3.737-4.011c0-2.204,1.827-3.843,4.577-3.843
	c1.449,0,2.498,0.336,3.129,0.693l-0.504,1.49c-0.463-0.252-1.407-0.672-2.688-0.672c-1.932,0-2.667,1.155-2.667,2.121
	c0,1.322,0.86,1.974,2.813,2.729c2.394,0.924,3.611,2.079,3.611,4.157c0,2.184-1.617,4.073-4.955,4.073
	c-1.365,0-2.855-0.399-3.611-0.903L626.851,271.855z"/>
<path fill="#FFFFFF" d="M637.456,260.097c0.882-0.147,2.037-0.272,3.506-0.272c1.807,0,3.129,0.42,3.969,1.176
	c0.777,0.672,1.238,1.7,1.238,2.96c0,1.28-0.377,2.288-1.092,3.023c-0.965,1.028-2.54,1.554-4.324,1.554
	c-0.547,0-1.051-0.021-1.471-0.126v5.669h-1.826V260.097z M639.282,266.92c0.399,0.105,0.903,0.147,1.512,0.147
	c2.205,0,3.549-1.071,3.549-3.023c0-1.868-1.322-2.771-3.338-2.771c-0.799,0-1.407,0.063-1.723,0.147V266.92z"/>
<path fill="#FFFFFF" d="M660.721,266.858c0,4.871-2.961,7.453-6.572,7.453c-3.736,0-6.361-2.896-6.361-7.18
	c0-4.494,2.793-7.434,6.572-7.434C658.223,259.698,660.721,262.659,660.721,266.858z M649.741,267.088
	c0,3.023,1.637,5.732,4.514,5.732c2.897,0,4.535-2.666,4.535-5.879c0-2.813-1.47-5.753-4.514-5.753
	C651.253,261.189,649.741,263.981,649.741,267.088z"/>
<path fill="#FFFFFF" d="M663.096,260.118c0.924-0.188,2.246-0.293,3.506-0.293c1.953,0,3.213,0.356,4.095,1.154
	c0.714,0.63,1.112,1.596,1.112,2.688c0,1.869-1.176,3.107-2.666,3.611v0.063c1.092,0.379,1.742,1.387,2.078,2.855
	c0.463,1.975,0.799,3.339,1.092,3.885h-1.889c-0.231-0.398-0.547-1.617-0.945-3.381c-0.42-1.952-1.176-2.688-2.834-2.75h-1.723
	v6.131h-1.826V260.118z M664.923,266.564h1.869c1.953,0,3.191-1.071,3.191-2.688c0-1.827-1.322-2.624-3.254-2.646
	c-0.883,0-1.512,0.084-1.807,0.168V266.564z"/>
<path fill="#FFFFFF" d="M677.27,261.483h-4.305v-1.554h10.478v1.554h-4.325v12.598h-1.848V261.483z"/>
<path fill="#FFFFFF" d="M688.506,273.01l7.853-11.485v-0.063h-7.181v-1.532h9.554v1.112l-7.811,11.443v0.063h7.915v1.533h-10.33
	V273.01z"/>
<path fill="#FFFFFF" d="M712.738,266.858c0,4.871-2.96,7.453-6.571,7.453c-3.738,0-6.362-2.896-6.362-7.18
	c0-4.494,2.792-7.434,6.571-7.434C710.239,259.698,712.738,262.659,712.738,266.858z M701.757,267.088
	c0,3.023,1.639,5.732,4.515,5.732c2.897,0,4.535-2.666,4.535-5.879c0-2.813-1.47-5.753-4.515-5.753
	C703.268,261.189,701.757,263.981,701.757,267.088z"/>
<path fill="#FFFFFF" d="M715.113,274.081v-14.151h1.995l4.535,7.159c1.049,1.659,1.868,3.15,2.54,4.599l0.042-0.021
	c-0.168-1.891-0.21-3.611-0.21-5.816v-5.921h1.722v14.151h-1.848l-4.493-7.181c-0.987-1.575-1.932-3.191-2.646-4.724l-0.063,0.021
	c0.104,1.784,0.146,3.485,0.146,5.837v6.047H715.113z"/>
<path fill="#FFFFFF" d="M736.259,267.446h-5.502v5.102h6.131v1.533h-7.957v-14.151h7.643v1.532h-5.816v4.473h5.502V267.446z"/>
<path fill="#FFFFFF" d="M576.333,264.496h-0.078l-4.405,2.379l-0.663-2.612l5.536-2.963h2.924v25.341h-3.313V264.496z"/>
<path fill="#FFFFFF" d="M595.941,264.496h-0.078l-4.405,2.379l-0.663-2.612l5.536-2.963h2.924v25.341h-3.313V264.496z"/>
<path fill="#FFFFFF" d="M350.576,263.354c0.882-0.146,2.037-0.273,3.506-0.273c1.807,0,3.129,0.42,3.969,1.176
	c0.777,0.672,1.238,1.701,1.238,2.961c0,1.281-0.377,2.289-1.092,3.023c-0.965,1.029-2.54,1.554-4.324,1.554
	c-0.547,0-1.051-0.021-1.471-0.126v5.669h-1.826V263.354z M352.402,270.178c0.399,0.104,0.903,0.146,1.512,0.146
	c2.205,0,3.549-1.07,3.549-3.023c0-1.869-1.322-2.771-3.338-2.771c-0.799,0-1.407,0.063-1.723,0.146V270.178z"/>
<path fill="#FFFFFF" d="M363.574,263.186v14.151h-1.826v-14.151H363.574z"/>
<path fill="#FFFFFF" d="M369.054,272.886l-1.469,4.451h-1.891l4.809-14.151h2.205l4.828,14.151h-1.952l-1.512-4.451H369.054z
	 M373.695,271.458l-1.386-4.073c-0.315-0.924-0.524-1.764-0.735-2.582h-0.041c-0.211,0.84-0.441,1.7-0.715,2.561l-1.385,4.095
	H373.695z"/>
<path fill="#FFFFFF" d="M378.652,276.266l7.853-11.484v-0.063h-7.181v-1.533h9.553v1.113l-7.811,11.442v0.063h7.916v1.532h-10.33
	V276.266z"/>
<path fill="#FFFFFF" d="M390.265,276.266l7.853-11.484v-0.063h-7.181v-1.533h9.553v1.113l-7.811,11.442v0.063h7.916v1.532h-10.33
	V276.266z"/>
<path fill="#FFFFFF" d="M405.133,272.886l-1.469,4.451h-1.891l4.809-14.151h2.205l4.828,14.151h-1.952l-1.512-4.451H405.133z
	 M409.773,271.458l-1.386-4.073c-0.315-0.924-0.524-1.764-0.735-2.582h-0.041c-0.211,0.84-0.441,1.7-0.715,2.561l-1.385,4.095
	H409.773z"/>
<path fill="#FFFFFF" d="M421.974,263.186v14.151h-1.826v-14.151H421.974z"/>
<path fill="#FFFFFF" d="M315.625,263.718c-0.701-0.039-1.598,0-2.572,0.156c-5.381,0.896-8.227,4.834-8.812,9.006h0.117
	c1.209-1.599,3.313-2.925,6.121-2.925c4.483,0,7.642,3.236,7.642,8.188c0,4.64-3.158,8.928-8.422,8.928
	c-5.419,0-8.967-4.21-8.967-10.799c0-4.99,1.794-8.928,4.289-11.423c2.105-2.066,4.912-3.354,8.109-3.743
	c1.013-0.156,1.871-0.194,2.494-0.194V263.718z M314.65,278.338c0-3.626-2.065-5.81-5.224-5.81c-2.066,0-3.977,1.287-4.912,3.119
	c-0.234,0.39-0.39,0.896-0.39,1.521c0.077,4.172,1.988,7.251,5.574,7.251C312.662,284.419,314.65,281.963,314.65,278.338z"/>
<path fill="#FFFFFF" d="M113.443,326.948l-1.471,4.451h-1.889l4.808-14.151h2.204l4.83,14.151h-1.953l-1.512-4.451H113.443z
	 M118.083,325.52l-1.386-4.073c-0.314-0.924-0.525-1.764-0.734-2.582h-0.043c-0.209,0.84-0.44,1.7-0.713,2.561l-1.387,4.095H118.083
	z"/>
<path fill="#FFFFFF" d="M124.006,317.437c0.924-0.189,2.246-0.295,3.506-0.295c1.953,0,3.213,0.357,4.095,1.155
	c0.714,0.63,1.112,1.596,1.112,2.688c0,1.868-1.176,3.107-2.666,3.611v0.063c1.092,0.377,1.742,1.385,2.078,2.855
	c0.463,1.973,0.799,3.338,1.092,3.884h-1.889c-0.231-0.399-0.547-1.616-0.945-3.38c-0.42-1.953-1.176-2.688-2.834-2.751h-1.723
	v6.131h-1.826V317.437z M125.832,323.882h1.869c1.953,0,3.191-1.07,3.191-2.688c0-1.826-1.322-2.625-3.254-2.646
	c-0.883,0-1.512,0.084-1.807,0.168V323.882z"/>
<path fill="#FFFFFF" d="M138.179,318.801h-4.305v-1.554h10.478v1.554h-4.325v12.598h-1.848V318.801z"/>
<path fill="#FFFFFF" d="M150.129,329.173c0.818,0.504,2.016,0.924,3.275,0.924c1.869,0,2.961-0.986,2.961-2.414
	c0-1.323-0.756-2.079-2.667-2.814c-2.31-0.818-3.737-2.016-3.737-4.01c0-2.205,1.826-3.842,4.577-3.842
	c1.448,0,2.499,0.336,3.128,0.692l-0.504,1.491c-0.461-0.252-1.406-0.672-2.688-0.672c-1.932,0-2.666,1.154-2.666,2.12
	c0,1.323,0.861,1.974,2.813,2.729c2.394,0.924,3.611,2.078,3.611,4.157c0,2.184-1.616,4.073-4.955,4.073
	c-1.364,0-2.855-0.398-3.611-0.902L150.129,329.173z"/>
<path fill="#FFFFFF" d="M160.733,317.416c0.882-0.146,2.036-0.273,3.507-0.273c1.805,0,3.128,0.42,3.968,1.176
	c0.776,0.672,1.239,1.701,1.239,2.961c0,1.281-0.379,2.289-1.092,3.023c-0.967,1.029-2.541,1.554-4.326,1.554
	c-0.545,0-1.049-0.021-1.469-0.126v5.669h-1.827V317.416z M162.56,324.24c0.398,0.104,0.902,0.146,1.512,0.146
	c2.204,0,3.548-1.07,3.548-3.023c0-1.869-1.323-2.771-3.339-2.771c-0.797,0-1.406,0.063-1.721,0.146V324.24z"/>
<path fill="#FFFFFF" d="M172.429,326.948l-1.469,4.451h-1.891l4.809-14.151h2.205l4.828,14.151h-1.952l-1.512-4.451H172.429z
	 M177.07,325.52l-1.386-4.073c-0.315-0.924-0.524-1.764-0.735-2.582h-0.041c-0.211,0.84-0.441,1.7-0.715,2.561l-1.385,4.095H177.07z
	"/>
<path fill="#FFFFFF" d="M192.566,330.937c-0.672,0.336-2.016,0.672-3.736,0.672c-3.99,0-6.992-2.52-6.992-7.16
	c0-4.43,3.002-7.432,7.391-7.432c1.764,0,2.877,0.377,3.359,0.629l-0.441,1.491c-0.692-0.336-1.68-0.588-2.855-0.588
	c-3.316,0-5.521,2.12-5.521,5.837c0,3.465,1.994,5.689,5.438,5.689c1.113,0,2.247-0.23,2.982-0.588L192.566,330.937z"/>
<path fill="#FFFFFF" d="M202.185,324.764h-5.502v5.103h6.131v1.532h-7.957v-14.151h7.643v1.533h-5.816v4.472h5.502V324.764z"/>
<path fill="#FFFFFF" d="M49.458,339.949c0.975,0.624,3.235,1.599,5.614,1.599c4.405,0,5.77-2.808,5.73-4.912
	c-0.039-3.548-3.235-5.068-6.55-5.068h-1.91v-2.573h1.91c2.495,0,5.653-1.287,5.653-4.289c0-2.027-1.287-3.82-4.444-3.82
	c-2.027,0-3.977,0.896-5.068,1.677l-0.896-2.495c1.325-0.975,3.898-1.949,6.627-1.949c4.99,0,7.252,2.963,7.252,6.043
	c0,2.611-1.56,4.834-4.679,5.965v0.077c3.119,0.624,5.653,2.963,5.653,6.511c0,4.055-3.158,7.603-9.239,7.603
	c-2.847,0-5.342-0.896-6.589-1.715L49.458,339.949z"/>
<path fill="#FFFFFF" d="M65.714,341.859c0-1.442,0.975-2.456,2.339-2.456c1.365,0,2.301,1.014,2.301,2.456
	c0,1.403-0.897,2.456-2.34,2.456C66.649,344.315,65.714,343.262,65.714,341.859z"/>
<path fill="#FFFFFF" d="M72.34,343.886v-2.105l2.69-2.612c6.472-6.159,9.396-9.435,9.435-13.255c0-2.573-1.247-4.951-5.029-4.951
	c-2.3,0-4.21,1.17-5.38,2.145l-1.092-2.418c1.755-1.481,4.25-2.572,7.174-2.572c5.458,0,7.758,3.742,7.758,7.368
	c0,4.679-3.392,8.46-8.732,13.606l-2.027,1.871v0.078h11.384v2.846H72.34z"/>
<path fill="#FFFFFF" d="M629.757,327.152l-1.469,4.451h-1.891l4.809-14.151h2.205l4.828,14.151h-1.952l-1.512-4.451H629.757z
	 M634.397,325.724l-1.386-4.073c-0.315-0.924-0.524-1.764-0.735-2.583h-0.041c-0.211,0.84-0.441,1.701-0.715,2.563l-1.385,4.094
	H634.397z"/>
<path fill="#FFFFFF" d="M640.32,317.64c1.112-0.168,2.436-0.293,3.884-0.293c2.625,0,4.494,0.608,5.732,1.764
	c1.26,1.154,1.994,2.792,1.994,5.08c0,2.311-0.713,4.199-2.036,5.502c-1.323,1.322-3.507,2.036-6.257,2.036
	c-1.302,0-2.394-0.063-3.317-0.168V317.64z M642.147,330.154c0.461,0.084,1.133,0.105,1.848,0.105c3.904,0,6.025-2.184,6.025-6.005
	c0.021-3.339-1.869-5.459-5.732-5.459c-0.944,0-1.658,0.084-2.141,0.188V330.154z"/>
<path fill="#FFFFFF" d="M666.231,325.388c-0.105-1.974-0.23-4.346-0.21-6.109h-0.063c-0.482,1.658-1.07,3.422-1.784,5.375
	l-2.499,6.865h-1.385l-2.289-6.74c-0.672-1.994-1.238-3.82-1.638-5.5h-0.042c-0.042,1.764-0.146,4.136-0.273,6.256l-0.377,6.068
	h-1.743l0.987-14.151h2.33l2.414,6.845c0.588,1.742,1.071,3.297,1.428,4.766h0.063c0.356-1.428,0.86-2.98,1.491-4.766l2.52-6.845
	h2.33l0.882,14.151h-1.784L666.231,325.388z"/>
<path fill="#FFFFFF" d="M673.016,317.452v14.151h-1.827v-14.151H673.016z"/>
<path fill="#FFFFFF" d="M676.208,331.603v-14.151h1.994l4.535,7.159c1.051,1.659,1.869,3.15,2.541,4.599l0.042-0.021
	c-0.168-1.891-0.21-3.611-0.21-5.816v-5.921h1.722v14.151h-1.848l-4.493-7.181c-0.986-1.575-1.932-3.191-2.646-4.724l-0.063,0.021
	c0.105,1.784,0.147,3.485,0.147,5.837v6.047H676.208z"/>
<path fill="#FFFFFF" d="M691.852,317.452v14.151h-1.827v-14.151H691.852z"/>
<path fill="#FFFFFF" d="M694.792,329.377c0.818,0.504,2.016,0.924,3.275,0.924c1.869,0,2.961-0.987,2.961-2.415
	c0-1.322-0.756-2.078-2.667-2.813c-2.31-0.819-3.737-2.016-3.737-4.011c0-2.204,1.826-3.843,4.577-3.843
	c1.448,0,2.499,0.336,3.128,0.693l-0.504,1.49c-0.461-0.252-1.406-0.672-2.688-0.672c-1.932,0-2.666,1.155-2.666,2.121
	c0,1.322,0.861,1.974,2.813,2.729c2.394,0.924,3.611,2.079,3.611,4.157c0,2.184-1.616,4.073-4.955,4.073
	c-1.364,0-2.855-0.399-3.611-0.903L694.792,329.377z"/>
<path fill="#FFFFFF" d="M708.084,319.005h-4.304v-1.554h10.477v1.554h-4.325v12.598h-1.848V319.005z"/>
<path fill="#FFFFFF" d="M715.833,317.64c0.924-0.188,2.246-0.293,3.506-0.293c1.953,0,3.213,0.356,4.095,1.154
	c0.714,0.63,1.112,1.596,1.112,2.688c0,1.869-1.176,3.107-2.666,3.611v0.063c1.092,0.379,1.742,1.387,2.078,2.855
	c0.463,1.975,0.799,3.339,1.092,3.885h-1.889c-0.231-0.398-0.547-1.617-0.945-3.381c-0.42-1.952-1.176-2.688-2.834-2.75h-1.723
	v6.131h-1.826V317.64z M717.659,324.086h1.869c1.953,0,3.191-1.071,3.191-2.688c0-1.827-1.322-2.624-3.254-2.646
	c-0.883,0-1.512,0.084-1.807,0.168V324.086z"/>
<path fill="#FFFFFF" d="M729.524,327.152l-1.471,4.451h-1.889l4.808-14.151h2.204l4.83,14.151h-1.953l-1.512-4.451H729.524z
	 M734.164,325.724l-1.386-4.073c-0.314-0.924-0.525-1.764-0.734-2.583h-0.043c-0.209,0.84-0.44,1.701-0.713,2.563l-1.387,4.094
	H734.164z"/>
<path fill="#FFFFFF" d="M741.158,319.005h-4.304v-1.554h10.477v1.554h-4.325v12.598h-1.848V319.005z"/>
<path fill="#FFFFFF" d="M750.733,317.452v14.151h-1.826v-14.151H750.733z"/>
<path fill="#FFFFFF" d="M766.019,324.38c0,4.871-2.96,7.453-6.571,7.453c-3.738,0-6.362-2.896-6.362-7.18
	c0-4.494,2.792-7.434,6.571-7.434C763.52,317.22,766.019,320.181,766.019,324.38z M755.038,324.611c0,3.023,1.639,5.732,4.515,5.732
	c2.897,0,4.535-2.666,4.535-5.879c0-2.813-1.47-5.753-4.515-5.753C756.55,318.711,755.038,321.503,755.038,324.611z"/>
<path fill="#FFFFFF" d="M768.394,331.603v-14.151h1.995l4.535,7.159c1.049,1.659,1.868,3.15,2.54,4.599l0.042-0.021
	c-0.168-1.891-0.21-3.611-0.21-5.816v-5.921h1.722v14.151h-1.848l-4.493-7.181c-0.987-1.575-1.932-3.191-2.646-4.724l-0.063,0.021
	c0.104,1.784,0.146,3.485,0.146,5.837v6.047H768.394z"/>
<path fill="#FFFFFF" d="M576.335,321.743h-0.078l-4.405,2.379l-0.663-2.612l5.536-2.963h2.924v25.341h-3.313V321.743z"/>
<path fill="#FFFFFF" d="M588.496,343.887v-2.105l2.69-2.612c6.472-6.159,9.396-9.435,9.435-13.255c0-2.573-1.247-4.951-5.029-4.951
	c-2.3,0-4.21,1.17-5.38,2.145l-1.092-2.418c1.755-1.481,4.25-2.572,7.174-2.572c5.458,0,7.758,3.742,7.758,7.368
	c0,4.679-3.392,8.46-8.732,13.606l-2.027,1.871v0.078h11.384v2.846H588.496z"/>
<path fill="#FFFFFF" d="M350.929,320.634c0.882-0.148,2.037-0.273,3.506-0.273c1.807,0,3.129,0.42,3.969,1.176
	c0.777,0.672,1.238,1.701,1.238,2.961c0,1.279-0.377,2.287-1.092,3.023c-0.965,1.027-2.54,1.553-4.324,1.553
	c-0.547,0-1.051-0.021-1.471-0.125v5.668h-1.826V320.634z M352.756,327.457c0.399,0.105,0.903,0.148,1.512,0.148
	c2.205,0,3.549-1.072,3.549-3.023c0-1.869-1.322-2.771-3.338-2.771c-0.799,0-1.407,0.063-1.723,0.146V327.457z"/>
<path fill="#FFFFFF" d="M363.927,320.466v14.15h-1.826v-14.15H363.927z"/>
<path fill="#FFFFFF" d="M369.408,330.166l-1.469,4.451h-1.891l4.809-14.15h2.205l4.828,14.15h-1.952l-1.512-4.451H369.408z
	 M374.049,328.738l-1.386-4.072c-0.315-0.924-0.524-1.764-0.735-2.584h-0.041c-0.211,0.84-0.441,1.701-0.715,2.563l-1.385,4.094
	H374.049z"/>
<path fill="#FFFFFF" d="M379.006,333.546l7.853-11.484v-0.064h-7.181v-1.531h9.553v1.111l-7.811,11.443v0.063h7.916v1.533h-10.33
	V333.546z"/>
<path fill="#FFFFFF" d="M390.619,333.546l7.853-11.484v-0.064h-7.181v-1.531h9.553v1.111l-7.811,11.443v0.063h7.916v1.533h-10.33
	V333.546z"/>
<path fill="#FFFFFF" d="M405.486,330.166l-1.469,4.451h-1.891l4.809-14.15h2.205l4.828,14.15h-1.952l-1.512-4.451H405.486z
	 M410.127,328.738l-1.386-4.072c-0.315-0.924-0.524-1.764-0.735-2.584h-0.041c-0.211,0.84-0.441,1.701-0.715,2.563l-1.385,4.094
	H410.127z"/>
<path fill="#FFFFFF" d="M422.328,320.466v14.15h-1.826v-14.15H422.328z"/>
<path fill="#FFFFFF" d="M427.347,320.466v14.15h-1.827v-14.15H427.347z"/>
<path fill="#FFFFFF" d="M317.616,318.548v2.262l-11.033,23.08h-3.548l10.994-22.418v-0.078h-12.397v-2.846H317.616z"/>
<path fill="#FFFFFF" d="M111.154,140.596h1.826v12.619h6.047v1.532h-7.873V140.596z"/>
<path fill="#FFFFFF" d="M132.342,147.525c0,4.871-2.961,7.454-6.572,7.454c-3.736,0-6.361-2.898-6.361-7.182
	c0-4.492,2.793-7.432,6.572-7.432C129.844,140.366,132.342,143.326,132.342,147.525z M121.361,147.756
	c0,3.023,1.637,5.731,4.514,5.731c2.897,0,4.535-2.667,4.535-5.879c0-2.813-1.47-5.753-4.514-5.753
	C122.873,141.856,121.361,144.649,121.361,147.756z"/>
<path fill="#FFFFFF" d="M134.717,140.596h7.621v1.533h-5.795v4.703h5.354v1.512h-5.354v6.403h-1.826V140.596z"/>
<path fill="#FFFFFF" d="M147.631,142.15h-4.305v-1.554h10.478v1.554h-4.325v12.598h-1.848V142.15z"/>
<path fill="#FFFFFF" d="M67.934,144.993h-0.078l-4.405,2.379l-0.663-2.612l5.536-2.963h2.924v25.341h-3.313V144.993z"/>
<path fill="#FFFFFF" d="M635.298,157.228c-0.818,0.294-2.436,0.777-4.346,0.777c-2.142,0-3.905-0.547-5.291-1.869
	c-1.218-1.176-1.974-3.065-1.974-5.27c0.021-4.221,2.919-7.307,7.663-7.307c1.639,0,2.919,0.356,3.527,0.65l-0.44,1.49
	c-0.756-0.336-1.7-0.608-3.128-0.608c-3.443,0-5.69,2.142-5.69,5.69c0,3.59,2.163,5.711,5.459,5.711
	c1.196,0,2.016-0.168,2.436-0.379v-4.22h-2.876v-1.47h4.66V157.228z"/>
<path fill="#FFFFFF" d="M638.093,143.896c0.924-0.189,2.246-0.295,3.506-0.295c1.953,0,3.213,0.357,4.095,1.155
	c0.714,0.63,1.112,1.596,1.112,2.688c0,1.868-1.176,3.107-2.666,3.611v0.063c1.092,0.377,1.742,1.385,2.078,2.855
	c0.463,1.973,0.799,3.338,1.092,3.884h-1.889c-0.231-0.399-0.547-1.616-0.945-3.38c-0.42-1.953-1.176-2.688-2.834-2.751h-1.723
	v6.131h-1.826V143.896z M639.919,150.341h1.869c1.953,0,3.191-1.07,3.191-2.688c0-1.826-1.322-2.625-3.254-2.646
	c-0.883,0-1.512,0.084-1.807,0.168V150.341z"/>
<path fill="#FFFFFF" d="M656.718,151.223h-5.5v5.103h6.131v1.532h-7.958v-14.151h7.643v1.533h-5.815v4.472h5.5V151.223z"/>
<path fill="#FFFFFF" d="M667.05,151.223h-5.5v5.103h6.131v1.532h-7.958v-14.151h7.643v1.533h-5.815v4.472h5.5V151.223z"/>
<path fill="#FFFFFF" d="M670.054,157.858v-14.151h1.995l4.535,7.16c1.049,1.658,1.868,3.148,2.54,4.598l0.042-0.021
	c-0.168-1.889-0.21-3.611-0.21-5.815v-5.921h1.722v14.151h-1.848l-4.493-7.181c-0.987-1.574-1.932-3.191-2.646-4.725l-0.063,0.021
	c0.104,1.785,0.146,3.485,0.146,5.837v6.047H670.054z"/>
<path fill="#FFFFFF" d="M687.358,156.787l7.853-11.484v-0.063h-7.181v-1.533h9.553v1.113l-7.811,11.442v0.063h7.916v1.532h-10.33
	V156.787z"/>
<path fill="#FFFFFF" d="M711.591,150.635c0,4.871-2.961,7.454-6.572,7.454c-3.736,0-6.361-2.898-6.361-7.182
	c0-4.492,2.793-7.432,6.572-7.432C709.093,143.476,711.591,146.436,711.591,150.635z M700.61,150.867
	c0,3.023,1.637,5.731,4.514,5.731c2.897,0,4.535-2.667,4.535-5.879c0-2.813-1.47-5.753-4.514-5.753
	C702.122,144.966,700.61,147.759,700.61,150.867z"/>
<path fill="#FFFFFF" d="M713.966,157.858v-14.151h1.994l4.535,7.16c1.051,1.658,1.869,3.148,2.541,4.598l0.042-0.021
	c-0.168-1.889-0.21-3.611-0.21-5.815v-5.921h1.722v14.151h-1.848l-4.493-7.181c-0.986-1.574-1.932-3.191-2.646-4.725l-0.063,0.021
	c0.105,1.785,0.147,3.485,0.147,5.837v6.047H713.966z"/>
<path fill="#FFFFFF" d="M735.11,151.223h-5.502v5.103h6.131v1.532h-7.957v-14.151h7.643v1.533h-5.816v4.472h5.502V151.223z"/>
<path fill="#FFFFFF" d="M580.681,164.722c0.74,0.078,1.598,0,2.768-0.117c1.988-0.272,3.859-1.092,5.302-2.456
	c1.677-1.521,2.886-3.742,3.354-6.744h-0.117c-1.403,1.715-3.431,2.729-5.965,2.729c-4.562,0-7.485-3.431-7.485-7.758
	c0-4.796,3.47-9.006,8.654-9.006c5.186,0,8.383,4.21,8.383,10.682c0,5.575-1.872,9.474-4.367,11.891
	c-1.949,1.911-4.639,3.08-7.368,3.393c-1.247,0.194-2.339,0.233-3.157,0.194V164.722z M581.928,150.141
	c0,3.158,1.91,5.38,4.873,5.38c2.301,0,4.094-1.13,4.99-2.65c0.195-0.313,0.313-0.702,0.313-1.248c0-4.327-1.599-7.642-5.186-7.642
	C583.995,143.981,581.928,146.554,581.928,150.141z"/>
<path fill="#FFFFFF" d="M349.281,143.787h7.621v1.533h-5.795v4.703h5.354v1.512h-5.354v6.403h-1.826V143.787z"/>
<path fill="#FFFFFF" d="M371.601,150.716c0,4.871-2.961,7.454-6.572,7.454c-3.736,0-6.361-2.898-6.361-7.182
	c0-4.492,2.793-7.432,6.572-7.432C369.103,143.557,371.601,146.517,371.601,150.716z M360.621,150.947
	c0,3.023,1.637,5.731,4.514,5.731c2.897,0,4.535-2.667,4.535-5.879c0-2.813-1.47-5.753-4.514-5.753
	C362.133,145.047,360.621,147.84,360.621,150.947z"/>
<path fill="#FFFFFF" d="M386.07,150.716c0,4.871-2.961,7.454-6.572,7.454c-3.736,0-6.361-2.898-6.361-7.182
	c0-4.492,2.793-7.432,6.572-7.432C383.572,143.557,386.07,146.517,386.07,150.716z M375.09,150.947c0,3.023,1.637,5.731,4.514,5.731
	c2.897,0,4.535-2.667,4.535-5.879c0-2.813-1.47-5.753-4.514-5.753C376.601,145.047,375.09,147.84,375.09,150.947z"/>
<path fill="#FFFFFF" d="M388.445,143.977c1.113-0.168,2.436-0.295,3.885-0.295c2.624,0,4.492,0.609,5.731,1.764
	c1.26,1.155,1.995,2.793,1.995,5.082c0,2.309-0.715,4.199-2.037,5.5c-1.322,1.323-3.506,2.037-6.257,2.037
	c-1.302,0-2.394-0.063-3.317-0.168V143.977z M390.271,156.49c0.463,0.084,1.135,0.104,1.848,0.104c3.906,0,6.026-2.184,6.026-6.005
	c0.021-3.338-1.868-5.459-5.731-5.459c-0.945,0-1.659,0.084-2.143,0.189V156.49z"/>
<path fill="#FFFFFF" d="M416.771,157.477c-0.672,0.336-2.016,0.672-3.736,0.672c-3.99,0-6.992-2.52-6.992-7.16
	c0-4.43,3.002-7.432,7.391-7.432c1.764,0,2.877,0.377,3.359,0.629l-0.441,1.491c-0.692-0.336-1.68-0.588-2.855-0.588
	c-3.316,0-5.521,2.12-5.521,5.837c0,3.465,1.994,5.689,5.438,5.689c1.113,0,2.247-0.23,2.982-0.588L416.771,157.477z"/>
<path fill="#FFFFFF" d="M430.715,150.716c0,4.871-2.961,7.454-6.572,7.454c-3.736,0-6.361-2.898-6.361-7.182
	c0-4.492,2.793-7.432,6.572-7.432C428.217,143.557,430.715,146.517,430.715,150.716z M419.734,150.947
	c0,3.023,1.637,5.731,4.514,5.731c2.897,0,4.535-2.667,4.535-5.879c0-2.813-1.47-5.753-4.514-5.753
	C421.246,145.047,419.734,147.84,419.734,150.947z"/>
<path fill="#FFFFFF" d="M434.916,143.787v8.377c0,3.171,1.407,4.515,3.297,4.515c2.1,0,3.443-1.386,3.443-4.515v-8.377h1.848v8.252
	c0,4.346-2.289,6.131-5.354,6.131c-2.898,0-5.082-1.659-5.082-6.047v-8.336H434.916z"/>
<path fill="#FFFFFF" d="M446.677,143.977c0.924-0.189,2.246-0.295,3.506-0.295c1.953,0,3.213,0.357,4.095,1.155
	c0.714,0.63,1.112,1.596,1.112,2.688c0,1.868-1.176,3.107-2.666,3.611v0.063c1.092,0.377,1.742,1.385,2.078,2.855
	c0.463,1.973,0.799,3.338,1.092,3.884h-1.889c-0.231-0.399-0.547-1.616-0.945-3.38c-0.42-1.953-1.176-2.688-2.834-2.751h-1.723
	v6.131h-1.826V143.977z M448.504,150.422h1.869c1.953,0,3.191-1.07,3.191-2.688c0-1.826-1.322-2.625-3.254-2.646
	c-0.883,0-1.512,0.084-1.807,0.168V150.422z"/>
<path fill="#FFFFFF" d="M460.851,145.341h-4.305v-1.554h10.478v1.554h-4.325v12.598h-1.848V145.341z"/>
<path fill="#FFFFFF" d="M311.767,167.136v-6.9h-11.773v-2.262l11.306-16.179h3.704v15.75h3.548v2.69h-3.548v6.9H311.767z
	 M311.767,157.545v-8.46c0-1.325,0.039-2.651,0.117-3.977h-0.117c-0.779,1.481-1.403,2.573-2.105,3.743l-6.198,8.615v0.078H311.767z
	"/>
<path fill="#FFFFFF" d="M113.443,210.06l-1.471,4.451h-1.889l4.808-14.151h2.204l4.83,14.151h-1.953l-1.512-4.451H113.443z
	 M118.083,208.632l-1.386-4.073c-0.314-0.924-0.525-1.764-0.734-2.582h-0.043c-0.209,0.84-0.44,1.7-0.713,2.561l-1.387,4.095
	H118.083z"/>
<path fill="#FFFFFF" d="M124.006,200.549c0.924-0.189,2.246-0.295,3.506-0.295c1.953,0,3.213,0.357,4.095,1.155
	c0.714,0.63,1.112,1.596,1.112,2.688c0,1.868-1.176,3.107-2.666,3.611v0.063c1.092,0.377,1.742,1.385,2.078,2.855
	c0.463,1.973,0.799,3.338,1.092,3.884h-1.889c-0.231-0.399-0.547-1.616-0.945-3.38c-0.42-1.953-1.176-2.688-2.834-2.751h-1.723
	v6.131h-1.826V200.549z M125.832,206.995h1.869c1.953,0,3.191-1.07,3.191-2.688c0-1.826-1.322-2.625-3.254-2.646
	c-0.883,0-1.512,0.084-1.807,0.168V206.995z"/>
<path fill="#FFFFFF" d="M138.179,201.914h-4.305v-1.554h10.478v1.554h-4.325v12.598h-1.848V201.914z"/>
<path fill="#FFFFFF" d="M150.381,200.549c1.113-0.168,2.436-0.295,3.885-0.295c2.624,0,4.492,0.609,5.731,1.764
	c1.26,1.155,1.995,2.793,1.995,5.082c0,2.309-0.715,4.199-2.037,5.5c-1.322,1.323-3.506,2.037-6.257,2.037
	c-1.302,0-2.394-0.063-3.317-0.168V200.549z M152.207,213.063c0.463,0.084,1.135,0.104,1.848,0.104c3.906,0,6.026-2.184,6.026-6.005
	c0.021-3.338-1.868-5.459-5.731-5.459c-0.945,0-1.659,0.084-2.143,0.189V213.063z"/>
<path fill="#FFFFFF" d="M176.46,207.289c0,4.871-2.96,7.454-6.571,7.454c-3.738,0-6.362-2.898-6.362-7.182
	c0-4.492,2.792-7.432,6.571-7.432C173.961,200.129,176.46,203.089,176.46,207.289z M165.478,207.52c0,3.023,1.639,5.731,4.515,5.731
	c2.897,0,4.535-2.667,4.535-5.879c0-2.813-1.47-5.753-4.515-5.753C166.99,201.62,165.478,204.413,165.478,207.52z"/>
<path fill="#FFFFFF" d="M190.76,208.296c-0.104-1.974-0.231-4.347-0.21-6.11h-0.063c-0.483,1.659-1.071,3.423-1.785,5.375
	l-2.498,6.866h-1.387l-2.288-6.739c-0.672-1.995-1.239-3.822-1.638-5.502h-0.042c-0.042,1.764-0.147,4.137-0.272,6.258l-0.379,6.067
	h-1.742l0.986-14.151h2.331l2.415,6.845c0.588,1.743,1.07,3.296,1.428,4.767h0.063c0.357-1.428,0.861-2.982,1.49-4.767l2.52-6.845
	h2.331l0.882,14.151h-1.785L190.76,208.296z"/>
<path fill="#FFFFFF" d="M60.487,226.889v-2.105l2.69-2.612c6.472-6.159,9.396-9.435,9.435-13.255c0-2.573-1.247-4.951-5.029-4.951
	c-2.3,0-4.21,1.17-5.38,2.145l-1.092-2.418c1.755-1.481,4.25-2.572,7.174-2.572c5.458,0,7.758,3.742,7.758,7.368
	c0,4.679-3.392,8.46-8.732,13.606l-2.027,1.871v0.078h11.384v2.846H60.487z"/>
<path fill="#FFFFFF" d="M624.881,200.462c0.882-0.146,2.036-0.273,3.507-0.273c1.805,0,3.128,0.42,3.968,1.176
	c0.776,0.672,1.239,1.701,1.239,2.961c0,1.281-0.379,2.289-1.092,3.023c-0.967,1.029-2.541,1.554-4.326,1.554
	c-0.545,0-1.049-0.021-1.469-0.126v5.669h-1.827V200.462z M626.708,207.287c0.398,0.104,0.902,0.146,1.512,0.146
	c2.204,0,3.548-1.07,3.548-3.023c0-1.869-1.323-2.771-3.339-2.771c-0.797,0-1.406,0.063-1.721,0.146V207.287z"/>
<path fill="#FFFFFF" d="M636.577,209.995l-1.469,4.451h-1.891l4.809-14.151h2.205l4.828,14.151h-1.952l-1.512-4.451H636.577z
	 M641.218,208.567l-1.386-4.073c-0.315-0.924-0.524-1.764-0.735-2.582h-0.041c-0.211,0.84-0.441,1.7-0.715,2.561l-1.385,4.095
	H641.218z"/>
<path fill="#FFFFFF" d="M647.14,200.484c0.924-0.189,2.247-0.295,3.507-0.295c1.952,0,3.212,0.357,4.094,1.155
	c0.714,0.63,1.113,1.596,1.113,2.688c0,1.868-1.176,3.107-2.667,3.611v0.063c1.092,0.377,1.743,1.385,2.079,2.855
	c0.461,1.973,0.797,3.338,1.092,3.884h-1.891c-0.23-0.399-0.545-1.616-0.944-3.38c-0.42-1.953-1.176-2.688-2.835-2.751h-1.721v6.131
	h-1.827V200.484z M648.968,206.929h1.868c1.952,0,3.191-1.07,3.191-2.688c0-1.826-1.323-2.625-3.255-2.646
	c-0.881,0-1.512,0.084-1.805,0.168V206.929z"/>
<path fill="#FFFFFF" d="M658.438,200.294h1.826v6.824h0.063c0.378-0.547,0.756-1.051,1.112-1.512l4.326-5.313h2.268l-5.123,6.005
	l5.521,8.146h-2.162l-4.662-6.95l-1.344,1.555v5.396h-1.826V200.294z"/>
<path fill="#FFFFFF" d="M576.335,204.746h-0.078l-4.405,2.379l-0.663-2.612l5.536-2.963h2.924v25.341h-3.313V204.746z"/>
<path fill="#FFFFFF" d="M605.339,213.947c0,8.616-3.197,13.372-8.812,13.372c-4.951,0-8.304-4.64-8.382-13.021
	c0-8.499,3.665-13.177,8.812-13.177C602.298,201.121,605.339,205.876,605.339,213.947z M591.576,214.336
	c0,6.589,2.027,10.331,5.146,10.331c3.509,0,5.186-4.093,5.186-10.564c0-6.238-1.599-10.332-5.146-10.332
	C593.76,203.771,591.576,207.436,591.576,214.336z"/>
<path fill="#FFFFFF" d="M359.527,217.236c-0.672,0.336-2.016,0.672-3.736,0.672c-3.99,0-6.992-2.52-6.992-7.16
	c0-4.43,3.002-7.432,7.391-7.432c1.764,0,2.877,0.377,3.359,0.629l-0.441,1.491c-0.692-0.336-1.68-0.588-2.855-0.588
	c-3.316,0-5.521,2.12-5.521,5.837c0,3.465,1.994,5.689,5.438,5.689c1.113,0,2.247-0.23,2.982-0.588L359.527,217.236z"/>
<path fill="#FFFFFF" d="M373.47,210.476c0,4.871-2.961,7.454-6.572,7.454c-3.736,0-6.361-2.898-6.361-7.182
	c0-4.492,2.793-7.432,6.572-7.432C370.972,203.316,373.47,206.276,373.47,210.476z M362.49,210.707c0,3.023,1.637,5.731,4.514,5.731
	c2.897,0,4.535-2.667,4.535-5.879c0-2.813-1.47-5.753-4.514-5.753C364.002,204.807,362.49,207.6,362.49,210.707z"/>
<path fill="#FFFFFF" d="M378.155,217.698l-3.591-14.151h1.932l1.68,7.16c0.42,1.764,0.799,3.527,1.051,4.892h0.041
	c0.231-1.407,0.672-3.087,1.155-4.913l1.89-7.139h1.91l1.723,7.181c0.398,1.68,0.776,3.359,0.986,4.851h0.042
	c0.294-1.555,0.692-3.129,1.134-4.893l1.869-7.139h1.868l-4.011,14.151h-1.91l-1.785-7.37c-0.44-1.805-0.734-3.191-0.924-4.619
	h-0.041c-0.252,1.407-0.567,2.793-1.092,4.619l-2.016,7.37H378.155z"/>
<path fill="#FFFFFF" d="M405.705,210.476c0,4.871-2.961,7.454-6.572,7.454c-3.736,0-6.361-2.898-6.361-7.182
	c0-4.492,2.793-7.432,6.572-7.432C403.207,203.316,405.705,206.276,405.705,210.476z M394.724,210.707
	c0,3.023,1.637,5.731,4.514,5.731c2.897,0,4.535-2.667,4.535-5.879c0-2.813-1.47-5.753-4.514-5.753
	C396.236,204.807,394.724,207.6,394.724,210.707z"/>
<path fill="#FFFFFF" d="M408.08,203.736c0.924-0.189,2.246-0.295,3.506-0.295c1.953,0,3.213,0.357,4.095,1.155
	c0.714,0.63,1.112,1.596,1.112,2.688c0,1.868-1.176,3.107-2.666,3.611v0.063c1.092,0.377,1.742,1.385,2.078,2.855
	c0.463,1.973,0.799,3.338,1.092,3.884h-1.889c-0.231-0.399-0.547-1.616-0.945-3.38c-0.42-1.953-1.176-2.688-2.834-2.751h-1.723
	v6.131h-1.826V203.736z M409.906,210.182h1.869c1.953,0,3.191-1.07,3.191-2.688c0-1.826-1.322-2.625-3.254-2.646
	c-0.883,0-1.512,0.084-1.807,0.168V210.182z"/>
<path fill="#FFFFFF" d="M419.379,203.547h1.826v6.824h0.063c0.378-0.547,0.756-1.051,1.112-1.512l4.326-5.313h2.268l-5.123,6.005
	l5.521,8.146h-2.162l-4.662-6.95l-1.344,1.555v5.396h-1.826V203.547z"/>
<path fill="#FFFFFF" d="M432.586,203.547v14.151h-1.826v-14.151H432.586z"/>
<path fill="#FFFFFF" d="M435.779,217.698v-14.151h1.994l4.535,7.16c1.051,1.658,1.869,3.148,2.541,4.598l0.042-0.021
	c-0.168-1.889-0.21-3.611-0.21-5.815v-5.921h1.722v14.151h-1.848l-4.493-7.181c-0.986-1.574-1.932-3.191-2.646-4.725l-0.063,0.021
	c0.105,1.785,0.147,3.485,0.147,5.837v6.047H435.779z"/>
<path fill="#FFFFFF" d="M460.367,217.068c-0.819,0.294-2.436,0.777-4.347,0.777c-2.142,0-3.905-0.547-5.291-1.869
	c-1.218-1.176-1.974-3.065-1.974-5.27c0.021-4.221,2.918-7.307,7.664-7.307c1.637,0,2.918,0.356,3.527,0.65l-0.441,1.49
	c-0.756-0.336-1.701-0.608-3.129-0.608c-3.443,0-5.689,2.142-5.689,5.69c0,3.59,2.162,5.711,5.459,5.711
	c1.197,0,2.016-0.168,2.436-0.379v-4.22h-2.877v-1.47h4.662V217.068z"/>
<path fill="#FFFFFF" d="M316.287,204.434h-9.668l-0.975,6.511c0.584-0.078,1.13-0.156,2.065-0.156c1.949,0,3.899,0.429,5.458,1.365
	c1.988,1.13,3.626,3.313,3.626,6.51c0,4.952-3.938,8.655-9.435,8.655c-2.768,0-5.107-0.779-6.315-1.56l0.857-2.611
	c1.053,0.623,3.119,1.403,5.419,1.403c3.236,0,6.004-2.105,6.004-5.497c-0.039-3.275-2.222-5.614-7.29-5.614
	c-1.442,0-2.573,0.156-3.509,0.272l1.637-12.163h12.125V204.434z"/>
<path fill="#FFFFFF" d="M123.142,390.32c-0.672,0.336-2.016,0.672-3.736,0.672c-3.99,0-6.992-2.52-6.992-7.159
	c0-4.431,3.002-7.434,7.391-7.434c1.764,0,2.877,0.379,3.359,0.631l-0.441,1.49c-0.692-0.336-1.68-0.588-2.855-0.588
	c-3.316,0-5.521,2.121-5.521,5.837c0,3.464,1.994,5.69,5.438,5.69c1.113,0,2.247-0.231,2.982-0.588L123.142,390.32z"/>
<path fill="#FFFFFF" d="M125.433,376.819c0.924-0.188,2.246-0.293,3.506-0.293c1.953,0,3.213,0.356,4.095,1.154
	c0.714,0.63,1.112,1.596,1.112,2.688c0,1.869-1.176,3.107-2.666,3.611v0.063c1.092,0.379,1.742,1.387,2.078,2.855
	c0.463,1.975,0.799,3.339,1.092,3.885h-1.889c-0.231-0.398-0.547-1.617-0.945-3.381c-0.42-1.952-1.176-2.688-2.834-2.75h-1.723
	v6.131h-1.826V376.819z M127.26,383.265h1.869c1.953,0,3.191-1.071,3.191-2.688c0-1.827-1.322-2.624-3.254-2.646
	c-0.883,0-1.512,0.084-1.807,0.168V383.265z"/>
<path fill="#FFFFFF" d="M144.058,384.147h-5.5v5.102h6.131v1.533h-7.958V376.63h7.643v1.532h-5.815v4.473h5.5V384.147z"/>
<path fill="#FFFFFF" d="M149.351,386.331l-1.469,4.451h-1.891l4.809-14.151h2.205l4.828,14.151h-1.952l-1.512-4.451H149.351z
	 M153.992,384.903l-1.386-4.073c-0.315-0.924-0.524-1.764-0.735-2.583h-0.041c-0.211,0.84-0.441,1.701-0.715,2.563l-1.385,4.094
	H153.992z"/>
<path fill="#FFFFFF" d="M160.985,378.184h-4.304v-1.554h10.477v1.554h-4.325v12.598h-1.848V378.184z"/>
<path fill="#FFFFFF" d="M170.56,376.63v14.151h-1.826V376.63H170.56z"/>
<path fill="#FFFFFF" d="M176.86,390.782l-4.619-14.151h1.974l2.205,6.971c0.608,1.911,1.133,3.632,1.512,5.291h0.041
	c0.399-1.638,0.987-3.423,1.617-5.271l2.394-6.991h1.952l-5.06,14.151H176.86z"/>
<path fill="#FFFFFF" d="M192.799,384.147h-5.502v5.102h6.131v1.533h-7.957V376.63h7.643v1.532h-5.816v4.473h5.502V384.147z"/>
<path fill="#FFFFFF" d="M200.003,388.556c0.819,0.504,2.016,0.924,3.275,0.924c1.868,0,2.96-0.987,2.96-2.415
	c0-1.322-0.756-2.078-2.666-2.813c-2.31-0.819-3.737-2.016-3.737-4.011c0-2.204,1.827-3.843,4.577-3.843
	c1.449,0,2.498,0.336,3.129,0.693l-0.504,1.49c-0.463-0.252-1.407-0.672-2.688-0.672c-1.932,0-2.667,1.155-2.667,2.121
	c0,1.322,0.86,1.974,2.813,2.729c2.394,0.924,3.611,2.079,3.611,4.157c0,2.184-1.617,4.073-4.955,4.073
	c-1.365,0-2.855-0.399-3.611-0.903L200.003,388.556z"/>
<path fill="#FFFFFF" d="M210.607,376.798c0.882-0.147,2.037-0.272,3.506-0.272c1.807,0,3.129,0.42,3.969,1.176
	c0.777,0.672,1.238,1.7,1.238,2.96c0,1.28-0.377,2.288-1.092,3.023c-0.965,1.028-2.54,1.554-4.324,1.554
	c-0.547,0-1.051-0.021-1.471-0.126v5.669h-1.826V376.798z M212.433,383.622c0.399,0.105,0.903,0.147,1.512,0.147
	c2.205,0,3.549-1.071,3.549-3.023c0-1.868-1.322-2.771-3.338-2.771c-0.799,0-1.407,0.063-1.723,0.147V383.622z"/>
<path fill="#FFFFFF" d="M222.304,386.331l-1.471,4.451h-1.889l4.808-14.151h2.204l4.83,14.151h-1.953l-1.512-4.451H222.304z
	 M226.944,384.903l-1.386-4.073c-0.314-0.924-0.525-1.764-0.734-2.583h-0.043c-0.209,0.84-0.44,1.701-0.713,2.563l-1.387,4.094
	H226.944z"/>
<path fill="#FFFFFF" d="M242.441,390.32c-0.672,0.336-2.016,0.672-3.738,0.672c-3.988,0-6.991-2.52-6.991-7.159
	c0-4.431,3.003-7.434,7.391-7.434c1.764,0,2.876,0.379,3.359,0.631l-0.44,1.49c-0.693-0.336-1.68-0.588-2.855-0.588
	c-3.318,0-5.522,2.121-5.522,5.837c0,3.464,1.995,5.69,5.438,5.69c1.112,0,2.246-0.231,2.98-0.588L242.441,390.32z"/>
<path fill="#FFFFFF" d="M252.058,384.147h-5.5v5.102h6.131v1.533h-7.958V376.63h7.643v1.532h-5.815v4.473h5.5V384.147z"/>
<path fill="#FFFFFF" d="M49.301,399.612c0.975,0.624,3.235,1.599,5.614,1.599c4.405,0,5.77-2.808,5.73-4.912
	c-0.039-3.548-3.235-5.068-6.55-5.068h-1.91v-2.573h1.91c2.495,0,5.653-1.287,5.653-4.289c0-2.027-1.287-3.82-4.444-3.82
	c-2.027,0-3.977,0.896-5.068,1.677l-0.896-2.495c1.325-0.975,3.898-1.949,6.627-1.949c4.99,0,7.252,2.963,7.252,6.043
	c0,2.611-1.56,4.834-4.679,5.965v0.077c3.119,0.624,5.653,2.963,5.653,6.511c0,4.055-3.158,7.603-9.239,7.603
	c-2.847,0-5.342-0.896-6.589-1.715L49.301,399.612z"/>
<path fill="#FFFFFF" d="M66.647,401.522c0-1.442,0.975-2.456,2.339-2.456c1.365,0,2.301,1.014,2.301,2.456
	c0,1.403-0.897,2.456-2.34,2.456C67.583,403.978,66.647,402.925,66.647,401.522z"/>
<path fill="#FFFFFF" d="M73.313,399.612c0.975,0.624,3.235,1.599,5.614,1.599c4.405,0,5.77-2.808,5.73-4.912
	c-0.039-3.548-3.235-5.068-6.55-5.068h-1.91v-2.573h1.91c2.495,0,5.653-1.287,5.653-4.289c0-2.027-1.287-3.82-4.444-3.82
	c-2.027,0-3.977,0.896-5.068,1.677l-0.896-2.495c1.325-0.975,3.898-1.949,6.627-1.949c4.99,0,7.252,2.963,7.252,6.043
	c0,2.611-1.56,4.834-4.679,5.965v0.077c3.119,0.624,5.653,2.963,5.653,6.511c0,4.055-3.158,7.603-9.239,7.603
	c-2.847,0-5.342-0.896-6.589-1.715L73.313,399.612z"/>
<path fill="#FFFFFF" d="M627.827,380.143h1.826v12.619h6.047v1.532h-7.873V380.143z"/>
<path fill="#FFFFFF" d="M639.565,380.143v14.151h-1.826v-14.151H639.565z"/>
<path fill="#FFFFFF" d="M645.445,381.697h-4.304v-1.554h10.477v1.554h-4.325v12.598h-1.848V381.697z"/>
<path fill="#FFFFFF" d="M660.522,387.66h-5.502v5.103h6.131v1.532h-7.957v-14.151h7.643v1.533h-5.816v4.472h5.502V387.66z"/>
<path fill="#FFFFFF" d="M663.526,380.333c0.924-0.189,2.246-0.295,3.506-0.295c1.953,0,3.213,0.357,4.095,1.155
	c0.714,0.63,1.112,1.596,1.112,2.688c0,1.868-1.176,3.107-2.666,3.611v0.063c1.092,0.377,1.742,1.385,2.078,2.855
	c0.463,1.973,0.799,3.338,1.092,3.884h-1.889c-0.231-0.399-0.547-1.616-0.945-3.38c-0.42-1.953-1.176-2.688-2.834-2.751h-1.723
	v6.131h-1.826V380.333z M665.352,386.778h1.869c1.953,0,3.191-1.07,3.191-2.688c0-1.826-1.322-2.625-3.254-2.646
	c-0.883,0-1.512,0.084-1.807,0.168V386.778z"/>
<path fill="#FFFFFF" d="M677.218,389.843l-1.471,4.451h-1.889l4.808-14.151h2.204l4.83,14.151h-1.953l-1.512-4.451H677.218z
	 M681.857,388.416l-1.386-4.073c-0.314-0.924-0.525-1.764-0.734-2.582h-0.043c-0.209,0.84-0.44,1.7-0.713,2.561l-1.387,4.095
	H681.857z"/>
<path fill="#FFFFFF" d="M692.232,380.333c0.798-0.168,2.058-0.295,3.339-0.295c1.826,0,3.002,0.315,3.884,1.029
	c0.735,0.546,1.176,1.386,1.176,2.498c0,1.365-0.903,2.563-2.394,3.107v0.043c1.344,0.336,2.918,1.448,2.918,3.548
	c0,1.218-0.482,2.142-1.196,2.835c-0.987,0.902-2.583,1.322-4.892,1.322c-1.26,0-2.227-0.084-2.835-0.168V380.333z M694.059,386.127
	h1.658c1.932,0,3.065-1.008,3.065-2.373c0-1.658-1.26-2.31-3.107-2.31c-0.84,0-1.323,0.063-1.616,0.126V386.127z M694.059,392.909
	c0.356,0.063,0.881,0.084,1.532,0.084c1.89,0,3.632-0.693,3.632-2.75c0-1.932-1.658-2.73-3.652-2.73h-1.512V392.909z"/>
<path fill="#FFFFFF" d="M576.336,381.404h-0.078l-4.405,2.379l-0.663-2.612l5.536-2.963h2.924v25.341h-3.313V381.404z"/>
<path fill="#FFFFFF" d="M589.316,399.611c0.975,0.624,3.235,1.599,5.614,1.599c4.405,0,5.77-2.808,5.73-4.912
	c-0.039-3.548-3.235-5.068-6.55-5.068h-1.91v-2.573h1.91c2.495,0,5.653-1.287,5.653-4.289c0-2.027-1.287-3.82-4.444-3.82
	c-2.027,0-3.977,0.896-5.068,1.677l-0.896-2.495c1.325-0.975,3.898-1.949,6.627-1.949c4.99,0,7.252,2.963,7.252,6.043
	c0,2.611-1.56,4.834-4.679,5.965v0.077c3.119,0.624,5.653,2.963,5.653,6.511c0,4.055-3.158,7.603-9.239,7.603
	c-2.847,0-5.342-0.896-6.589-1.715L589.316,399.611z"/>
<path fill="#FFFFFF" d="M361.702,393.319c-0.819,0.294-2.436,0.777-4.347,0.777c-2.142,0-3.905-0.547-5.291-1.869
	c-1.218-1.176-1.974-3.065-1.974-5.27c0.021-4.221,2.918-7.307,7.664-7.307c1.637,0,2.918,0.356,3.527,0.65l-0.441,1.49
	c-0.756-0.336-1.701-0.608-3.129-0.608c-3.443,0-5.689,2.142-5.689,5.69c0,3.59,2.162,5.711,5.459,5.711
	c1.197,0,2.016-0.168,2.436-0.379v-4.22h-2.877v-1.47h4.662V393.319z"/>
<path fill="#FFFFFF" d="M364.497,379.987c0.924-0.189,2.246-0.295,3.506-0.295c1.953,0,3.213,0.357,4.095,1.155
	c0.714,0.63,1.112,1.596,1.112,2.688c0,1.868-1.176,3.107-2.666,3.611v0.063c1.092,0.377,1.742,1.385,2.078,2.855
	c0.463,1.973,0.799,3.338,1.092,3.884h-1.889c-0.231-0.399-0.547-1.616-0.945-3.38c-0.42-1.953-1.176-2.688-2.834-2.751h-1.723
	v6.131h-1.826V379.987z M366.323,386.432h1.869c1.953,0,3.191-1.07,3.191-2.688c0-1.826-1.322-2.625-3.254-2.646
	c-0.883,0-1.512,0.084-1.807,0.168V386.432z"/>
<path fill="#FFFFFF" d="M383.122,387.314h-5.5v5.103h6.131v1.532h-7.958v-14.151h7.643v1.533h-5.815v4.472h5.5V387.314z"/>
<path fill="#FFFFFF" d="M393.454,387.314h-5.5v5.103h6.131v1.532h-7.958v-14.151h7.643v1.533h-5.815v4.472h5.5V387.314z"/>
<path fill="#FFFFFF" d="M396.459,393.949v-14.151h1.995l4.535,7.16c1.049,1.658,1.868,3.148,2.54,4.598l0.042-0.021
	c-0.168-1.889-0.21-3.611-0.21-5.815v-5.921h1.722v14.151h-1.848l-4.493-7.181c-0.987-1.574-1.932-3.191-2.646-4.725l-0.063,0.021
	c0.104,1.785,0.146,3.485,0.146,5.837v6.047H396.459z"/>
<path fill="#FFFFFF" d="M414.476,391.723c0.819,0.504,2.016,0.924,3.275,0.924c1.868,0,2.96-0.986,2.96-2.414
	c0-1.323-0.756-2.079-2.666-2.814c-2.31-0.818-3.737-2.016-3.737-4.01c0-2.205,1.827-3.842,4.577-3.842
	c1.449,0,2.498,0.336,3.129,0.692l-0.504,1.491c-0.463-0.252-1.407-0.672-2.688-0.672c-1.932,0-2.667,1.154-2.667,2.12
	c0,1.323,0.86,1.974,2.813,2.729c2.394,0.924,3.611,2.078,3.611,4.157c0,2.184-1.617,4.073-4.955,4.073
	c-1.365,0-2.855-0.398-3.611-0.902L414.476,391.723z"/>
<path fill="#FFFFFF" d="M427.768,381.351h-4.305v-1.554h10.478v1.554h-4.325v12.598h-1.848V381.351z"/>
<path fill="#FFFFFF" d="M436.231,389.498l-1.471,4.451h-1.889l4.808-14.151h2.204l4.83,14.151h-1.953l-1.512-4.451H436.231z
	 M440.871,388.07l-1.386-4.073c-0.314-0.924-0.525-1.764-0.734-2.582h-0.043c-0.209,0.84-0.44,1.7-0.713,2.561l-1.387,4.095H440.871
	z"/>
<path fill="#FFFFFF" d="M457.251,393.319c-0.819,0.294-2.436,0.777-4.347,0.777c-2.142,0-3.905-0.547-5.291-1.869
	c-1.218-1.176-1.974-3.065-1.974-5.27c0.021-4.221,2.918-7.307,7.664-7.307c1.637,0,2.918,0.356,3.527,0.65l-0.441,1.49
	c-0.756-0.336-1.701-0.608-3.129-0.608c-3.443,0-5.689,2.142-5.689,5.69c0,3.59,2.162,5.711,5.459,5.711
	c1.197,0,2.016-0.168,2.436-0.379v-4.22h-2.877v-1.47h4.662V393.319z"/>
<path fill="#FFFFFF" d="M467.372,387.314h-5.5v5.103h6.131v1.532h-7.958v-14.151h7.643v1.533h-5.815v4.472h5.5V387.314z"/>
<path fill="#FFFFFF" d="M300.849,397.117c0-3.197,1.91-5.457,5.029-6.783l-0.039-0.117c-2.807-1.326-4.016-3.508-4.016-5.691
	c0-4.016,3.392-6.744,7.836-6.744c4.913,0,7.369,3.078,7.369,6.236c0,2.145-1.053,4.445-4.172,5.926v0.117
	c3.158,1.248,5.107,3.471,5.107,6.551c0,4.404-3.782,7.367-8.616,7.367C304.047,403.978,300.849,400.82,300.849,397.117z
	 M314.495,396.96c0-3.08-2.145-4.561-5.575-5.535c-2.963,0.857-4.562,2.807-4.562,5.225c-0.117,2.572,1.832,4.834,5.068,4.834
	C312.507,401.484,314.495,399.574,314.495,396.96z M305.06,384.291c0,2.535,1.91,3.898,4.834,4.678
	c2.184-0.74,3.859-2.299,3.859-4.6c0-2.027-1.208-4.133-4.288-4.133C306.62,380.236,305.06,382.107,305.06,384.291z"/>
<path fill="#FFFFFF" d="M627.662,512.201c0.882-0.146,2.037-0.271,3.506-0.271c1.807,0,3.129,0.42,3.969,1.176
	c0.777,0.672,1.238,1.699,1.238,2.959c0,1.281-0.377,2.289-1.092,3.023c-0.965,1.029-2.54,1.555-4.324,1.555
	c-0.547,0-1.051-0.021-1.471-0.127v5.67h-1.826V512.201z M629.488,519.025c0.399,0.105,0.903,0.146,1.512,0.146
	c2.205,0,3.549-1.07,3.549-3.023c0-1.867-1.322-2.771-3.338-2.771c-0.799,0-1.407,0.064-1.723,0.148V519.025z"/>
<path fill="#FFFFFF" d="M639.358,521.734l-1.47,4.451h-1.89l4.808-14.152h2.205l4.829,14.152h-1.952l-1.512-4.451H639.358z
	 M643.998,520.306l-1.385-4.074c-0.315-0.924-0.525-1.764-0.735-2.582h-0.042c-0.21,0.84-0.441,1.701-0.714,2.563l-1.386,4.094
	H643.998z"/>
<path fill="#FFFFFF" d="M649.922,512.222c0.924-0.189,2.246-0.293,3.506-0.293c1.953,0,3.213,0.355,4.095,1.154
	c0.714,0.629,1.112,1.596,1.112,2.688c0,1.869-1.176,3.107-2.666,3.611v0.063c1.092,0.379,1.742,1.387,2.078,2.855
	c0.463,1.975,0.799,3.338,1.092,3.885h-1.889c-0.231-0.398-0.547-1.617-0.945-3.381c-0.42-1.953-1.176-2.688-2.834-2.75h-1.723
	v6.131h-1.826V512.222z M651.748,518.667h1.869c1.953,0,3.191-1.07,3.191-2.688c0-1.826-1.322-2.623-3.254-2.645
	c-0.883,0-1.512,0.084-1.807,0.168V518.667z"/>
<path fill="#FFFFFF" d="M661.219,512.033h1.827v6.824h0.063c0.378-0.545,0.756-1.049,1.113-1.512l4.324-5.313h2.268l-5.123,6.006
	l5.522,8.146h-2.163l-4.66-6.949l-1.344,1.553v5.396h-1.827V512.033z"/>
<path fill="#FFFFFF" d="M674.427,512.033v14.152h-1.826v-14.152H674.427z"/>
<path fill="#FFFFFF" d="M677.621,526.185v-14.152h1.994l4.535,7.16c1.05,1.658,1.869,3.15,2.541,4.598l0.041-0.02
	c-0.168-1.891-0.209-3.611-0.209-5.816v-5.922h1.721v14.152h-1.848l-4.492-7.182c-0.987-1.574-1.932-3.191-2.646-4.723l-0.063,0.02
	c0.105,1.785,0.146,3.486,0.146,5.838v6.047H677.621z"/>
<path fill="#FFFFFF" d="M702.209,525.554c-0.818,0.295-2.436,0.777-4.346,0.777c-2.142,0-3.905-0.545-5.291-1.869
	c-1.218-1.176-1.974-3.064-1.974-5.27c0.021-4.221,2.919-7.307,7.663-7.307c1.639,0,2.919,0.357,3.527,0.65l-0.44,1.492
	c-0.756-0.336-1.7-0.609-3.128-0.609c-3.443,0-5.69,2.141-5.69,5.689c0,3.59,2.163,5.711,5.459,5.711
	c1.196,0,2.016-0.168,2.436-0.377v-4.221h-2.876v-1.471h4.66V525.554z"/>
<path fill="#FFFFFF" d="M628.385,562.951c0.818,0.504,2.016,0.924,3.275,0.924c1.869,0,2.961-0.988,2.961-2.416
	c0-1.322-0.756-2.078-2.667-2.813c-2.31-0.818-3.737-2.016-3.737-4.01c0-2.205,1.826-3.844,4.577-3.844
	c1.448,0,2.499,0.336,3.128,0.693l-0.504,1.49c-0.461-0.252-1.406-0.672-2.688-0.672c-1.932,0-2.666,1.156-2.666,2.121
	c0,1.322,0.861,1.975,2.813,2.73c2.394,0.924,3.611,2.078,3.611,4.156c0,2.184-1.616,4.074-4.955,4.074
	c-1.364,0-2.855-0.4-3.611-0.904L628.385,562.951z"/>
<path fill="#FFFFFF" d="M640.816,551.025v8.377c0,3.17,1.406,4.514,3.297,4.514c2.1,0,3.443-1.385,3.443-4.514v-8.377h1.848v8.25
	c0,4.348-2.289,6.131-5.354,6.131c-2.897,0-5.081-1.658-5.081-6.047v-8.334H640.816z"/>
<path fill="#FFFFFF" d="M652.576,551.212c0.799-0.168,2.059-0.293,3.339-0.293c1.827,0,3.003,0.314,3.884,1.029
	c0.735,0.545,1.176,1.385,1.176,2.498c0,1.365-0.902,2.561-2.393,3.107v0.041c1.344,0.336,2.918,1.449,2.918,3.549
	c0,1.219-0.482,2.143-1.197,2.834c-0.986,0.904-2.582,1.324-4.892,1.324c-1.26,0-2.226-0.084-2.835-0.168V551.212z M654.403,557.007
	h1.659c1.932,0,3.064-1.008,3.064-2.371c0-1.66-1.26-2.311-3.107-2.311c-0.84,0-1.322,0.063-1.616,0.127V557.007z M654.403,563.791
	c0.356,0.063,0.882,0.084,1.532,0.084c1.891,0,3.633-0.693,3.633-2.752c0-1.932-1.658-2.729-3.653-2.729h-1.512V563.791z"/>
<path fill="#FFFFFF" d="M666.351,565.175l-3.59-14.15h1.932l1.68,7.158c0.42,1.764,0.798,3.527,1.05,4.893h0.042
	c0.23-1.406,0.672-3.086,1.154-4.912l1.891-7.139h1.91l1.722,7.18c0.399,1.68,0.776,3.359,0.987,4.85h0.041
	c0.295-1.553,0.693-3.127,1.135-4.891l1.868-7.139h1.868l-4.01,14.15h-1.91l-1.785-7.369c-0.441-1.807-0.734-3.191-0.924-4.619
	h-0.042c-0.252,1.406-0.567,2.793-1.092,4.619l-2.016,7.369H666.351z"/>
<path fill="#FFFFFF" d="M682.9,560.724l-1.471,4.451h-1.889l4.808-14.15h2.204l4.83,14.15h-1.953l-1.512-4.451H682.9z
	 M687.54,559.296l-1.386-4.072c-0.314-0.924-0.525-1.764-0.734-2.584h-0.043c-0.209,0.84-0.44,1.701-0.713,2.563l-1.387,4.094
	H687.54z"/>
<path fill="#FFFFFF" d="M694.953,565.175v-6.004l-4.472-8.146h2.079l1.994,3.904c0.546,1.07,0.966,1.932,1.406,2.918h0.043
	c0.398-0.924,0.881-1.848,1.428-2.918l2.036-3.904h2.079l-4.746,8.125v6.025H694.953z"/>
<path fill="#FFFFFF" d="M638.159,484.685c-0.672,0.336-2.016,0.672-3.737,0.672c-3.989,0-6.992-2.52-6.992-7.16
	c0-4.43,3.003-7.432,7.391-7.432c1.764,0,2.877,0.377,3.359,0.629l-0.44,1.49c-0.692-0.336-1.68-0.588-2.855-0.588
	c-3.317,0-5.522,2.121-5.522,5.838c0,3.465,1.995,5.689,5.438,5.689c1.112,0,2.247-0.23,2.981-0.588L638.159,484.685z"/>
<path fill="#FFFFFF" d="M642.822,480.695l-1.47,4.451h-1.89l4.809-14.15h2.204l4.829,14.15h-1.953l-1.512-4.451H642.822z
	 M647.463,479.267l-1.387-4.072c-0.314-0.924-0.524-1.764-0.734-2.582H645.3c-0.21,0.84-0.44,1.699-0.714,2.561l-1.386,4.094
	H647.463z"/>
<path fill="#FFFFFF" d="M653.134,482.921c0.819,0.504,2.016,0.924,3.275,0.924c1.868,0,2.96-0.986,2.96-2.414
	c0-1.324-0.756-2.08-2.666-2.814c-2.31-0.818-3.737-2.016-3.737-4.01c0-2.205,1.827-3.842,4.577-3.842
	c1.449,0,2.498,0.336,3.129,0.691l-0.504,1.492c-0.463-0.252-1.407-0.672-2.688-0.672c-1.932,0-2.667,1.154-2.667,2.119
	c0,1.324,0.86,1.975,2.813,2.73c2.394,0.924,3.611,2.078,3.611,4.156c0,2.184-1.617,4.074-4.955,4.074
	c-1.365,0-2.855-0.398-3.611-0.902L653.134,482.921z"/>
<path fill="#FFFFFF" d="M665.565,470.996v5.92h6.845v-5.92h1.848v14.15h-1.848v-6.635h-6.845v6.635h-1.827v-14.15H665.565z"/>
<path fill="#FFFFFF" d="M681.883,471.185c1.112-0.168,2.436-0.295,3.884-0.295c2.624,0,4.493,0.609,5.731,1.764
	c1.26,1.154,1.995,2.793,1.995,5.082c0,2.309-0.714,4.199-2.036,5.5c-1.323,1.322-3.507,2.037-6.258,2.037
	c-1.301,0-2.393-0.063-3.316-0.168V471.185z M683.709,483.699c0.462,0.084,1.134,0.104,1.848,0.104c3.905,0,6.025-2.184,6.025-6.004
	c0.021-3.338-1.868-5.459-5.731-5.459c-0.944,0-1.659,0.084-2.142,0.189V483.699z"/>
<path fill="#FFFFFF" d="M703.195,478.511h-5.5v5.104h6.131v1.531h-7.958v-14.15h7.643v1.533h-5.815V477h5.5V478.511z"/>
<path fill="#FFFFFF" d="M705.947,482.921c0.819,0.504,2.016,0.924,3.275,0.924c1.869,0,2.961-0.986,2.961-2.414
	c0-1.324-0.756-2.08-2.666-2.814c-2.311-0.818-3.738-2.016-3.738-4.01c0-2.205,1.827-3.842,4.578-3.842
	c1.448,0,2.498,0.336,3.128,0.691l-0.504,1.492c-0.462-0.252-1.407-0.672-2.688-0.672c-1.932,0-2.667,1.154-2.667,2.119
	c0,1.324,0.861,1.975,2.814,2.73c2.393,0.924,3.611,2.078,3.611,4.156c0,2.184-1.617,4.074-4.955,4.074
	c-1.365,0-2.855-0.398-3.611-0.902L705.947,482.921z"/>
<path fill="#FFFFFF" d="M716.552,470.996h1.826v6.824h0.063c0.378-0.547,0.756-1.051,1.112-1.512l4.326-5.313h2.268L721.025,477
	l5.521,8.146h-2.162l-4.662-6.949l-1.344,1.555v5.395h-1.826V470.996z"/>
<path fill="#FFFFFF" d="M584.084,512.269c0.938-0.156,2.164-0.291,3.726-0.291c1.919,0,3.324,0.447,4.217,1.25
	c0.825,0.713,1.315,1.807,1.315,3.145c0,1.361-0.401,2.432-1.16,3.213c-1.025,1.094-2.699,1.65-4.595,1.65
	c-0.58,0-1.116-0.021-1.562-0.133v6.023h-1.941V512.269z M586.025,519.519c0.424,0.111,0.959,0.156,1.605,0.156
	c2.343,0,3.771-1.139,3.771-3.213c0-1.984-1.405-2.945-3.547-2.945c-0.848,0-1.495,0.068-1.829,0.156V519.519z"/>
<path fill="#FFFFFF" d="M587.866,532.882c-7.929,0-14.38-6.451-14.38-14.381s6.451-14.381,14.38-14.381
	c7.93,0,14.381,6.451,14.381,14.381S595.796,532.882,587.866,532.882z M587.866,505.121c-7.378,0-13.38,6.004-13.38,13.381
	c0,7.379,6.002,13.381,13.38,13.381s13.381-6.002,13.381-13.381C601.247,511.125,595.244,505.121,587.866,505.121z"/>
<path fill="#FFFFFF" d="M592.621,558.917c-0.111-2.096-0.246-4.617-0.223-6.49h-0.068c-0.512,1.762-1.137,3.635-1.895,5.711
	l-2.656,7.295h-1.471l-2.432-7.162c-0.715-2.119-1.316-4.061-1.74-5.844h-0.045c-0.045,1.873-0.156,4.395-0.291,6.646l-0.4,6.447
	h-1.852l1.049-15.035h2.475l2.566,7.271c0.625,1.852,1.137,3.504,1.518,5.064h0.066c0.379-1.516,0.914-3.168,1.584-5.064
	l2.676-7.271h2.477l0.938,15.035H593L592.621,558.917z"/>
<path fill="#FFFFFF" d="M587.087,571.939c-7.929,0-14.38-6.449-14.38-14.379s6.451-14.381,14.38-14.381s14.38,6.451,14.38,14.381
	S595.015,571.939,587.087,571.939z M587.087,544.179c-7.378,0-13.38,6.004-13.38,13.381s6.002,13.379,13.38,13.379
	s13.38-6.002,13.38-13.379S594.465,544.179,587.087,544.179z"/>
<path fill="#FFFFFF" d="M583.27,472.371h1.941v7.25h0.066c0.401-0.58,0.803-1.115,1.183-1.605l4.596-5.645h2.409l-5.443,6.381
	l5.867,8.654h-2.298l-4.952-7.383l-1.428,1.65v5.732h-1.941V472.371z"/>
<path fill="#FFFFFF" d="M587.484,493.824c-7.93,0-14.38-6.451-14.38-14.381s6.45-14.381,14.38-14.381s14.38,6.451,14.38,14.381
	S595.414,493.824,587.484,493.824z M587.484,466.062c-7.378,0-13.38,6.004-13.38,13.381c0,7.379,6.002,13.381,13.38,13.381
	s13.38-6.002,13.38-13.381C600.864,472.066,594.862,466.062,587.484,466.062z"/>
</svg>
