<?xml version="1.0" encoding="utf-8"?>
<!-- Generator: Adobe Illustrator 16.0.0, SVG Export Plug-In . SVG Version: 6.00 Build 0)  -->
<!DOCTYPE svg PUBLIC "-//W3C//DTD SVG 1.1//EN" "http://www.w3.org/Graphics/SVG/1.1/DTD/svg11.dtd">
<svg version="1.1" id="Layer_1" xmlns="http://www.w3.org/2000/svg" xmlns:xlink="http://www.w3.org/1999/xlink" x="0px" y="0px"
	 width="841.891px" height="595.281px" viewBox="0 0 841.891 595.281" enable-background="new 0 0 841.891 595.281"
	 xml:space="preserve">
<g>
	<g>
		<path fill="#FFFFFF" d="M126.923,43.807l-1.471,4.451h-1.889l4.808-14.151h2.204l4.83,14.151h-1.953l-1.512-4.451H126.923z
			 M131.563,42.379l-1.386-4.073c-0.314-0.924-0.525-1.764-0.734-2.582H129.4c-0.209,0.84-0.44,1.7-0.713,2.561l-1.387,4.095
			H131.563z"/>
		<path fill="#FFFFFF" d="M137.486,34.296c0.924-0.189,2.247-0.295,3.507-0.295c1.952,0,3.212,0.357,4.095,1.155
			c0.713,0.63,1.112,1.596,1.112,2.688c0,1.868-1.176,3.107-2.667,3.611v0.063c1.092,0.377,1.743,1.385,2.079,2.855
			c0.462,1.973,0.798,3.338,1.092,3.884h-1.89c-0.23-0.399-0.546-1.616-0.945-3.38c-0.42-1.953-1.176-2.688-2.834-2.751h-1.722
			v6.131h-1.827V34.296z M139.313,40.741h1.868c1.953,0,3.191-1.07,3.191-2.688c0-1.826-1.322-2.625-3.254-2.646
			c-0.882,0-1.512,0.084-1.806,0.168V40.741z"/>
		<path fill="#FFFFFF" d="M151.66,35.66h-4.304v-1.554h10.477v1.554h-4.325v12.598h-1.848V35.66z"/>
		<path fill="#FFFFFF" d="M163.63,40.321v1.365h-5.186v-1.365H163.63z"/>
		<path fill="#FFFFFF" d="M164.891,47.187l7.853-11.484V35.64h-7.181v-1.533h9.554v1.113l-7.811,11.442v0.063h7.915v1.532h-10.33
			V47.187z"/>
		<path fill="#FFFFFF" d="M179.758,43.807l-1.47,4.451h-1.89l4.808-14.151h2.205l4.829,14.151h-1.952l-1.512-4.451H179.758z
			 M184.398,42.379l-1.385-4.073c-0.315-0.924-0.525-1.764-0.735-2.582h-0.042c-0.21,0.84-0.441,1.7-0.714,2.561l-1.386,4.095
			H184.398z"/>
		<path fill="#FFFFFF" d="M192.316,48.258l-4.619-14.151h1.974l2.204,6.971c0.609,1.91,1.135,3.633,1.512,5.291h0.043
			c0.398-1.638,0.986-3.422,1.616-5.27l2.394-6.992h1.953l-5.061,14.151H192.316z"/>
		<path fill="#FFFFFF" d="M213.02,41.035c0,4.871-2.96,7.454-6.571,7.454c-3.738,0-6.362-2.898-6.362-7.182
			c0-4.492,2.792-7.432,6.571-7.432C210.521,33.876,213.02,36.836,213.02,41.035z M202.038,41.267c0,3.023,1.639,5.731,4.515,5.731
			c2.897,0,4.535-2.667,4.535-5.879c0-2.813-1.47-5.753-4.515-5.753C203.55,35.366,202.038,38.159,202.038,41.267z"/>
		<path fill="#FFFFFF" d="M215.395,34.296c1.112-0.168,2.436-0.295,3.884-0.295c2.625,0,4.494,0.609,5.732,1.764
			c1.26,1.155,1.994,2.793,1.994,5.082c0,2.309-0.713,4.199-2.036,5.5c-1.323,1.323-3.507,2.037-6.257,2.037
			c-1.302,0-2.394-0.063-3.317-0.168V34.296z M217.222,46.81c0.461,0.084,1.133,0.104,1.848,0.104c3.904,0,6.025-2.184,6.025-6.005
			c0.021-3.338-1.869-5.459-5.732-5.459c-0.944,0-1.658,0.084-2.141,0.189V46.81z"/>
		<path fill="#FFFFFF" d="M233.832,34.274c0.882-0.146,2.036-0.273,3.507-0.273c1.805,0,3.128,0.42,3.968,1.176
			c0.776,0.672,1.239,1.701,1.239,2.961c0,1.281-0.379,2.289-1.092,3.023c-0.967,1.029-2.541,1.554-4.326,1.554
			c-0.545,0-1.049-0.021-1.469-0.126v5.669h-1.827V34.274z M235.659,41.099c0.398,0.104,0.902,0.146,1.512,0.146
			c2.204,0,3.548-1.07,3.548-3.023c0-1.869-1.323-2.771-3.339-2.771c-0.797,0-1.406,0.063-1.721,0.146V41.099z"/>
		<path fill="#FFFFFF" d="M245.004,34.106h1.827v12.619h6.047v1.532h-7.874V34.106z"/>
		<path fill="#FFFFFF" d="M257.204,43.807l-1.47,4.451h-1.89l4.809-14.151h2.204l4.829,14.151h-1.953l-1.512-4.451H257.204z
			 M261.845,42.379l-1.387-4.073c-0.314-0.924-0.524-1.764-0.734-2.582h-0.042c-0.21,0.84-0.44,1.7-0.714,2.561l-1.386,4.095
			H261.845z"/>
		<path fill="#FFFFFF" d="M268.839,35.66h-4.305v-1.554h10.477v1.554h-4.324v12.598h-1.848V35.66z"/>
		<path fill="#FFFFFF" d="M276.587,34.106h7.623v1.533h-5.795v4.703h5.354v1.512h-5.354v6.403h-1.828V34.106z"/>
		<path fill="#FFFFFF" d="M298.907,41.035c0,4.871-2.959,7.454-6.57,7.454c-3.738,0-6.363-2.898-6.363-7.182
			c0-4.492,2.793-7.432,6.572-7.432C296.409,33.876,298.907,36.836,298.907,41.035z M287.927,41.267
			c0,3.023,1.639,5.731,4.514,5.731c2.898,0,4.535-2.667,4.535-5.879c0-2.813-1.469-5.753-4.514-5.753
			C289.439,35.366,287.927,38.159,287.927,41.267z"/>
		<path fill="#FFFFFF" d="M301.282,34.296c0.924-0.189,2.248-0.295,3.508-0.295c1.951,0,3.211,0.357,4.094,1.155
			c0.713,0.63,1.113,1.596,1.113,2.688c0,1.868-1.176,3.107-2.668,3.611v0.063c1.092,0.377,1.744,1.385,2.08,2.855
			c0.461,1.973,0.797,3.338,1.092,3.884h-1.891c-0.23-0.399-0.545-1.616-0.945-3.38c-0.42-1.953-1.176-2.688-2.834-2.751h-1.721
			v6.131h-1.828V34.296z M303.111,40.741h1.867c1.953,0,3.191-1.07,3.191-2.688c0-1.826-1.322-2.625-3.254-2.646
			c-0.881,0-1.512,0.084-1.805,0.168V40.741z"/>
		<path fill="#FFFFFF" d="M324.507,42.043c-0.105-1.974-0.23-4.347-0.211-6.11h-0.063c-0.482,1.659-1.07,3.423-1.785,5.375
			l-2.498,6.866h-1.385l-2.289-6.739c-0.672-1.995-1.238-3.822-1.639-5.502h-0.041c-0.043,1.764-0.146,4.137-0.273,6.258
			l-0.377,6.067h-1.744l0.988-14.151h2.33l2.414,6.845c0.588,1.743,1.07,3.296,1.428,4.767h0.063
			c0.357-1.428,0.861-2.982,1.492-4.767l2.52-6.845h2.33l0.881,14.151h-1.783L324.507,42.043z"/>
		<path fill="#FFFFFF" d="M331.544,43.807l-1.471,4.451h-1.889l4.807-14.151h2.205l4.83,14.151h-1.953l-1.512-4.451H331.544z
			 M336.183,42.379l-1.385-4.073c-0.314-0.924-0.525-1.764-0.734-2.582h-0.043c-0.209,0.84-0.441,1.7-0.713,2.561l-1.387,4.095
			H336.183z"/>
	</g>
	<g>
		<path fill="#FFFFFF" d="M55.89,47.649c-0.211-3.956-0.463-8.711-0.421-12.246h-0.126c-0.969,3.324-2.146,6.859-3.578,10.773
			l-5.008,13.762H43.98L39.393,46.43c-1.347-3.998-2.483-7.66-3.282-11.026h-0.084c-0.084,3.535-0.295,8.29-0.547,12.541
			l-0.758,12.162h-3.493l1.978-28.364h4.672l4.84,13.719c1.178,3.493,2.146,6.607,2.861,9.554h0.126
			c0.716-2.862,1.726-5.977,2.988-9.554l5.05-13.719h4.672l1.768,28.364h-3.578L55.89,47.649z"/>
		<path fill="#FFFFFF" d="M69.984,51.185l-2.946,8.922h-3.788l9.638-28.364h4.419l9.679,28.364h-3.913l-3.03-8.922H69.984z
			 M79.283,48.323l-2.777-8.164c-0.632-1.853-1.052-3.535-1.474-5.177h-0.084c-0.42,1.684-0.883,3.409-1.431,5.134l-2.777,8.207
			H79.283z"/>
		<path fill="#FFFFFF" d="M91.148,32.079c1.768-0.295,4.082-0.548,7.028-0.548c3.619,0,6.271,0.842,7.954,2.357
			c1.557,1.347,2.482,3.408,2.482,5.934c0,2.567-0.758,4.587-2.188,6.06c-1.936,2.063-5.092,3.114-8.669,3.114
			c-1.094,0-2.104-0.042-2.945-0.252v11.362h-3.662V32.079z M94.81,45.756c0.799,0.21,1.809,0.295,3.029,0.295
			c4.419,0,7.112-2.146,7.112-6.061c0-3.745-2.651-5.555-6.691-5.555c-1.599,0-2.819,0.126-3.45,0.294V45.756z"/>
	</g>
	<g>
		<path fill="#FFFFFF" d="M105.583,465.877h-4.304v-1.553h10.477v1.553h-4.325v12.598h-1.848V465.877z"/>
		<path fill="#FFFFFF" d="M124.86,471.252c0,4.871-2.961,7.453-6.572,7.453c-3.736,0-6.361-2.896-6.361-7.18
			c0-4.494,2.793-7.434,6.572-7.434C122.362,464.092,124.86,467.053,124.86,471.252z M113.879,471.482
			c0,3.023,1.637,5.732,4.514,5.732c2.897,0,4.535-2.666,4.535-5.879c0-2.813-1.47-5.752-4.514-5.752
			C115.391,465.584,113.879,468.375,113.879,471.482z"/>
		<path fill="#FFFFFF" d="M129.061,464.324v14.15h-1.826v-14.15H129.061z"/>
		<path fill="#FFFFFF" d="M132.253,464.324h1.827v12.617h6.047v1.533h-7.874V464.324z"/>
		<path fill="#FFFFFF" d="M149.492,471.84h-5.5v5.102h6.131v1.533h-7.958v-14.15h7.643v1.531h-5.815v4.473h5.5V471.84z"/>
		<path fill="#FFFFFF" d="M155.52,465.877h-4.305v-1.553h10.478v1.553h-4.325v12.598h-1.848V465.877z"/>
		<path fill="#FFFFFF" d="M162.891,476.25c0.818,0.504,2.016,0.924,3.275,0.924c1.869,0,2.961-0.988,2.961-2.416
			c0-1.322-0.756-2.078-2.667-2.813c-2.31-0.818-3.737-2.016-3.737-4.01c0-2.205,1.826-3.844,4.577-3.844
			c1.448,0,2.499,0.336,3.128,0.693l-0.504,1.49c-0.461-0.252-1.406-0.672-2.688-0.672c-1.932,0-2.666,1.156-2.666,2.121
			c0,1.322,0.861,1.975,2.813,2.73c2.394,0.924,3.611,2.078,3.611,4.156c0,2.184-1.616,4.074-4.955,4.074
			c-1.364,0-2.855-0.4-3.611-0.904L162.891,476.25z"/>
	</g>
	<g>
		<path fill="#FFFFFF" d="M39.508,491.242l-6.666-26.275h3.587l3.118,13.293c0.78,3.275,1.481,6.551,1.949,9.084h0.078
			c0.429-2.611,1.248-5.73,2.145-9.123l3.509-13.254h3.548l3.196,13.332c0.741,3.119,1.443,6.238,1.833,9.006h0.078
			c0.546-2.885,1.286-5.809,2.104-9.084l3.47-13.254h3.471l-7.447,26.275h-3.547l-3.314-13.684
			c-0.818-3.354-1.364-5.926-1.715-8.576h-0.078c-0.468,2.611-1.053,5.184-2.027,8.576l-3.743,13.684H39.508z"/>
		<path fill="#FFFFFF" d="M86.172,490.385c-1.247,0.623-3.742,1.248-6.939,1.248c-7.407,0-12.982-4.678-12.982-13.295
			c0-8.227,5.575-13.801,13.724-13.801c3.274,0,5.341,0.701,6.237,1.17l-0.818,2.768c-1.287-0.623-3.119-1.092-5.303-1.092
			c-6.159,0-10.253,3.938-10.253,10.838c0,6.434,3.704,10.566,10.098,10.566c2.066,0,4.171-0.43,5.536-1.092L86.172,490.385z"/>
	</g>
	<g>
		<path fill="#FFFFFF" d="M348.998,477.982v-14.15h1.994l4.535,7.158c1.051,1.66,1.869,3.15,2.541,4.6l0.042-0.021
			c-0.168-1.891-0.21-3.611-0.21-5.816v-5.92h1.722v14.15h-1.848l-4.493-7.18c-0.986-1.576-1.932-3.191-2.646-4.725l-0.063,0.021
			c0.105,1.783,0.147,3.484,0.147,5.836v6.047H348.998z"/>
		<path fill="#FFFFFF" d="M364.117,463.832v8.377c0,3.17,1.406,4.514,3.296,4.514c2.1,0,3.443-1.385,3.443-4.514v-8.377h1.848v8.25
			c0,4.348-2.288,6.131-5.354,6.131c-2.896,0-5.08-1.658-5.08-6.047v-8.334H364.117z"/>
		<path fill="#FFFFFF" d="M376.928,473.531l-1.471,4.451h-1.889l4.808-14.15h2.204l4.83,14.15h-1.953l-1.512-4.451H376.928z
			 M381.568,472.104l-1.386-4.072c-0.314-0.924-0.525-1.764-0.734-2.584h-0.043c-0.209,0.84-0.44,1.701-0.713,2.563l-1.387,4.094
			H381.568z"/>
		<path fill="#FFFFFF" d="M386.965,464.02c0.924-0.188,2.246-0.293,3.506-0.293c1.953,0,3.213,0.357,4.095,1.154
			c0.714,0.631,1.112,1.596,1.112,2.688c0,1.869-1.176,3.107-2.666,3.611v0.063c1.092,0.379,1.742,1.387,2.078,2.855
			c0.463,1.975,0.799,3.34,1.092,3.885h-1.889c-0.231-0.398-0.547-1.617-0.945-3.381c-0.42-1.951-1.176-2.688-2.834-2.75h-1.723
			v6.131h-1.826V464.02z M388.791,470.467h1.869c1.953,0,3.191-1.072,3.191-2.688c0-1.828-1.322-2.625-3.254-2.646
			c-0.883,0-1.512,0.084-1.807,0.168V470.467z"/>
		<path fill="#FFFFFF" d="M405.067,471.348h-5.502v5.102h6.131v1.533h-7.957v-14.15h7.643v1.531h-5.816v4.473h5.502V471.348z"/>
		<path fill="#FFFFFF" d="M421.362,477.521c-0.672,0.336-2.016,0.672-3.738,0.672c-3.988,0-6.991-2.52-6.991-7.16
			c0-4.43,3.003-7.434,7.391-7.434c1.764,0,2.876,0.379,3.359,0.631l-0.44,1.49c-0.693-0.336-1.68-0.588-2.855-0.588
			c-3.318,0-5.522,2.121-5.522,5.838c0,3.463,1.995,5.689,5.438,5.689c1.112,0,2.246-0.23,2.98-0.588L421.362,477.521z"/>
		<path fill="#FFFFFF" d="M434.78,470.76c0,4.871-2.961,7.453-6.572,7.453c-3.736,0-6.361-2.896-6.361-7.18
			c0-4.494,2.793-7.434,6.572-7.434C432.281,463.6,434.78,466.561,434.78,470.76z M423.799,470.99c0,3.023,1.637,5.732,4.514,5.732
			c2.897,0,4.535-2.666,4.535-5.879c0-2.813-1.47-5.752-4.514-5.752C425.311,465.092,423.799,467.883,423.799,470.99z"/>
		<path fill="#FFFFFF" d="M436.629,463.832h7.621v1.531h-5.795v4.703h5.354v1.512h-5.354v6.404h-1.826V463.832z"/>
		<path fill="#FFFFFF" d="M446.331,463.832h7.622v1.531h-5.795v4.703h5.354v1.512h-5.354v6.404h-1.827V463.832z"/>
		<path fill="#FFFFFF" d="M463.36,471.348h-5.5v5.102h6.131v1.533h-7.958v-14.15h7.643v1.531h-5.815v4.473h5.5V471.348z"/>
		<path fill="#FFFFFF" d="M473.166,471.348h-5.5v5.102h6.131v1.533h-7.958v-14.15h7.643v1.531h-5.815v4.473h5.5V471.348z"/>
		<path fill="#FFFFFF" d="M489.463,477.521c-0.672,0.336-2.016,0.672-3.738,0.672c-3.988,0-6.991-2.52-6.991-7.16
			c0-4.43,3.003-7.434,7.391-7.434c1.764,0,2.876,0.379,3.359,0.631l-0.44,1.49c-0.693-0.336-1.68-0.588-2.855-0.588
			c-3.318,0-5.522,2.121-5.522,5.838c0,3.463,1.995,5.689,5.438,5.689c1.112,0,2.246-0.23,2.98-0.588L489.463,477.521z"/>
		<path fill="#FFFFFF" d="M498.557,471.348h-5.502v5.102h6.131v1.533h-7.957v-14.15h7.643v1.531h-5.816v4.473h5.502V471.348z"/>
		<path fill="#FFFFFF" d="M501.035,477.982v-14.15h1.994l4.535,7.158c1.051,1.66,1.869,3.15,2.541,4.6l0.042-0.021
			c-0.168-1.891-0.21-3.611-0.21-5.816v-5.92h1.722v14.15h-1.848l-4.493-7.18c-0.986-1.576-1.932-3.191-2.646-4.725l-0.063,0.021
			c0.105,1.783,0.147,3.484,0.147,5.836v6.047H501.035z"/>
		<path fill="#FFFFFF" d="M517.015,465.385h-4.304v-1.553h10.477v1.553h-4.325v12.598h-1.848V465.385z"/>
		<path fill="#FFFFFF" d="M531.567,471.348h-5.5v5.102h6.131v1.533h-7.958v-14.15h7.643v1.531h-5.815v4.473h5.5V471.348z"/>
		<path fill="#FFFFFF" d="M534.046,464.02c0.924-0.188,2.247-0.293,3.507-0.293c1.952,0,3.212,0.357,4.094,1.154
			c0.714,0.631,1.113,1.596,1.113,2.688c0,1.869-1.176,3.107-2.667,3.611v0.063c1.092,0.379,1.743,1.387,2.079,2.855
			c0.461,1.975,0.797,3.34,1.092,3.885h-1.891c-0.23-0.398-0.545-1.617-0.944-3.381c-0.42-1.951-1.176-2.688-2.835-2.75h-1.721
			v6.131h-1.827V464.02z M535.873,470.467h1.868c1.952,0,3.191-1.072,3.191-2.688c0-1.828-1.323-2.625-3.255-2.646
			c-0.881,0-1.512,0.084-1.805,0.168V470.467z"/>
		<path fill="#FFFFFF" d="M543.56,480.564c0.462-1.238,1.028-3.484,1.26-5.018l2.058-0.209c-0.482,1.783-1.406,4.115-1.994,5.102
			L543.56,480.564z"/>
		<path fill="#FFFFFF" d="M359.848,502.721c-0.672,0.336-2.016,0.672-3.736,0.672c-3.99,0-6.992-2.52-6.992-7.16
			c0-4.43,3.002-7.434,7.391-7.434c1.764,0,2.877,0.379,3.359,0.631l-0.441,1.49c-0.692-0.336-1.68-0.588-2.855-0.588
			c-3.316,0-5.521,2.121-5.521,5.838c0,3.463,1.994,5.689,5.438,5.689c1.113,0,2.247-0.23,2.982-0.588L359.848,502.721z"/>
		<path fill="#FFFFFF" d="M363.987,498.73l-1.471,4.451h-1.889l4.808-14.15h2.204l4.83,14.15h-1.953l-1.512-4.451H363.987z
			 M368.626,497.303l-1.386-4.072c-0.314-0.924-0.525-1.764-0.734-2.584h-0.043c-0.209,0.84-0.44,1.701-0.713,2.563l-1.387,4.094
			H368.626z"/>
		<path fill="#FFFFFF" d="M374.025,489.031h7.622v1.531h-5.795v4.703h5.354v1.512h-5.354v6.404h-1.827V489.031z"/>
		<path fill="#FFFFFF" d="M391.053,496.547h-5.5v5.102h6.131v1.533h-7.958v-14.15h7.643v1.531h-5.815v4.473h5.5V496.547z"/>
		<path fill="#FFFFFF" d="M397.46,489.219c0.798-0.168,2.058-0.293,3.339-0.293c1.826,0,3.002,0.314,3.884,1.029
			c0.735,0.545,1.176,1.385,1.176,2.498c0,1.365-0.903,2.561-2.394,3.107v0.041c1.344,0.336,2.918,1.449,2.918,3.549
			c0,1.219-0.482,2.143-1.196,2.834c-0.987,0.904-2.583,1.324-4.892,1.324c-1.26,0-2.227-0.084-2.835-0.168V489.219z
			 M399.287,495.014h1.658c1.932,0,3.065-1.008,3.065-2.371c0-1.66-1.26-2.311-3.107-2.311c-0.84,0-1.323,0.063-1.616,0.127V495.014
			z M399.287,501.797c0.356,0.063,0.881,0.084,1.532,0.084c1.89,0,3.632-0.693,3.632-2.752c0-1.932-1.658-2.729-3.652-2.729h-1.512
			V501.797z"/>
		<path fill="#FFFFFF" d="M408.317,489.031h1.826v12.617h6.047v1.533h-7.873V489.031z"/>
		<path fill="#FFFFFF" d="M419.992,498.73l-1.469,4.451h-1.891l4.809-14.15h2.205l4.828,14.15h-1.952l-1.512-4.451H419.992z
			 M424.633,497.303l-1.386-4.072c-0.315-0.924-0.524-1.764-0.735-2.584h-0.041c-0.211,0.84-0.441,1.701-0.715,2.563l-1.385,4.094
			H424.633z"/>
		<path fill="#FFFFFF" d="M439.604,502.721c-0.672,0.336-2.016,0.672-3.736,0.672c-3.99,0-6.992-2.52-6.992-7.16
			c0-4.43,3.002-7.434,7.391-7.434c1.764,0,2.877,0.379,3.359,0.631l-0.441,1.49c-0.692-0.336-1.68-0.588-2.855-0.588
			c-3.316,0-5.521,2.121-5.521,5.838c0,3.463,1.994,5.689,5.438,5.689c1.113,0,2.247-0.23,2.982-0.588L439.604,502.721z"/>
		<path fill="#FFFFFF" d="M441.37,489.031h1.827v6.822h0.063c0.378-0.545,0.756-1.049,1.113-1.512l4.324-5.311h2.268l-5.123,6.004
			l5.522,8.146h-2.163l-4.66-6.949l-1.344,1.553v5.396h-1.827V489.031z"/>
	</g>
	<g>
		<path fill="#FFFFFF" d="M307.873,465.313c1.481-0.311,3.82-0.545,6.199-0.545c3.392,0,5.574,0.584,7.212,1.91
			c1.364,1.014,2.184,2.572,2.184,4.639c0,2.535-1.677,4.756-4.444,5.77v0.078c2.495,0.625,5.419,2.691,5.419,6.59
			c0,2.26-0.896,3.977-2.223,5.262c-1.832,1.678-4.795,2.457-9.083,2.457c-2.34,0-4.133-0.156-5.264-0.313V465.313z
			 M311.265,476.072h3.08c3.587,0,5.692-1.871,5.692-4.404c0-3.08-2.34-4.289-5.771-4.289c-1.56,0-2.456,0.117-3.002,0.234V476.072z
			 M311.265,488.666c0.663,0.117,1.638,0.156,2.847,0.156c3.509,0,6.744-1.287,6.744-5.107c0-3.588-3.08-5.068-6.783-5.068h-2.808
			V488.666z"/>
	</g>
	<g>
		<path fill="#FFFFFF" d="M106.552,259.508h-5.502v5.102h6.131v1.533h-7.957v-14.151h7.643v1.532h-5.816v4.473h5.502V259.508z"/>
		<path fill="#FFFFFF" d="M112.852,266.143l-4.619-14.151h1.974l2.205,6.971c0.608,1.911,1.133,3.632,1.512,5.291h0.041
			c0.399-1.638,0.987-3.423,1.617-5.271l2.394-6.991h1.952l-5.06,14.151H112.852z"/>
		<path fill="#FFFFFF" d="M128.79,259.508h-5.502v5.102h6.131v1.533h-7.957v-14.151h7.643v1.532h-5.816v4.473h5.502V259.508z"/>
		<path fill="#FFFFFF" d="M131.794,266.143v-14.151h1.994l4.535,7.159c1.051,1.659,1.869,3.15,2.541,4.599l0.042-0.021
			c-0.168-1.891-0.21-3.611-0.21-5.816v-5.921h1.722v14.151h-1.848l-4.493-7.181c-0.986-1.575-1.932-3.191-2.646-4.724l-0.063,0.021
			c0.105,1.784,0.147,3.485,0.147,5.837v6.047H131.794z"/>
		<path fill="#FFFFFF" d="M148.299,253.545h-4.304v-1.554h10.477v1.554h-4.325v12.598h-1.848V253.545z"/>
		<path fill="#FFFFFF" d="M160.248,263.917c0.819,0.504,2.016,0.924,3.275,0.924c1.868,0,2.96-0.987,2.96-2.415
			c0-1.322-0.756-2.078-2.666-2.813c-2.31-0.819-3.737-2.016-3.737-4.011c0-2.204,1.827-3.843,4.577-3.843
			c1.449,0,2.498,0.336,3.129,0.693l-0.504,1.49c-0.463-0.252-1.407-0.672-2.688-0.672c-1.932,0-2.667,1.155-2.667,2.121
			c0,1.322,0.86,1.974,2.813,2.729c2.394,0.924,3.611,2.079,3.611,4.157c0,2.184-1.617,4.073-4.955,4.073
			c-1.365,0-2.855-0.399-3.611-0.903L160.248,263.917z"/>
		<path fill="#FFFFFF" d="M170.853,252.159c0.882-0.147,2.037-0.272,3.506-0.272c1.807,0,3.129,0.42,3.969,1.176
			c0.777,0.672,1.238,1.7,1.238,2.96c0,1.28-0.377,2.288-1.092,3.023c-0.965,1.028-2.54,1.554-4.324,1.554
			c-0.547,0-1.051-0.021-1.471-0.126v5.669h-1.826V252.159z M172.679,258.982c0.399,0.105,0.903,0.147,1.512,0.147
			c2.205,0,3.549-1.071,3.549-3.023c0-1.868-1.322-2.771-3.338-2.771c-0.799,0-1.407,0.063-1.723,0.147V258.982z"/>
		<path fill="#FFFFFF" d="M182.55,261.691l-1.471,4.451h-1.889l4.808-14.151h2.204l4.83,14.151h-1.953l-1.512-4.451H182.55z
			 M187.19,260.264l-1.386-4.073c-0.314-0.924-0.525-1.764-0.734-2.583h-0.043c-0.209,0.84-0.44,1.701-0.713,2.563l-1.387,4.094
			H187.19z"/>
		<path fill="#FFFFFF" d="M202.687,265.681c-0.672,0.336-2.016,0.672-3.738,0.672c-3.988,0-6.991-2.52-6.991-7.159
			c0-4.431,3.003-7.434,7.391-7.434c1.764,0,2.876,0.379,3.359,0.631l-0.44,1.49c-0.693-0.336-1.68-0.588-2.855-0.588
			c-3.318,0-5.522,2.121-5.522,5.837c0,3.464,1.995,5.69,5.438,5.69c1.112,0,2.246-0.231,2.98-0.588L202.687,265.681z"/>
		<path fill="#FFFFFF" d="M212.304,259.508h-5.5v5.102h6.131v1.533h-7.958v-14.151h7.643v1.532h-5.815v4.473h5.5V259.508z"/>
	</g>
	<g>
		<path fill="#FFFFFF" d="M36.746,274.51c0.975,0.624,3.235,1.599,5.614,1.599c4.405,0,5.77-2.808,5.73-4.912
			c-0.039-3.548-3.235-5.068-6.55-5.068h-1.91v-2.573h1.91c2.495,0,5.653-1.287,5.653-4.289c0-2.027-1.287-3.82-4.444-3.82
			c-2.027,0-3.977,0.896-5.068,1.677l-0.896-2.495c1.325-0.975,3.898-1.949,6.627-1.949c4.99,0,7.252,2.963,7.252,6.043
			c0,2.611-1.56,4.834-4.679,5.965v0.077c3.119,0.624,5.653,2.963,5.653,6.511c0,4.055-3.158,7.603-9.239,7.603
			c-2.847,0-5.342-0.896-6.589-1.715L36.746,274.51z"/>
		<path fill="#FFFFFF" d="M54.561,276.42c0-1.442,0.975-2.456,2.339-2.456c1.365,0,2.301,1.014,2.301,2.456
			c0,1.403-0.897,2.456-2.34,2.456C55.496,278.876,54.561,277.823,54.561,276.42z"/>
		<path fill="#FFFFFF" d="M68.635,256.303h-0.078l-4.405,2.379l-0.663-2.612l5.536-2.963h2.924v25.341h-3.313V256.303z"/>
	</g>
	<g>
		<path fill="#FFFFFF" d="M654.921,263.665c0.819,0.504,2.016,0.924,3.275,0.924c1.868,0,2.96-0.987,2.96-2.415
			c0-1.322-0.756-2.078-2.666-2.813c-2.31-0.819-3.737-2.016-3.737-4.011c0-2.204,1.827-3.843,4.577-3.843
			c1.449,0,2.498,0.336,3.129,0.693l-0.504,1.49c-0.463-0.252-1.407-0.672-2.688-0.672c-1.932,0-2.667,1.155-2.667,2.121
			c0,1.322,0.86,1.974,2.813,2.729c2.394,0.924,3.611,2.079,3.611,4.157c0,2.184-1.617,4.073-4.955,4.073
			c-1.365,0-2.855-0.399-3.611-0.903L654.921,263.665z"/>
		<path fill="#FFFFFF" d="M665.526,251.907c0.882-0.147,2.037-0.272,3.506-0.272c1.807,0,3.129,0.42,3.969,1.176
			c0.777,0.672,1.238,1.7,1.238,2.96c0,1.28-0.377,2.288-1.092,3.023c-0.965,1.028-2.54,1.554-4.324,1.554
			c-0.547,0-1.051-0.021-1.471-0.126v5.669h-1.826V251.907z M667.352,258.73c0.399,0.105,0.903,0.147,1.512,0.147
			c2.205,0,3.549-1.071,3.549-3.023c0-1.868-1.322-2.771-3.338-2.771c-0.799,0-1.407,0.063-1.723,0.147V258.73z"/>
		<path fill="#FFFFFF" d="M688.791,258.668c0,4.871-2.961,7.453-6.572,7.453c-3.736,0-6.361-2.896-6.361-7.18
			c0-4.494,2.793-7.434,6.572-7.434C686.293,251.508,688.791,254.469,688.791,258.668z M677.811,258.898
			c0,3.023,1.637,5.732,4.514,5.732c2.897,0,4.535-2.666,4.535-5.879c0-2.813-1.47-5.753-4.514-5.753
			C679.323,252.999,677.811,255.791,677.811,258.898z"/>
		<path fill="#FFFFFF" d="M691.166,251.928c0.924-0.188,2.246-0.293,3.506-0.293c1.953,0,3.213,0.356,4.095,1.154
			c0.714,0.63,1.112,1.596,1.112,2.688c0,1.869-1.176,3.107-2.666,3.611v0.063c1.092,0.379,1.742,1.387,2.078,2.855
			c0.463,1.975,0.799,3.339,1.092,3.885h-1.889c-0.231-0.398-0.547-1.617-0.945-3.381c-0.42-1.952-1.176-2.688-2.834-2.75h-1.723
			v6.131h-1.826V251.928z M692.992,258.374h1.869c1.953,0,3.191-1.071,3.191-2.688c0-1.827-1.322-2.624-3.254-2.646
			c-0.883,0-1.512,0.084-1.807,0.168V258.374z"/>
		<path fill="#FFFFFF" d="M705.34,253.293h-4.305v-1.554h10.478v1.554h-4.325v12.598h-1.848V253.293z"/>
		<path fill="#FFFFFF" d="M716.575,264.82l7.853-11.485v-0.063h-7.181v-1.532h9.554v1.112l-7.811,11.443v0.063h7.915v1.533h-10.33
			V264.82z"/>
		<path fill="#FFFFFF" d="M740.808,258.668c0,4.871-2.96,7.453-6.571,7.453c-3.738,0-6.362-2.896-6.362-7.18
			c0-4.494,2.792-7.434,6.571-7.434C738.309,251.508,740.808,254.469,740.808,258.668z M729.826,258.898
			c0,3.023,1.639,5.732,4.515,5.732c2.897,0,4.535-2.666,4.535-5.879c0-2.813-1.47-5.753-4.515-5.753
			C731.338,252.999,729.826,255.791,729.826,258.898z"/>
		<path fill="#FFFFFF" d="M743.183,265.891v-14.151h1.995l4.535,7.159c1.049,1.659,1.868,3.15,2.54,4.599l0.042-0.021
			c-0.168-1.891-0.21-3.611-0.21-5.816v-5.921h1.722v14.151h-1.848l-4.493-7.181c-0.987-1.575-1.932-3.191-2.646-4.724l-0.063,0.021
			c0.104,1.784,0.146,3.485,0.146,5.837v6.047H743.183z"/>
		<path fill="#FFFFFF" d="M764.328,259.256h-5.502v5.102h6.131v1.533H757v-14.151h7.643v1.532h-5.816v4.473h5.502V259.256z"/>
	</g>
	<g>
		<path fill="#FFFFFF" d="M604.403,256.306h-0.078l-4.405,2.379l-0.663-2.612l5.536-2.963h2.924v25.341h-3.313V256.306z"/>
		<path fill="#FFFFFF" d="M624.011,256.306h-0.078l-4.405,2.379l-0.663-2.612l5.536-2.963h2.924v25.341h-3.313V256.306z"/>
	</g>
	<g>
		<path fill="#FFFFFF" d="M348.646,255.164c0.882-0.146,2.037-0.273,3.506-0.273c1.807,0,3.129,0.42,3.969,1.176
			c0.777,0.672,1.238,1.701,1.238,2.961c0,1.281-0.377,2.289-1.092,3.023c-0.965,1.029-2.54,1.554-4.324,1.554
			c-0.547,0-1.051-0.021-1.471-0.126v5.669h-1.826V255.164z M350.472,261.988c0.399,0.104,0.903,0.146,1.512,0.146
			c2.205,0,3.549-1.07,3.549-3.023c0-1.869-1.322-2.771-3.338-2.771c-0.799,0-1.407,0.063-1.723,0.146V261.988z"/>
		<path fill="#FFFFFF" d="M361.644,254.996v14.151h-1.826v-14.151H361.644z"/>
		<path fill="#FFFFFF" d="M367.124,264.696l-1.469,4.451h-1.891l4.809-14.151h2.205l4.828,14.151h-1.952l-1.512-4.451H367.124z
			 M371.765,263.269l-1.386-4.073c-0.315-0.924-0.524-1.764-0.735-2.582h-0.041c-0.211,0.84-0.441,1.7-0.715,2.561l-1.385,4.095
			H371.765z"/>
		<path fill="#FFFFFF" d="M376.722,268.076l7.853-11.484v-0.063h-7.181v-1.533h9.553v1.113l-7.811,11.442v0.063h7.916v1.532h-10.33
			V268.076z"/>
		<path fill="#FFFFFF" d="M388.335,268.076l7.853-11.484v-0.063h-7.181v-1.533h9.553v1.113l-7.811,11.442v0.063h7.916v1.532h-10.33
			V268.076z"/>
		<path fill="#FFFFFF" d="M403.202,264.696l-1.469,4.451h-1.891l4.809-14.151h2.205l4.828,14.151h-1.952l-1.512-4.451H403.202z
			 M407.843,263.269l-1.386-4.073c-0.315-0.924-0.524-1.764-0.735-2.582h-0.041c-0.211,0.84-0.441,1.7-0.715,2.561l-1.385,4.095
			H407.843z"/>
		<path fill="#FFFFFF" d="M420.044,254.996v14.151h-1.826v-14.151H420.044z"/>
	</g>
	<g>
		<path fill="#FFFFFF" d="M321.695,255.528c-0.701-0.039-1.598,0-2.572,0.156c-5.381,0.896-8.227,4.834-8.812,9.006h0.117
			c1.209-1.599,3.313-2.925,6.121-2.925c4.483,0,7.642,3.236,7.642,8.188c0,4.64-3.158,8.928-8.422,8.928
			c-5.419,0-8.967-4.21-8.967-10.799c0-4.99,1.794-8.928,4.289-11.423c2.105-2.066,4.912-3.354,8.109-3.743
			c1.013-0.156,1.871-0.194,2.494-0.194V255.528z M320.72,270.148c0-3.626-2.065-5.81-5.224-5.81c-2.066,0-3.977,1.287-4.912,3.119
			c-0.234,0.39-0.39,0.896-0.39,1.521c0.077,4.172,1.988,7.251,5.574,7.251C318.732,276.229,320.72,273.773,320.72,270.148z"/>
	</g>
	<g>
		<path fill="#FFFFFF" d="M101.513,318.758l-1.471,4.451h-1.889l4.808-14.151h2.204l4.83,14.151h-1.953l-1.512-4.451H101.513z
			 M106.153,317.33l-1.386-4.073c-0.314-0.924-0.525-1.764-0.734-2.582h-0.043c-0.209,0.84-0.44,1.7-0.713,2.561l-1.387,4.095
			H106.153z"/>
		<path fill="#FFFFFF" d="M112.075,309.247c0.924-0.189,2.246-0.295,3.506-0.295c1.953,0,3.213,0.357,4.095,1.155
			c0.714,0.63,1.112,1.596,1.112,2.688c0,1.868-1.176,3.107-2.666,3.611v0.063c1.092,0.377,1.742,1.385,2.078,2.855
			c0.463,1.973,0.799,3.338,1.092,3.884h-1.889c-0.231-0.399-0.547-1.616-0.945-3.38c-0.42-1.953-1.176-2.688-2.834-2.751h-1.723
			v6.131h-1.826V309.247z M113.902,315.692h1.869c1.953,0,3.191-1.07,3.191-2.688c0-1.826-1.322-2.625-3.254-2.646
			c-0.883,0-1.512,0.084-1.807,0.168V315.692z"/>
		<path fill="#FFFFFF" d="M126.249,310.611h-4.305v-1.554h10.478v1.554h-4.325v12.598h-1.848V310.611z"/>
		<path fill="#FFFFFF" d="M138.198,320.983c0.818,0.504,2.016,0.924,3.275,0.924c1.869,0,2.961-0.986,2.961-2.414
			c0-1.323-0.756-2.079-2.667-2.814c-2.31-0.818-3.737-2.016-3.737-4.01c0-2.205,1.826-3.842,4.577-3.842
			c1.448,0,2.499,0.336,3.128,0.692l-0.504,1.491c-0.461-0.252-1.406-0.672-2.688-0.672c-1.932,0-2.666,1.154-2.666,2.12
			c0,1.323,0.861,1.974,2.813,2.729c2.394,0.924,3.611,2.078,3.611,4.157c0,2.184-1.616,4.073-4.955,4.073
			c-1.364,0-2.855-0.398-3.611-0.902L138.198,320.983z"/>
		<path fill="#FFFFFF" d="M148.803,309.226c0.882-0.146,2.036-0.273,3.507-0.273c1.805,0,3.128,0.42,3.968,1.176
			c0.776,0.672,1.239,1.701,1.239,2.961c0,1.281-0.379,2.289-1.092,3.023c-0.967,1.029-2.541,1.554-4.326,1.554
			c-0.545,0-1.049-0.021-1.469-0.126v5.669h-1.827V309.226z M150.63,316.05c0.398,0.104,0.902,0.146,1.512,0.146
			c2.204,0,3.548-1.07,3.548-3.023c0-1.869-1.323-2.771-3.339-2.771c-0.797,0-1.406,0.063-1.721,0.146V316.05z"/>
		<path fill="#FFFFFF" d="M160.499,318.758l-1.469,4.451h-1.891l4.809-14.151h2.205l4.828,14.151h-1.952l-1.512-4.451H160.499z
			 M165.14,317.33l-1.386-4.073c-0.315-0.924-0.524-1.764-0.735-2.582h-0.041c-0.211,0.84-0.441,1.7-0.715,2.561l-1.385,4.095
			H165.14z"/>
		<path fill="#FFFFFF" d="M180.636,322.747c-0.672,0.336-2.016,0.672-3.736,0.672c-3.99,0-6.992-2.52-6.992-7.16
			c0-4.43,3.002-7.432,7.391-7.432c1.764,0,2.877,0.377,3.359,0.629l-0.441,1.491c-0.692-0.336-1.68-0.588-2.855-0.588
			c-3.316,0-5.521,2.12-5.521,5.837c0,3.465,1.994,5.689,5.438,5.689c1.113,0,2.247-0.23,2.982-0.588L180.636,322.747z"/>
		<path fill="#FFFFFF" d="M190.255,316.574h-5.502v5.103h6.131v1.532h-7.957v-14.151h7.643v1.533h-5.816v4.472h5.502V316.574z"/>
	</g>
	<g>
		<path fill="#FFFFFF" d="M37.528,331.759c0.975,0.624,3.235,1.599,5.614,1.599c4.405,0,5.77-2.808,5.73-4.912
			c-0.039-3.548-3.235-5.068-6.55-5.068h-1.91v-2.573h1.91c2.495,0,5.653-1.287,5.653-4.289c0-2.027-1.287-3.82-4.444-3.82
			c-2.027,0-3.977,0.896-5.068,1.677l-0.896-2.495c1.325-0.975,3.898-1.949,6.627-1.949c4.99,0,7.252,2.963,7.252,6.043
			c0,2.611-1.56,4.834-4.679,5.965v0.077c3.119,0.624,5.653,2.963,5.653,6.511c0,4.055-3.158,7.603-9.239,7.603
			c-2.847,0-5.342-0.896-6.589-1.715L37.528,331.759z"/>
		<path fill="#FFFFFF" d="M53.783,333.669c0-1.442,0.975-2.456,2.339-2.456c1.365,0,2.301,1.014,2.301,2.456
			c0,1.403-0.897,2.456-2.34,2.456C54.719,336.125,53.783,335.072,53.783,333.669z"/>
		<path fill="#FFFFFF" d="M60.409,335.696v-2.105l2.69-2.612c6.472-6.159,9.396-9.435,9.435-13.255c0-2.573-1.247-4.951-5.029-4.951
			c-2.3,0-4.21,1.17-5.38,2.145l-1.092-2.418c1.755-1.481,4.25-2.572,7.174-2.572c5.458,0,7.758,3.742,7.758,7.368
			c0,4.679-3.392,8.46-8.732,13.606l-2.027,1.871v0.078h11.384v2.846H60.409z"/>
	</g>
	<g>
		<path fill="#FFFFFF" d="M657.826,318.962l-1.469,4.451h-1.891l4.809-14.151h2.205l4.828,14.151h-1.952l-1.512-4.451H657.826z
			 M662.467,317.534l-1.386-4.073c-0.315-0.924-0.524-1.764-0.735-2.583h-0.041c-0.211,0.84-0.441,1.701-0.715,2.563l-1.385,4.094
			H662.467z"/>
		<path fill="#FFFFFF" d="M668.39,309.45c1.112-0.168,2.436-0.293,3.884-0.293c2.625,0,4.494,0.608,5.732,1.764
			c1.26,1.154,1.994,2.792,1.994,5.08c0,2.311-0.713,4.199-2.036,5.502c-1.323,1.322-3.507,2.036-6.257,2.036
			c-1.302,0-2.394-0.063-3.317-0.168V309.45z M670.217,321.964c0.461,0.084,1.133,0.105,1.848,0.105
			c3.904,0,6.025-2.184,6.025-6.005c0.021-3.339-1.869-5.459-5.732-5.459c-0.944,0-1.658,0.084-2.141,0.188V321.964z"/>
		<path fill="#FFFFFF" d="M694.301,317.198c-0.105-1.974-0.23-4.346-0.21-6.109h-0.063c-0.482,1.658-1.07,3.422-1.784,5.375
			l-2.499,6.865h-1.385l-2.289-6.74c-0.672-1.994-1.238-3.82-1.638-5.5h-0.042c-0.042,1.764-0.146,4.136-0.273,6.256l-0.377,6.068
			h-1.743l0.987-14.151h2.33l2.414,6.845c0.588,1.742,1.071,3.297,1.428,4.766h0.063c0.356-1.428,0.86-2.98,1.491-4.766l2.52-6.845
			h2.33l0.882,14.151h-1.784L694.301,317.198z"/>
		<path fill="#FFFFFF" d="M701.086,309.262v14.151h-1.827v-14.151H701.086z"/>
		<path fill="#FFFFFF" d="M704.278,323.413v-14.151h1.994l4.535,7.159c1.051,1.659,1.869,3.15,2.541,4.599l0.042-0.021
			c-0.168-1.891-0.21-3.611-0.21-5.816v-5.921h1.722v14.151h-1.848l-4.493-7.181c-0.986-1.575-1.932-3.191-2.646-4.724l-0.063,0.021
			c0.105,1.784,0.147,3.485,0.147,5.837v6.047H704.278z"/>
		<path fill="#FFFFFF" d="M719.922,309.262v14.151h-1.827v-14.151H719.922z"/>
		<path fill="#FFFFFF" d="M722.862,321.188c0.818,0.504,2.016,0.924,3.275,0.924c1.869,0,2.961-0.987,2.961-2.415
			c0-1.322-0.756-2.078-2.667-2.813c-2.31-0.819-3.737-2.016-3.737-4.011c0-2.204,1.826-3.843,4.577-3.843
			c1.448,0,2.499,0.336,3.128,0.693l-0.504,1.49c-0.461-0.252-1.406-0.672-2.688-0.672c-1.932,0-2.666,1.155-2.666,2.121
			c0,1.322,0.861,1.974,2.813,2.729c2.394,0.924,3.611,2.079,3.611,4.157c0,2.184-1.616,4.073-4.955,4.073
			c-1.364,0-2.855-0.399-3.611-0.903L722.862,321.188z"/>
		<path fill="#FFFFFF" d="M736.154,310.815h-4.304v-1.554h10.477v1.554h-4.325v12.598h-1.848V310.815z"/>
		<path fill="#FFFFFF" d="M743.903,309.45c0.924-0.188,2.246-0.293,3.506-0.293c1.953,0,3.213,0.356,4.095,1.154
			c0.714,0.63,1.112,1.596,1.112,2.688c0,1.869-1.176,3.107-2.666,3.611v0.063c1.092,0.379,1.742,1.387,2.078,2.855
			c0.463,1.975,0.799,3.339,1.092,3.885h-1.889c-0.231-0.398-0.547-1.617-0.945-3.381c-0.42-1.952-1.176-2.688-2.834-2.75h-1.723
			v6.131h-1.826V309.45z M745.729,315.896h1.869c1.953,0,3.191-1.071,3.191-2.688c0-1.827-1.322-2.624-3.254-2.646
			c-0.883,0-1.512,0.084-1.807,0.168V315.896z"/>
		<path fill="#FFFFFF" d="M757.594,318.962l-1.471,4.451h-1.889l4.808-14.151h2.204l4.83,14.151h-1.953l-1.512-4.451H757.594z
			 M762.234,317.534l-1.386-4.073c-0.314-0.924-0.525-1.764-0.734-2.583h-0.043c-0.209,0.84-0.44,1.701-0.713,2.563l-1.387,4.094
			H762.234z"/>
		<path fill="#FFFFFF" d="M769.228,310.815h-4.304v-1.554h10.477v1.554h-4.325v12.598h-1.848V310.815z"/>
		<path fill="#FFFFFF" d="M778.803,309.262v14.151h-1.826v-14.151H778.803z"/>
		<path fill="#FFFFFF" d="M794.089,316.19c0,4.871-2.96,7.453-6.571,7.453c-3.738,0-6.362-2.896-6.362-7.18
			c0-4.494,2.792-7.434,6.571-7.434C791.59,309.03,794.089,311.991,794.089,316.19z M783.108,316.421
			c0,3.023,1.639,5.732,4.515,5.732c2.897,0,4.535-2.666,4.535-5.879c0-2.813-1.47-5.753-4.515-5.753
			C784.619,310.521,783.108,313.313,783.108,316.421z"/>
		<path fill="#FFFFFF" d="M796.464,323.413v-14.151h1.995l4.535,7.159c1.049,1.659,1.868,3.15,2.54,4.599l0.042-0.021
			c-0.168-1.891-0.21-3.611-0.21-5.816v-5.921h1.722v14.151h-1.848l-4.493-7.181c-0.987-1.575-1.932-3.191-2.646-4.724l-0.063,0.021
			c0.104,1.784,0.146,3.485,0.146,5.837v6.047H796.464z"/>
	</g>
	<g>
		<path fill="#FFFFFF" d="M604.405,313.553h-0.078l-4.405,2.379l-0.663-2.612l5.536-2.963h2.924v25.341h-3.313V313.553z"/>
		<path fill="#FFFFFF" d="M616.566,335.697v-2.105l2.69-2.612c6.472-6.159,9.396-9.435,9.435-13.255
			c0-2.573-1.247-4.951-5.029-4.951c-2.3,0-4.21,1.17-5.38,2.145l-1.092-2.418c1.755-1.481,4.25-2.572,7.174-2.572
			c5.458,0,7.758,3.742,7.758,7.368c0,4.679-3.392,8.46-8.732,13.606l-2.027,1.871v0.078h11.384v2.846H616.566z"/>
	</g>
	<g>
		<path fill="#FFFFFF" d="M348.999,312.443c0.882-0.146,2.037-0.271,3.506-0.271c1.807,0,3.129,0.42,3.969,1.176
			c0.777,0.672,1.238,1.699,1.238,2.959c0,1.281-0.377,2.289-1.092,3.023c-0.965,1.029-2.54,1.555-4.324,1.555
			c-0.547,0-1.051-0.021-1.471-0.127v5.67h-1.826V312.443z M350.825,319.268c0.399,0.105,0.903,0.146,1.512,0.146
			c2.205,0,3.549-1.07,3.549-3.023c0-1.867-1.322-2.771-3.338-2.771c-0.799,0-1.407,0.064-1.723,0.148V319.268z"/>
		<path fill="#FFFFFF" d="M361.997,312.275v14.152h-1.826v-14.152H361.997z"/>
		<path fill="#FFFFFF" d="M367.478,321.977l-1.469,4.451h-1.891l4.809-14.152h2.205l4.828,14.152h-1.952l-1.512-4.451H367.478z
			 M372.118,320.549l-1.386-4.074c-0.315-0.924-0.524-1.764-0.735-2.582h-0.041c-0.211,0.84-0.441,1.701-0.715,2.563l-1.385,4.094
			H372.118z"/>
		<path fill="#FFFFFF" d="M377.075,325.357l7.853-11.486v-0.063h-7.181v-1.533h9.553v1.113l-7.811,11.443v0.063h7.916v1.533h-10.33
			V325.357z"/>
		<path fill="#FFFFFF" d="M388.689,325.357l7.853-11.486v-0.063h-7.181v-1.533h9.553v1.113l-7.811,11.443v0.063h7.916v1.533h-10.33
			V325.357z"/>
		<path fill="#FFFFFF" d="M403.556,321.977l-1.469,4.451h-1.891l4.809-14.152h2.205l4.828,14.152h-1.952l-1.512-4.451H403.556z
			 M408.197,320.549l-1.386-4.074c-0.315-0.924-0.524-1.764-0.735-2.582h-0.041c-0.211,0.84-0.441,1.701-0.715,2.563l-1.385,4.094
			H408.197z"/>
		<path fill="#FFFFFF" d="M420.398,312.275v14.152h-1.826v-14.152H420.398z"/>
		<path fill="#FFFFFF" d="M425.417,312.275v14.152h-1.827v-14.152H425.417z"/>
	</g>
	<g>
		<path fill="#FFFFFF" d="M323.686,310.359v2.26l-11.033,23.08h-3.548l10.994-22.416v-0.078h-12.397v-2.846H323.686z"/>
	</g>
	<g>
		<path fill="#FFFFFF" d="M99.224,132.406h1.826v12.619h6.047v1.532h-7.873V132.406z"/>
		<path fill="#FFFFFF" d="M120.411,139.335c0,4.871-2.961,7.454-6.572,7.454c-3.736,0-6.361-2.898-6.361-7.182
			c0-4.492,2.793-7.432,6.572-7.432C117.913,132.176,120.411,135.136,120.411,139.335z M109.431,139.566
			c0,3.023,1.637,5.731,4.514,5.731c2.897,0,4.535-2.667,4.535-5.879c0-2.813-1.47-5.753-4.514-5.753
			C110.943,133.666,109.431,136.459,109.431,139.566z"/>
		<path fill="#FFFFFF" d="M122.786,132.406h7.621v1.533h-5.795v4.703h5.354v1.512h-5.354v6.403h-1.826V132.406z"/>
		<path fill="#FFFFFF" d="M135.7,133.96h-4.305v-1.554h10.478v1.554h-4.325v12.598H135.7V133.96z"/>
	</g>
	<g>
		<path fill="#FFFFFF" d="M56.004,136.803h-0.078l-4.405,2.379l-0.663-2.612l5.536-2.963h2.924v25.341h-3.313V136.803z"/>
	</g>
	<g>
		<path fill="#FFFFFF" d="M663.367,149.038c-0.818,0.294-2.436,0.777-4.346,0.777c-2.142,0-3.905-0.547-5.291-1.869
			c-1.218-1.176-1.974-3.065-1.974-5.27c0.021-4.221,2.919-7.307,7.663-7.307c1.639,0,2.919,0.356,3.527,0.65l-0.44,1.49
			c-0.756-0.336-1.7-0.608-3.128-0.608c-3.443,0-5.69,2.142-5.69,5.69c0,3.59,2.163,5.711,5.459,5.711
			c1.196,0,2.016-0.168,2.436-0.379v-4.22h-2.876v-1.47h4.66V149.038z"/>
		<path fill="#FFFFFF" d="M666.162,135.706c0.924-0.189,2.246-0.295,3.506-0.295c1.953,0,3.213,0.357,4.095,1.155
			c0.714,0.63,1.112,1.596,1.112,2.688c0,1.868-1.176,3.107-2.666,3.611v0.063c1.092,0.377,1.742,1.385,2.078,2.855
			c0.463,1.973,0.799,3.338,1.092,3.884h-1.889c-0.231-0.399-0.547-1.616-0.945-3.38c-0.42-1.953-1.176-2.688-2.834-2.751h-1.723
			v6.131h-1.826V135.706z M667.989,142.151h1.869c1.953,0,3.191-1.07,3.191-2.688c0-1.826-1.322-2.625-3.254-2.646
			c-0.883,0-1.512,0.084-1.807,0.168V142.151z"/>
		<path fill="#FFFFFF" d="M684.787,143.033h-5.5v5.103h6.131v1.532h-7.958v-14.151h7.643v1.533h-5.815v4.472h5.5V143.033z"/>
		<path fill="#FFFFFF" d="M695.119,143.033h-5.5v5.103h6.131v1.532h-7.958v-14.151h7.643v1.533h-5.815v4.472h5.5V143.033z"/>
		<path fill="#FFFFFF" d="M698.124,149.668v-14.151h1.995l4.535,7.16c1.049,1.658,1.868,3.148,2.54,4.598l0.042-0.021
			c-0.168-1.889-0.21-3.611-0.21-5.815v-5.921h1.722v14.151h-1.848l-4.493-7.181c-0.987-1.574-1.932-3.191-2.646-4.725l-0.063,0.021
			c0.104,1.785,0.146,3.485,0.146,5.837v6.047H698.124z"/>
		<path fill="#FFFFFF" d="M715.428,148.597l7.853-11.484v-0.063H716.1v-1.533h9.553v1.113l-7.811,11.442v0.063h7.916v1.532h-10.33
			V148.597z"/>
		<path fill="#FFFFFF" d="M739.66,142.445c0,4.871-2.961,7.454-6.572,7.454c-3.736,0-6.361-2.898-6.361-7.182
			c0-4.492,2.793-7.432,6.572-7.432C737.162,135.286,739.66,138.246,739.66,142.445z M728.68,142.677
			c0,3.023,1.637,5.731,4.514,5.731c2.897,0,4.535-2.667,4.535-5.879c0-2.813-1.47-5.753-4.514-5.753
			C730.192,136.776,728.68,139.569,728.68,142.677z"/>
		<path fill="#FFFFFF" d="M742.035,149.668v-14.151h1.994l4.535,7.16c1.051,1.658,1.869,3.148,2.541,4.598l0.042-0.021
			c-0.168-1.889-0.21-3.611-0.21-5.815v-5.921h1.722v14.151h-1.848l-4.493-7.181c-0.986-1.574-1.932-3.191-2.646-4.725l-0.063,0.021
			c0.105,1.785,0.147,3.485,0.147,5.837v6.047H742.035z"/>
		<path fill="#FFFFFF" d="M763.18,143.033h-5.502v5.103h6.131v1.532h-7.957v-14.151h7.643v1.533h-5.816v4.472h5.502V143.033z"/>
	</g>
	<g>
		<path fill="#FFFFFF" d="M608.751,156.532c0.74,0.078,1.598,0,2.768-0.117c1.988-0.272,3.859-1.092,5.302-2.456
			c1.677-1.521,2.886-3.742,3.354-6.744h-0.117c-1.403,1.715-3.431,2.729-5.965,2.729c-4.562,0-7.485-3.431-7.485-7.758
			c0-4.796,3.47-9.006,8.654-9.006c5.186,0,8.383,4.21,8.383,10.682c0,5.575-1.872,9.474-4.367,11.891
			c-1.949,1.911-4.639,3.08-7.368,3.393c-1.247,0.194-2.339,0.233-3.157,0.194V156.532z M609.998,141.951
			c0,3.158,1.91,5.38,4.873,5.38c2.301,0,4.094-1.13,4.99-2.65c0.195-0.313,0.313-0.702,0.313-1.248
			c0-4.327-1.599-7.642-5.186-7.642C612.065,135.791,609.998,138.364,609.998,141.951z"/>
	</g>
	<g>
		<path fill="#FFFFFF" d="M347.351,135.597h7.621v1.533h-5.795v4.703h5.354v1.512h-5.354v6.403h-1.826V135.597z"/>
		<path fill="#FFFFFF" d="M369.671,142.526c0,4.871-2.961,7.454-6.572,7.454c-3.736,0-6.361-2.898-6.361-7.182
			c0-4.492,2.793-7.432,6.572-7.432C367.173,135.367,369.671,138.327,369.671,142.526z M358.691,142.757
			c0,3.023,1.637,5.731,4.514,5.731c2.897,0,4.535-2.667,4.535-5.879c0-2.813-1.47-5.753-4.514-5.753
			C360.202,136.857,358.691,139.65,358.691,142.757z"/>
		<path fill="#FFFFFF" d="M384.14,142.526c0,4.871-2.961,7.454-6.572,7.454c-3.736,0-6.361-2.898-6.361-7.182
			c0-4.492,2.793-7.432,6.572-7.432C381.642,135.367,384.14,138.327,384.14,142.526z M373.159,142.757
			c0,3.023,1.637,5.731,4.514,5.731c2.897,0,4.535-2.667,4.535-5.879c0-2.813-1.47-5.753-4.514-5.753
			C374.671,136.857,373.159,139.65,373.159,142.757z"/>
		<path fill="#FFFFFF" d="M386.515,135.787c1.113-0.168,2.436-0.295,3.885-0.295c2.624,0,4.492,0.609,5.731,1.764
			c1.26,1.155,1.995,2.793,1.995,5.082c0,2.309-0.715,4.199-2.037,5.5c-1.322,1.323-3.506,2.037-6.257,2.037
			c-1.302,0-2.394-0.063-3.317-0.168V135.787z M388.341,148.3c0.463,0.084,1.135,0.104,1.848,0.104c3.906,0,6.026-2.184,6.026-6.005
			c0.021-3.338-1.868-5.459-5.731-5.459c-0.945,0-1.659,0.084-2.143,0.189V148.3z"/>
		<path fill="#FFFFFF" d="M414.841,149.287c-0.672,0.336-2.016,0.672-3.736,0.672c-3.99,0-6.992-2.52-6.992-7.16
			c0-4.43,3.002-7.432,7.391-7.432c1.764,0,2.877,0.377,3.359,0.629l-0.441,1.491c-0.692-0.336-1.68-0.588-2.855-0.588
			c-3.316,0-5.521,2.12-5.521,5.837c0,3.465,1.994,5.689,5.438,5.689c1.113,0,2.247-0.23,2.982-0.588L414.841,149.287z"/>
		<path fill="#FFFFFF" d="M428.784,142.526c0,4.871-2.961,7.454-6.572,7.454c-3.736,0-6.361-2.898-6.361-7.182
			c0-4.492,2.793-7.432,6.572-7.432C426.286,135.367,428.784,138.327,428.784,142.526z M417.804,142.757
			c0,3.023,1.637,5.731,4.514,5.731c2.897,0,4.535-2.667,4.535-5.879c0-2.813-1.47-5.753-4.514-5.753
			C419.316,136.857,417.804,139.65,417.804,142.757z"/>
		<path fill="#FFFFFF" d="M432.986,135.597v8.377c0,3.171,1.407,4.515,3.297,4.515c2.1,0,3.443-1.386,3.443-4.515v-8.377h1.848
			v8.252c0,4.346-2.289,6.131-5.354,6.131c-2.898,0-5.082-1.659-5.082-6.047v-8.336H432.986z"/>
		<path fill="#FFFFFF" d="M444.747,135.787c0.924-0.189,2.246-0.295,3.506-0.295c1.953,0,3.213,0.357,4.095,1.155
			c0.714,0.63,1.112,1.596,1.112,2.688c0,1.868-1.176,3.107-2.666,3.611v0.063c1.092,0.377,1.742,1.385,2.078,2.855
			c0.463,1.973,0.799,3.338,1.092,3.884h-1.889c-0.231-0.399-0.547-1.616-0.945-3.38c-0.42-1.953-1.176-2.688-2.834-2.751h-1.723
			v6.131h-1.826V135.787z M446.573,142.232h1.869c1.953,0,3.191-1.07,3.191-2.688c0-1.826-1.322-2.625-3.254-2.646
			c-0.883,0-1.512,0.084-1.807,0.168V142.232z"/>
		<path fill="#FFFFFF" d="M458.921,137.151h-4.305v-1.554h10.478v1.554h-4.325v12.598h-1.848V137.151z"/>
	</g>
	<g>
		<path fill="#FFFFFF" d="M317.837,158.946v-6.9h-11.773v-2.262l11.306-16.179h3.704v15.75h3.548v2.69h-3.548v6.9H317.837z
			 M317.837,149.355v-8.46c0-1.325,0.039-2.651,0.117-3.977h-0.117c-0.779,1.481-1.403,2.573-2.105,3.743l-6.198,8.615v0.078
			H317.837z"/>
	</g>
	<g>
		<path fill="#FFFFFF" d="M101.513,201.87l-1.471,4.451h-1.889l4.808-14.151h2.204l4.83,14.151h-1.953l-1.512-4.451H101.513z
			 M106.153,200.442l-1.386-4.073c-0.314-0.924-0.525-1.764-0.734-2.582h-0.043c-0.209,0.84-0.44,1.7-0.713,2.561l-1.387,4.095
			H106.153z"/>
		<path fill="#FFFFFF" d="M112.075,192.359c0.924-0.189,2.246-0.295,3.506-0.295c1.953,0,3.213,0.357,4.095,1.155
			c0.714,0.63,1.112,1.596,1.112,2.688c0,1.868-1.176,3.107-2.666,3.611v0.063c1.092,0.377,1.742,1.385,2.078,2.855
			c0.463,1.973,0.799,3.338,1.092,3.884h-1.889c-0.231-0.399-0.547-1.616-0.945-3.38c-0.42-1.953-1.176-2.688-2.834-2.751h-1.723
			v6.131h-1.826V192.359z M113.902,198.805h1.869c1.953,0,3.191-1.07,3.191-2.688c0-1.826-1.322-2.625-3.254-2.646
			c-0.883,0-1.512,0.084-1.807,0.168V198.805z"/>
		<path fill="#FFFFFF" d="M126.249,193.724h-4.305v-1.554h10.478v1.554h-4.325v12.598h-1.848V193.724z"/>
		<path fill="#FFFFFF" d="M138.45,192.359c1.113-0.168,2.436-0.295,3.885-0.295c2.624,0,4.492,0.609,5.731,1.764
			c1.26,1.155,1.995,2.793,1.995,5.082c0,2.309-0.715,4.199-2.037,5.5c-1.322,1.323-3.506,2.037-6.257,2.037
			c-1.302,0-2.394-0.063-3.317-0.168V192.359z M140.277,204.873c0.463,0.084,1.135,0.104,1.848,0.104
			c3.906,0,6.026-2.184,6.026-6.005c0.021-3.338-1.868-5.459-5.731-5.459c-0.945,0-1.659,0.084-2.143,0.189V204.873z"/>
		<path fill="#FFFFFF" d="M164.53,199.099c0,4.871-2.96,7.454-6.571,7.454c-3.738,0-6.362-2.898-6.362-7.182
			c0-4.492,2.792-7.432,6.571-7.432C162.031,191.939,164.53,194.899,164.53,199.099z M153.548,199.33
			c0,3.023,1.639,5.731,4.515,5.731c2.897,0,4.535-2.667,4.535-5.879c0-2.813-1.47-5.753-4.515-5.753
			C155.06,193.43,153.548,196.223,153.548,199.33z"/>
		<path fill="#FFFFFF" d="M178.83,200.106c-0.104-1.974-0.231-4.347-0.21-6.11h-0.063c-0.483,1.659-1.071,3.423-1.785,5.375
			l-2.498,6.866h-1.387l-2.288-6.739c-0.672-1.995-1.239-3.822-1.638-5.502h-0.042c-0.042,1.764-0.147,4.137-0.272,6.258
			l-0.379,6.067h-1.742l0.986-14.151h2.331l2.415,6.845c0.588,1.743,1.07,3.296,1.428,4.767h0.063
			c0.357-1.428,0.861-2.982,1.49-4.767l2.52-6.845h2.331l0.882,14.151h-1.785L178.83,200.106z"/>
	</g>
	<g>
		<path fill="#FFFFFF" d="M48.557,218.699v-2.105l2.69-2.612c6.472-6.159,9.396-9.435,9.435-13.255c0-2.573-1.247-4.951-5.029-4.951
			c-2.3,0-4.21,1.17-5.38,2.145l-1.092-2.418c1.755-1.481,4.25-2.572,7.174-2.572c5.458,0,7.758,3.742,7.758,7.368
			c0,4.679-3.392,8.46-8.732,13.606l-2.027,1.871v0.078h11.384v2.846H48.557z"/>
	</g>
	<g>
		<path fill="#FFFFFF" d="M652.95,192.272c0.882-0.146,2.036-0.273,3.507-0.273c1.805,0,3.128,0.42,3.968,1.176
			c0.776,0.672,1.239,1.701,1.239,2.961c0,1.281-0.379,2.289-1.092,3.023c-0.967,1.029-2.541,1.554-4.326,1.554
			c-0.545,0-1.049-0.021-1.469-0.126v5.669h-1.827V192.272z M654.778,199.097c0.398,0.104,0.902,0.146,1.512,0.146
			c2.204,0,3.548-1.07,3.548-3.023c0-1.869-1.323-2.771-3.339-2.771c-0.797,0-1.406,0.063-1.721,0.146V199.097z"/>
		<path fill="#FFFFFF" d="M664.647,201.805l-1.469,4.451h-1.891l4.809-14.151h2.205l4.828,14.151h-1.952l-1.512-4.451H664.647z
			 M669.287,200.377l-1.386-4.073c-0.315-0.924-0.524-1.764-0.735-2.582h-0.041c-0.211,0.84-0.441,1.7-0.715,2.561l-1.385,4.095
			H669.287z"/>
		<path fill="#FFFFFF" d="M675.21,192.294c0.924-0.189,2.247-0.295,3.507-0.295c1.952,0,3.212,0.357,4.094,1.155
			c0.714,0.63,1.113,1.596,1.113,2.688c0,1.868-1.176,3.107-2.667,3.611v0.063c1.092,0.377,1.743,1.385,2.079,2.855
			c0.461,1.973,0.797,3.338,1.092,3.884h-1.891c-0.23-0.399-0.545-1.616-0.944-3.38c-0.42-1.953-1.176-2.688-2.835-2.751h-1.721
			v6.131h-1.827V192.294z M677.037,198.739h1.868c1.952,0,3.191-1.07,3.191-2.688c0-1.826-1.323-2.625-3.255-2.646
			c-0.881,0-1.512,0.084-1.805,0.168V198.739z"/>
		<path fill="#FFFFFF" d="M686.508,192.104h1.826v6.824h0.063c0.378-0.547,0.756-1.051,1.112-1.512l4.326-5.313h2.268l-5.123,6.005
			l5.521,8.146h-2.162l-4.662-6.95l-1.344,1.555v5.396h-1.826V192.104z"/>
	</g>
	<g>
		<path fill="#FFFFFF" d="M604.405,196.556h-0.078l-4.405,2.379l-0.663-2.612l5.536-2.963h2.924V218.7h-3.313V196.556z"/>
		<path fill="#FFFFFF" d="M633.408,205.757c0,8.616-3.197,13.372-8.812,13.372c-4.951,0-8.304-4.64-8.382-13.021
			c0-8.499,3.665-13.177,8.812-13.177C630.367,192.931,633.408,197.687,633.408,205.757z M619.646,206.146
			c0,6.589,2.027,10.331,5.146,10.331c3.509,0,5.186-4.093,5.186-10.564c0-6.238-1.599-10.332-5.146-10.332
			C621.829,195.581,619.646,199.246,619.646,206.146z"/>
	</g>
	<g>
		<path fill="#FFFFFF" d="M357.597,209.046c-0.672,0.336-2.016,0.672-3.736,0.672c-3.99,0-6.992-2.52-6.992-7.16
			c0-4.43,3.002-7.432,7.391-7.432c1.764,0,2.877,0.377,3.359,0.629l-0.441,1.491c-0.692-0.336-1.68-0.588-2.855-0.588
			c-3.316,0-5.521,2.12-5.521,5.837c0,3.465,1.994,5.689,5.438,5.689c1.113,0,2.247-0.23,2.982-0.588L357.597,209.046z"/>
		<path fill="#FFFFFF" d="M371.54,202.286c0,4.871-2.961,7.454-6.572,7.454c-3.736,0-6.361-2.898-6.361-7.182
			c0-4.492,2.793-7.432,6.572-7.432C369.042,195.126,371.54,198.086,371.54,202.286z M360.56,202.517
			c0,3.023,1.637,5.731,4.514,5.731c2.897,0,4.535-2.667,4.535-5.879c0-2.813-1.47-5.753-4.514-5.753
			C362.072,196.617,360.56,199.41,360.56,202.517z"/>
		<path fill="#FFFFFF" d="M376.225,209.508l-3.591-14.151h1.932l1.68,7.16c0.42,1.764,0.799,3.527,1.051,4.892h0.041
			c0.231-1.407,0.672-3.087,1.155-4.913l1.89-7.139h1.91l1.723,7.181c0.398,1.68,0.776,3.359,0.986,4.851h0.042
			c0.294-1.555,0.692-3.129,1.134-4.893l1.869-7.139h1.868l-4.011,14.151h-1.91l-1.785-7.37c-0.44-1.805-0.734-3.191-0.924-4.619
			h-0.041c-0.252,1.407-0.567,2.793-1.092,4.619l-2.016,7.37H376.225z"/>
		<path fill="#FFFFFF" d="M403.775,202.286c0,4.871-2.961,7.454-6.572,7.454c-3.736,0-6.361-2.898-6.361-7.182
			c0-4.492,2.793-7.432,6.572-7.432C401.277,195.126,403.775,198.086,403.775,202.286z M392.794,202.517
			c0,3.023,1.637,5.731,4.514,5.731c2.897,0,4.535-2.667,4.535-5.879c0-2.813-1.47-5.753-4.514-5.753
			C394.306,196.617,392.794,199.41,392.794,202.517z"/>
		<path fill="#FFFFFF" d="M406.15,195.546c0.924-0.189,2.246-0.295,3.506-0.295c1.953,0,3.213,0.357,4.095,1.155
			c0.714,0.63,1.112,1.596,1.112,2.688c0,1.868-1.176,3.107-2.666,3.611v0.063c1.092,0.377,1.742,1.385,2.078,2.855
			c0.463,1.973,0.799,3.338,1.092,3.884h-1.889c-0.231-0.399-0.547-1.616-0.945-3.38c-0.42-1.953-1.176-2.688-2.834-2.751h-1.723
			v6.131h-1.826V195.546z M407.976,201.992h1.869c1.953,0,3.191-1.07,3.191-2.688c0-1.826-1.322-2.625-3.254-2.646
			c-0.883,0-1.512,0.084-1.807,0.168V201.992z"/>
		<path fill="#FFFFFF" d="M417.448,195.357h1.826v6.824h0.063c0.378-0.547,0.756-1.051,1.112-1.512l4.326-5.313h2.268l-5.123,6.005
			l5.521,8.146h-2.162l-4.662-6.95l-1.344,1.555v5.396h-1.826V195.357z"/>
		<path fill="#FFFFFF" d="M430.656,195.357v14.151h-1.826v-14.151H430.656z"/>
		<path fill="#FFFFFF" d="M433.849,209.508v-14.151h1.994l4.535,7.16c1.051,1.658,1.869,3.148,2.541,4.598l0.042-0.021
			c-0.168-1.889-0.21-3.611-0.21-5.815v-5.921h1.722v14.151h-1.848l-4.493-7.181c-0.986-1.574-1.932-3.191-2.646-4.725l-0.063,0.021
			c0.105,1.785,0.147,3.485,0.147,5.837v6.047H433.849z"/>
		<path fill="#FFFFFF" d="M458.437,208.878c-0.819,0.294-2.436,0.777-4.347,0.777c-2.142,0-3.905-0.547-5.291-1.869
			c-1.218-1.176-1.974-3.065-1.974-5.27c0.021-4.221,2.918-7.307,7.664-7.307c1.637,0,2.918,0.356,3.527,0.65l-0.441,1.49
			c-0.756-0.336-1.701-0.608-3.129-0.608c-3.443,0-5.689,2.142-5.689,5.69c0,3.59,2.162,5.711,5.459,5.711
			c1.197,0,2.016-0.168,2.436-0.379v-4.22h-2.877v-1.47h4.662V208.878z"/>
	</g>
	<g>
		<path fill="#FFFFFF" d="M322.357,196.244h-9.668l-0.975,6.511c0.584-0.078,1.13-0.156,2.065-0.156
			c1.949,0,3.899,0.429,5.458,1.365c1.988,1.13,3.626,3.313,3.626,6.51c0,4.952-3.938,8.655-9.435,8.655
			c-2.768,0-5.107-0.779-6.315-1.56l0.857-2.611c1.053,0.623,3.119,1.403,5.419,1.403c3.236,0,6.004-2.105,6.004-5.497
			c-0.039-3.275-2.222-5.614-7.29-5.614c-1.442,0-2.573,0.156-3.509,0.272l1.637-12.163h12.125V196.244z"/>
	</g>
	<g>
		<path fill="#FFFFFF" d="M111.212,382.13c-0.672,0.336-2.016,0.672-3.736,0.672c-3.99,0-6.992-2.52-6.992-7.159
			c0-4.431,3.002-7.434,7.391-7.434c1.764,0,2.877,0.379,3.359,0.631l-0.441,1.49c-0.692-0.336-1.68-0.588-2.855-0.588
			c-3.316,0-5.521,2.121-5.521,5.837c0,3.464,1.994,5.69,5.438,5.69c1.113,0,2.247-0.231,2.982-0.588L111.212,382.13z"/>
		<path fill="#FFFFFF" d="M113.503,368.629c0.924-0.188,2.246-0.293,3.506-0.293c1.953,0,3.213,0.356,4.095,1.154
			c0.714,0.63,1.112,1.596,1.112,2.688c0,1.869-1.176,3.107-2.666,3.611v0.063c1.092,0.379,1.742,1.387,2.078,2.855
			c0.463,1.975,0.799,3.339,1.092,3.885h-1.889c-0.231-0.398-0.547-1.617-0.945-3.381c-0.42-1.952-1.176-2.688-2.834-2.75h-1.723
			v6.131h-1.826V368.629z M115.329,375.075h1.869c1.953,0,3.191-1.071,3.191-2.688c0-1.827-1.322-2.624-3.254-2.646
			c-0.883,0-1.512,0.084-1.807,0.168V375.075z"/>
		<path fill="#FFFFFF" d="M132.128,375.957h-5.5v5.102h6.131v1.533h-7.958V368.44h7.643v1.532h-5.815v4.473h5.5V375.957z"/>
		<path fill="#FFFFFF" d="M137.421,378.141l-1.469,4.451h-1.891l4.809-14.151h2.205l4.828,14.151h-1.952l-1.512-4.451H137.421z
			 M142.062,376.713l-1.386-4.073c-0.315-0.924-0.524-1.764-0.735-2.583H139.9c-0.211,0.84-0.441,1.701-0.715,2.563l-1.385,4.094
			H142.062z"/>
		<path fill="#FFFFFF" d="M149.055,369.994h-4.304v-1.554h10.477v1.554h-4.325v12.598h-1.848V369.994z"/>
		<path fill="#FFFFFF" d="M158.63,368.44v14.151h-1.826V368.44H158.63z"/>
		<path fill="#FFFFFF" d="M164.93,382.592l-4.619-14.151h1.974l2.205,6.971c0.608,1.911,1.133,3.632,1.512,5.291h0.041
			c0.399-1.638,0.987-3.423,1.617-5.271l2.394-6.991h1.952l-5.06,14.151H164.93z"/>
		<path fill="#FFFFFF" d="M180.868,375.957h-5.502v5.102h6.131v1.533h-7.957V368.44h7.643v1.532h-5.816v4.473h5.502V375.957z"/>
		<path fill="#FFFFFF" d="M188.073,380.366c0.819,0.504,2.016,0.924,3.275,0.924c1.868,0,2.96-0.987,2.96-2.415
			c0-1.322-0.756-2.078-2.666-2.813c-2.31-0.819-3.737-2.016-3.737-4.011c0-2.204,1.827-3.843,4.577-3.843
			c1.449,0,2.498,0.336,3.129,0.693l-0.504,1.49c-0.463-0.252-1.407-0.672-2.688-0.672c-1.932,0-2.667,1.155-2.667,2.121
			c0,1.322,0.86,1.974,2.813,2.729c2.394,0.924,3.611,2.079,3.611,4.157c0,2.184-1.617,4.073-4.955,4.073
			c-1.365,0-2.855-0.399-3.611-0.903L188.073,380.366z"/>
		<path fill="#FFFFFF" d="M198.677,368.608c0.882-0.147,2.037-0.272,3.506-0.272c1.807,0,3.129,0.42,3.969,1.176
			c0.777,0.672,1.238,1.7,1.238,2.96c0,1.28-0.377,2.288-1.092,3.023c-0.965,1.028-2.54,1.554-4.324,1.554
			c-0.547,0-1.051-0.021-1.471-0.126v5.669h-1.826V368.608z M200.503,375.432c0.399,0.105,0.903,0.147,1.512,0.147
			c2.205,0,3.549-1.071,3.549-3.023c0-1.868-1.322-2.771-3.338-2.771c-0.799,0-1.407,0.063-1.723,0.147V375.432z"/>
		<path fill="#FFFFFF" d="M210.374,378.141l-1.471,4.451h-1.889l4.808-14.151h2.204l4.83,14.151h-1.953l-1.512-4.451H210.374z
			 M215.014,376.713l-1.386-4.073c-0.314-0.924-0.525-1.764-0.734-2.583h-0.043c-0.209,0.84-0.44,1.701-0.713,2.563l-1.387,4.094
			H215.014z"/>
		<path fill="#FFFFFF" d="M230.511,382.13c-0.672,0.336-2.016,0.672-3.738,0.672c-3.988,0-6.991-2.52-6.991-7.159
			c0-4.431,3.003-7.434,7.391-7.434c1.764,0,2.876,0.379,3.359,0.631l-0.44,1.49c-0.693-0.336-1.68-0.588-2.855-0.588
			c-3.318,0-5.522,2.121-5.522,5.837c0,3.464,1.995,5.69,5.438,5.69c1.112,0,2.246-0.231,2.98-0.588L230.511,382.13z"/>
		<path fill="#FFFFFF" d="M240.128,375.957h-5.5v5.102h6.131v1.533h-7.958V368.44h7.643v1.532h-5.815v4.473h5.5V375.957z"/>
	</g>
	<g>
		<path fill="#FFFFFF" d="M37.37,391.422c0.975,0.624,3.235,1.599,5.614,1.599c4.405,0,5.77-2.808,5.73-4.912
			c-0.039-3.548-3.235-5.068-6.55-5.068h-1.91v-2.573h1.91c2.495,0,5.653-1.287,5.653-4.289c0-2.027-1.287-3.82-4.444-3.82
			c-2.027,0-3.977,0.896-5.068,1.677l-0.896-2.495c1.325-0.975,3.898-1.949,6.627-1.949c4.99,0,7.252,2.963,7.252,6.043
			c0,2.611-1.56,4.834-4.679,5.965v0.077c3.119,0.624,5.653,2.963,5.653,6.511c0,4.055-3.158,7.603-9.239,7.603
			c-2.847,0-5.342-0.896-6.589-1.715L37.37,391.422z"/>
		<path fill="#FFFFFF" d="M54.717,393.332c0-1.442,0.975-2.456,2.339-2.456c1.365,0,2.301,1.014,2.301,2.456
			c0,1.403-0.897,2.456-2.34,2.456C55.653,395.788,54.717,394.735,54.717,393.332z"/>
		<path fill="#FFFFFF" d="M61.383,391.422c0.975,0.624,3.235,1.599,5.614,1.599c4.405,0,5.77-2.808,5.73-4.912
			c-0.039-3.548-3.235-5.068-6.55-5.068h-1.91v-2.573h1.91c2.495,0,5.653-1.287,5.653-4.289c0-2.027-1.287-3.82-4.444-3.82
			c-2.027,0-3.977,0.896-5.068,1.677l-0.896-2.495c1.325-0.975,3.898-1.949,6.627-1.949c4.99,0,7.252,2.963,7.252,6.043
			c0,2.611-1.56,4.834-4.679,5.965v0.077c3.119,0.624,5.653,2.963,5.653,6.511c0,4.055-3.158,7.603-9.239,7.603
			c-2.847,0-5.342-0.896-6.589-1.715L61.383,391.422z"/>
	</g>
	<g>
		<path fill="#FFFFFF" d="M655.897,371.953h1.826v12.619h6.047v1.532h-7.873V371.953z"/>
		<path fill="#FFFFFF" d="M667.635,371.953v14.151h-1.826v-14.151H667.635z"/>
		<path fill="#FFFFFF" d="M673.515,373.507h-4.304v-1.554h10.477v1.554h-4.325v12.598h-1.848V373.507z"/>
		<path fill="#FFFFFF" d="M688.592,379.47h-5.502v5.103h6.131v1.532h-7.957v-14.151h7.643v1.533h-5.816v4.472h5.502V379.47z"/>
		<path fill="#FFFFFF" d="M691.596,372.143c0.924-0.189,2.246-0.295,3.506-0.295c1.953,0,3.213,0.357,4.095,1.155
			c0.714,0.63,1.112,1.596,1.112,2.688c0,1.868-1.176,3.107-2.666,3.611v0.063c1.092,0.377,1.742,1.385,2.078,2.855
			c0.463,1.973,0.799,3.338,1.092,3.884h-1.889c-0.231-0.399-0.547-1.616-0.945-3.38c-0.42-1.953-1.176-2.688-2.834-2.751h-1.723
			v6.131h-1.826V372.143z M693.422,378.588h1.869c1.953,0,3.191-1.07,3.191-2.688c0-1.826-1.322-2.625-3.254-2.646
			c-0.883,0-1.512,0.084-1.807,0.168V378.588z"/>
		<path fill="#FFFFFF" d="M705.287,381.653l-1.471,4.451h-1.889l4.808-14.151h2.204l4.83,14.151h-1.953l-1.512-4.451H705.287z
			 M709.927,380.226l-1.386-4.073c-0.314-0.924-0.525-1.764-0.734-2.582h-0.043c-0.209,0.84-0.44,1.7-0.713,2.561l-1.387,4.095
			H709.927z"/>
		<path fill="#FFFFFF" d="M720.302,372.143c0.798-0.168,2.058-0.295,3.339-0.295c1.826,0,3.002,0.315,3.884,1.029
			c0.735,0.546,1.176,1.386,1.176,2.498c0,1.365-0.903,2.563-2.394,3.107v0.043c1.344,0.336,2.918,1.448,2.918,3.548
			c0,1.218-0.482,2.142-1.196,2.835c-0.987,0.902-2.583,1.322-4.892,1.322c-1.26,0-2.227-0.084-2.835-0.168V372.143z
			 M722.129,377.938h1.658c1.932,0,3.065-1.008,3.065-2.373c0-1.658-1.26-2.31-3.107-2.31c-0.84,0-1.323,0.063-1.616,0.126V377.938z
			 M722.129,384.719c0.356,0.063,0.881,0.084,1.532,0.084c1.89,0,3.632-0.693,3.632-2.75c0-1.932-1.658-2.73-3.652-2.73h-1.512
			V384.719z"/>
	</g>
	<g>
		<path fill="#FFFFFF" d="M604.406,373.214h-0.078l-4.405,2.379l-0.663-2.612l5.536-2.963h2.924v25.341h-3.313V373.214z"/>
		<path fill="#FFFFFF" d="M617.386,391.421c0.975,0.624,3.235,1.599,5.614,1.599c4.405,0,5.77-2.808,5.73-4.912
			c-0.039-3.548-3.235-5.068-6.55-5.068h-1.91v-2.573h1.91c2.495,0,5.653-1.287,5.653-4.289c0-2.027-1.287-3.82-4.444-3.82
			c-2.027,0-3.977,0.896-5.068,1.677l-0.896-2.495c1.325-0.975,3.898-1.949,6.627-1.949c4.99,0,7.252,2.963,7.252,6.043
			c0,2.611-1.56,4.834-4.679,5.965v0.077c3.119,0.624,5.653,2.963,5.653,6.511c0,4.055-3.158,7.603-9.239,7.603
			c-2.847,0-5.342-0.896-6.589-1.715L617.386,391.421z"/>
	</g>
	<g>
		<path fill="#FFFFFF" d="M359.772,385.129c-0.819,0.294-2.436,0.777-4.347,0.777c-2.142,0-3.905-0.547-5.291-1.869
			c-1.218-1.176-1.974-3.065-1.974-5.27c0.021-4.221,2.918-7.307,7.664-7.307c1.637,0,2.918,0.356,3.527,0.65l-0.441,1.49
			c-0.756-0.336-1.701-0.608-3.129-0.608c-3.443,0-5.689,2.142-5.689,5.69c0,3.59,2.162,5.711,5.459,5.711
			c1.197,0,2.016-0.168,2.436-0.379v-4.22h-2.877v-1.47h4.662V385.129z"/>
		<path fill="#FFFFFF" d="M362.567,371.797c0.924-0.189,2.246-0.295,3.506-0.295c1.953,0,3.213,0.357,4.095,1.155
			c0.714,0.63,1.112,1.596,1.112,2.688c0,1.868-1.176,3.107-2.666,3.611v0.063c1.092,0.377,1.742,1.385,2.078,2.855
			c0.463,1.973,0.799,3.338,1.092,3.884h-1.889c-0.231-0.399-0.547-1.616-0.945-3.38c-0.42-1.953-1.176-2.688-2.834-2.751h-1.723
			v6.131h-1.826V371.797z M364.393,378.242h1.869c1.953,0,3.191-1.07,3.191-2.688c0-1.826-1.322-2.625-3.254-2.646
			c-0.883,0-1.512,0.084-1.807,0.168V378.242z"/>
		<path fill="#FFFFFF" d="M381.192,379.124h-5.5v5.103h6.131v1.532h-7.958v-14.151h7.643v1.533h-5.815v4.472h5.5V379.124z"/>
		<path fill="#FFFFFF" d="M391.524,379.124h-5.5v5.103h6.131v1.532h-7.958v-14.151h7.643v1.533h-5.815v4.472h5.5V379.124z"/>
		<path fill="#FFFFFF" d="M394.529,385.759v-14.151h1.995l4.535,7.16c1.049,1.658,1.868,3.148,2.54,4.598l0.042-0.021
			c-0.168-1.889-0.21-3.611-0.21-5.815v-5.921h1.722v14.151h-1.848l-4.493-7.181c-0.987-1.574-1.932-3.191-2.646-4.725l-0.063,0.021
			c0.104,1.785,0.146,3.485,0.146,5.837v6.047H394.529z"/>
		<path fill="#FFFFFF" d="M412.546,383.533c0.819,0.504,2.016,0.924,3.275,0.924c1.868,0,2.96-0.986,2.96-2.414
			c0-1.323-0.756-2.079-2.666-2.814c-2.31-0.818-3.737-2.016-3.737-4.01c0-2.205,1.827-3.842,4.577-3.842
			c1.449,0,2.498,0.336,3.129,0.692l-0.504,1.491c-0.463-0.252-1.407-0.672-2.688-0.672c-1.932,0-2.667,1.154-2.667,2.12
			c0,1.323,0.86,1.974,2.813,2.729c2.394,0.924,3.611,2.078,3.611,4.157c0,2.184-1.617,4.073-4.955,4.073
			c-1.365,0-2.855-0.398-3.611-0.902L412.546,383.533z"/>
		<path fill="#FFFFFF" d="M425.838,373.161h-4.305v-1.554h10.478v1.554h-4.325v12.598h-1.848V373.161z"/>
		<path fill="#FFFFFF" d="M434.301,381.308l-1.471,4.451h-1.889l4.808-14.151h2.204l4.83,14.151h-1.953l-1.512-4.451H434.301z
			 M438.941,379.88l-1.386-4.073c-0.314-0.924-0.525-1.764-0.734-2.582h-0.043c-0.209,0.84-0.44,1.7-0.713,2.561l-1.387,4.095
			H438.941z"/>
		<path fill="#FFFFFF" d="M455.321,385.129c-0.819,0.294-2.436,0.777-4.347,0.777c-2.142,0-3.905-0.547-5.291-1.869
			c-1.218-1.176-1.974-3.065-1.974-5.27c0.021-4.221,2.918-7.307,7.664-7.307c1.637,0,2.918,0.356,3.527,0.65l-0.441,1.49
			c-0.756-0.336-1.701-0.608-3.129-0.608c-3.443,0-5.689,2.142-5.689,5.69c0,3.59,2.162,5.711,5.459,5.711
			c1.197,0,2.016-0.168,2.436-0.379v-4.22h-2.877v-1.47h4.662V385.129z"/>
		<path fill="#FFFFFF" d="M465.442,379.124h-5.5v5.103h6.131v1.532h-7.958v-14.151h7.643v1.533h-5.815v4.472h5.5V379.124z"/>
	</g>
	<g>
		<path fill="#FFFFFF" d="M306.919,388.928c0-3.197,1.91-5.459,5.029-6.785l-0.039-0.115c-2.807-1.326-4.016-3.51-4.016-5.693
			c0-4.016,3.392-6.744,7.836-6.744c4.913,0,7.369,3.08,7.369,6.238c0,2.145-1.053,4.443-4.172,5.926v0.117
			c3.158,1.248,5.107,3.469,5.107,6.549c0,4.406-3.782,7.369-8.616,7.369C310.116,395.789,306.919,392.631,306.919,388.928z
			 M320.565,388.771c0-3.08-2.145-4.563-5.575-5.537c-2.963,0.859-4.562,2.809-4.562,5.225c-0.117,2.574,1.832,4.834,5.068,4.834
			C318.576,393.293,320.565,391.383,320.565,388.771z M311.13,376.102c0,2.533,1.91,3.898,4.834,4.678
			c2.184-0.74,3.859-2.301,3.859-4.602c0-2.027-1.208-4.131-4.288-4.131C312.69,372.047,311.13,373.918,311.13,376.102z"/>
	</g>
	<g>
		<path fill="#FFFFFF" d="M655.732,504.012c0.882-0.147,2.037-0.272,3.506-0.272c1.807,0,3.129,0.42,3.969,1.176
			c0.777,0.672,1.238,1.7,1.238,2.96c0,1.28-0.377,2.288-1.092,3.023c-0.965,1.028-2.54,1.554-4.324,1.554
			c-0.547,0-1.051-0.021-1.471-0.126v5.669h-1.826V504.012z M657.558,510.835c0.399,0.105,0.903,0.147,1.512,0.147
			c2.205,0,3.549-1.071,3.549-3.023c0-1.868-1.322-2.771-3.338-2.771c-0.799,0-1.407,0.063-1.723,0.147V510.835z"/>
		<path fill="#FFFFFF" d="M667.428,513.544l-1.47,4.451h-1.89l4.808-14.151h2.205l4.829,14.151h-1.952l-1.512-4.451H667.428z
			 M672.068,512.116l-1.385-4.073c-0.315-0.924-0.525-1.764-0.735-2.583h-0.042c-0.21,0.84-0.441,1.701-0.714,2.563l-1.386,4.094
			H672.068z"/>
		<path fill="#FFFFFF" d="M677.991,504.032c0.924-0.188,2.246-0.293,3.506-0.293c1.953,0,3.213,0.356,4.095,1.154
			c0.714,0.63,1.112,1.596,1.112,2.688c0,1.869-1.176,3.107-2.666,3.611v0.063c1.092,0.379,1.742,1.387,2.078,2.855
			c0.463,1.975,0.799,3.339,1.092,3.885h-1.889c-0.231-0.398-0.547-1.617-0.945-3.381c-0.42-1.952-1.176-2.688-2.834-2.75h-1.723
			v6.131h-1.826V504.032z M679.818,510.479h1.869c1.953,0,3.191-1.071,3.191-2.688c0-1.827-1.322-2.624-3.254-2.646
			c-0.883,0-1.512,0.084-1.807,0.168V510.479z"/>
		<path fill="#FFFFFF" d="M689.289,503.844h1.827v6.823h0.063c0.378-0.545,0.756-1.049,1.113-1.512l4.324-5.312h2.268l-5.123,6.005
			l5.522,8.146h-2.163l-4.66-6.949l-1.344,1.553v5.396h-1.827V503.844z"/>
		<path fill="#FFFFFF" d="M702.497,503.844v14.151h-1.826v-14.151H702.497z"/>
		<path fill="#FFFFFF" d="M705.691,517.995v-14.151h1.994l4.535,7.159c1.05,1.659,1.869,3.15,2.541,4.599l0.041-0.021
			c-0.168-1.891-0.209-3.611-0.209-5.816v-5.921h1.721v14.151h-1.848l-4.492-7.181c-0.987-1.575-1.932-3.191-2.646-4.724
			l-0.063,0.021c0.105,1.784,0.146,3.485,0.146,5.837v6.047H705.691z"/>
		<path fill="#FFFFFF" d="M730.279,517.365c-0.818,0.294-2.436,0.776-4.346,0.776c-2.142,0-3.905-0.545-5.291-1.868
			c-1.218-1.176-1.974-3.065-1.974-5.271c0.021-4.22,2.919-7.307,7.663-7.307c1.639,0,2.919,0.357,3.527,0.651l-0.44,1.491
			c-0.756-0.336-1.7-0.609-3.128-0.609c-3.443,0-5.69,2.142-5.69,5.689c0,3.591,2.163,5.711,5.459,5.711
			c1.196,0,2.016-0.168,2.436-0.377v-4.221h-2.876v-1.47h4.66V517.365z"/>
	</g>
	<g>
		<path fill="#FFFFFF" d="M656.454,554.761c0.818,0.504,2.016,0.924,3.275,0.924c1.869,0,2.961-0.987,2.961-2.415
			c0-1.322-0.756-2.078-2.667-2.813c-2.31-0.819-3.737-2.016-3.737-4.011c0-2.204,1.826-3.843,4.577-3.843
			c1.448,0,2.499,0.336,3.128,0.693l-0.504,1.49c-0.461-0.252-1.406-0.672-2.688-0.672c-1.932,0-2.666,1.155-2.666,2.121
			c0,1.322,0.861,1.974,2.813,2.729c2.394,0.924,3.611,2.079,3.611,4.157c0,2.184-1.616,4.073-4.955,4.073
			c-1.364,0-2.855-0.399-3.611-0.903L656.454,554.761z"/>
		<path fill="#FFFFFF" d="M668.886,542.835v8.378c0,3.17,1.406,4.514,3.297,4.514c2.1,0,3.443-1.386,3.443-4.514v-8.378h1.848v8.251
			c0,4.347-2.289,6.131-5.354,6.131c-2.897,0-5.081-1.658-5.081-6.047v-8.335H668.886z"/>
		<path fill="#FFFFFF" d="M680.646,543.023c0.799-0.168,2.059-0.293,3.339-0.293c1.827,0,3.003,0.314,3.884,1.028
			c0.735,0.546,1.176,1.386,1.176,2.499c0,1.364-0.902,2.561-2.393,3.107v0.041c1.344,0.336,2.918,1.449,2.918,3.549
			c0,1.218-0.482,2.142-1.197,2.834c-0.986,0.903-2.582,1.323-4.892,1.323c-1.26,0-2.226-0.084-2.835-0.168V543.023z
			 M682.473,548.818h1.659c1.932,0,3.064-1.008,3.064-2.372c0-1.659-1.26-2.31-3.107-2.31c-0.84,0-1.322,0.063-1.616,0.126V548.818z
			 M682.473,555.601c0.356,0.063,0.882,0.084,1.532,0.084c1.891,0,3.633-0.692,3.633-2.751c0-1.932-1.658-2.729-3.653-2.729h-1.512
			V555.601z"/>
		<path fill="#FFFFFF" d="M694.421,556.986l-3.59-14.151h1.932l1.68,7.159c0.42,1.764,0.798,3.527,1.05,4.893h0.042
			c0.23-1.406,0.672-3.086,1.154-4.913l1.891-7.139h1.91l1.722,7.181c0.399,1.68,0.776,3.359,0.987,4.85h0.041
			c0.295-1.553,0.693-3.128,1.135-4.892l1.868-7.139h1.868l-4.01,14.151h-1.91l-1.785-7.369c-0.441-1.807-0.734-3.191-0.924-4.619
			h-0.042c-0.252,1.406-0.567,2.792-1.092,4.619l-2.016,7.369H694.421z"/>
		<path fill="#FFFFFF" d="M710.97,552.535l-1.471,4.451h-1.889l4.808-14.151h2.204l4.83,14.151h-1.953l-1.512-4.451H710.97z
			 M715.61,551.107l-1.386-4.073c-0.314-0.924-0.525-1.764-0.734-2.583h-0.043c-0.209,0.84-0.44,1.701-0.713,2.563l-1.387,4.094
			H715.61z"/>
		<path fill="#FFFFFF" d="M723.023,556.986v-6.005l-4.472-8.146h2.079l1.994,3.905c0.546,1.07,0.966,1.932,1.406,2.918h0.043
			c0.398-0.924,0.881-1.848,1.428-2.918l2.036-3.905h2.079l-4.746,8.126v6.025H723.023z"/>
	</g>
	<g>
		<path fill="#FFFFFF" d="M666.229,476.495c-0.672,0.336-2.016,0.672-3.737,0.672c-3.989,0-6.992-2.52-6.992-7.16
			c0-4.43,3.003-7.432,7.391-7.432c1.764,0,2.877,0.377,3.359,0.629l-0.44,1.491c-0.692-0.336-1.68-0.588-2.855-0.588
			c-3.317,0-5.522,2.12-5.522,5.837c0,3.465,1.995,5.689,5.438,5.689c1.112,0,2.247-0.23,2.981-0.588L666.229,476.495z"/>
		<path fill="#FFFFFF" d="M670.892,472.506l-1.47,4.451h-1.89l4.809-14.151h2.204l4.829,14.151h-1.953l-1.512-4.451H670.892z
			 M675.532,471.078l-1.387-4.073c-0.314-0.924-0.524-1.764-0.734-2.582h-0.042c-0.21,0.84-0.44,1.7-0.714,2.561l-1.386,4.095
			H675.532z"/>
		<path fill="#FFFFFF" d="M681.203,474.731c0.819,0.504,2.016,0.924,3.275,0.924c1.868,0,2.96-0.986,2.96-2.414
			c0-1.323-0.756-2.079-2.666-2.814c-2.31-0.818-3.737-2.016-3.737-4.01c0-2.205,1.827-3.842,4.577-3.842
			c1.449,0,2.498,0.336,3.129,0.692l-0.504,1.491c-0.463-0.252-1.407-0.672-2.688-0.672c-1.932,0-2.667,1.154-2.667,2.12
			c0,1.323,0.86,1.974,2.813,2.729c2.394,0.924,3.611,2.078,3.611,4.157c0,2.184-1.617,4.073-4.955,4.073
			c-1.365,0-2.855-0.398-3.611-0.902L681.203,474.731z"/>
		<path fill="#FFFFFF" d="M693.635,462.806v5.921h6.845v-5.921h1.848v14.151h-1.848v-6.635h-6.845v6.635h-1.827v-14.151H693.635z"/>
		<path fill="#FFFFFF" d="M709.952,462.995c1.112-0.168,2.436-0.295,3.884-0.295c2.624,0,4.493,0.609,5.731,1.764
			c1.26,1.155,1.995,2.793,1.995,5.082c0,2.309-0.714,4.199-2.036,5.5c-1.323,1.323-3.507,2.037-6.258,2.037
			c-1.301,0-2.393-0.063-3.316-0.168V462.995z M711.779,475.509c0.462,0.084,1.134,0.104,1.848,0.104
			c3.905,0,6.025-2.184,6.025-6.005c0.021-3.338-1.868-5.459-5.731-5.459c-0.944,0-1.659,0.084-2.142,0.189V475.509z"/>
		<path fill="#FFFFFF" d="M731.265,470.322h-5.5v5.103h6.131v1.532h-7.958v-14.151h7.643v1.533h-5.815v4.472h5.5V470.322z"/>
		<path fill="#FFFFFF" d="M734.017,474.731c0.819,0.504,2.016,0.924,3.275,0.924c1.869,0,2.961-0.986,2.961-2.414
			c0-1.323-0.756-2.079-2.666-2.814c-2.311-0.818-3.738-2.016-3.738-4.01c0-2.205,1.827-3.842,4.578-3.842
			c1.448,0,2.498,0.336,3.128,0.692l-0.504,1.491c-0.462-0.252-1.407-0.672-2.688-0.672c-1.932,0-2.667,1.154-2.667,2.12
			c0,1.323,0.861,1.974,2.814,2.729c2.393,0.924,3.611,2.078,3.611,4.157c0,2.184-1.617,4.073-4.955,4.073
			c-1.365,0-2.855-0.398-3.611-0.902L734.017,474.731z"/>
		<path fill="#FFFFFF" d="M744.622,462.806h1.826v6.824h0.063c0.378-0.547,0.756-1.051,1.112-1.512l4.326-5.313h2.268l-5.123,6.005
			l5.521,8.146h-2.162l-4.662-6.95l-1.344,1.555v5.396h-1.826V462.806z"/>
	</g>
	<g>
		<path fill="#FFFFFF" d="M612.154,504.079c0.938-0.156,2.164-0.29,3.726-0.29c1.919,0,3.324,0.446,4.217,1.249
			c0.825,0.714,1.315,1.808,1.315,3.146c0,1.361-0.401,2.432-1.16,3.213c-1.025,1.093-2.699,1.65-4.595,1.65
			c-0.58,0-1.116-0.022-1.562-0.134v6.023h-1.941V504.079z M614.095,511.329c0.424,0.112,0.959,0.156,1.605,0.156
			c2.343,0,3.771-1.138,3.771-3.212c0-1.985-1.405-2.945-3.547-2.945c-0.848,0-1.495,0.067-1.829,0.156V511.329z"/>
	</g>
	<g>
		<path fill="#FFFFFF" d="M615.936,524.692c-7.929,0-14.38-6.451-14.38-14.381c0-7.929,6.451-14.38,14.38-14.38
			c7.93,0,14.381,6.451,14.381,14.38C630.317,518.241,623.865,524.692,615.936,524.692z M615.936,496.932
			c-7.378,0-13.38,6.002-13.38,13.38s6.002,13.381,13.38,13.381s13.381-6.003,13.381-13.381S623.314,496.932,615.936,496.932z"/>
	</g>
	<g>
		<path fill="#FFFFFF" d="M620.691,550.729c-0.111-2.097-0.246-4.617-0.223-6.491H620.4c-0.512,1.762-1.137,3.636-1.895,5.711
			l-2.656,7.295h-1.471l-2.432-7.161c-0.715-2.119-1.316-4.061-1.74-5.845h-0.045c-0.045,1.874-0.156,4.395-0.291,6.647l-0.4,6.447
			h-1.852l1.049-15.036h2.475l2.566,7.272c0.625,1.852,1.137,3.503,1.518,5.064h0.066c0.379-1.517,0.914-3.168,1.584-5.064
			l2.676-7.272h2.477l0.938,15.036h-1.896L620.691,550.729z"/>
	</g>
	<g>
		<path fill="#FFFFFF" d="M615.156,563.75c-7.929,0-14.38-6.451-14.38-14.38c0-7.93,6.451-14.381,14.38-14.381
			s14.38,6.451,14.38,14.381C629.536,557.299,623.085,563.75,615.156,563.75z M615.156,535.989c-7.378,0-13.38,6.003-13.38,13.381
			s6.002,13.38,13.38,13.38s13.38-6.002,13.38-13.38S622.534,535.989,615.156,535.989z"/>
	</g>
	<g>
		<path fill="#FFFFFF" d="M611.34,464.18h1.941v7.252h0.066c0.401-0.58,0.803-1.117,1.183-1.607l4.596-5.645h2.409l-5.443,6.381
			l5.867,8.656h-2.298l-4.952-7.385l-1.428,1.65v5.734h-1.941V464.18z"/>
	</g>
	<g>
		<path fill="#FFFFFF" d="M615.554,485.634c-7.929,0-14.38-6.451-14.38-14.38c0-7.93,6.451-14.381,14.38-14.381
			s14.38,6.451,14.38,14.381C629.934,479.183,623.483,485.634,615.554,485.634z M615.554,457.873c-7.378,0-13.38,6.003-13.38,13.381
			s6.002,13.38,13.38,13.38s13.38-6.002,13.38-13.38S622.932,457.873,615.554,457.873z"/>
	</g>
</g>
</svg>
